<svg width="17" height="17" viewBox="0 0 17 17" fill="none" xmlns="http://www.w3.org/2000/svg">
<g id="camera-photo 1" clip-path="url(#clip0_153_22495)">
<g id="Group">
<path id="Vector" d="M3.40267 14.7173H14.0693C14.8057 14.7173 15.4027 14.1204 15.4027 13.384V6.45062C15.4027 5.71424 14.8057 5.11729 14.0693 5.11729H12.0693L10.4027 2.71729H7.06934L5.40267 5.11729H3.40267C2.66629 5.11729 2.06934 5.71424 2.06934 6.45062V13.384C2.06934 14.1204 2.66629 14.7173 3.40267 14.7173Z" stroke="#F5F4F3" stroke-width="1.33333" stroke-linecap="round" stroke-linejoin="round"/>
<path id="Vector_2" d="M8.736 12.0506C10.2088 12.0506 11.4027 10.8567 11.4027 9.38395C11.4027 7.91119 10.2088 6.71729 8.736 6.71729C7.26324 6.71729 6.06934 7.91119 6.06934 9.38395C6.06934 10.8567 7.26324 12.0506 8.736 12.0506Z" stroke="#F5F4F3" stroke-width="1.33333" stroke-linecap="round" stroke-linejoin="round"/>
</g>
</g>
<defs>
<clipPath id="clip0_153_22495">
<rect width="16" height="16" fill="white" transform="translate(0.73584 0.717285)"/>
</clipPath>
</defs>
</svg>
