<svg width="500" height="150" viewBox="0 0 500 150" fill="none" xmlns="http://www.w3.org/2000/svg">
<rect width="500" height="150" fill="#469FE3"/>
<mask id="path-1-outside-1_748_36923" maskUnits="userSpaceOnUse" x="360.314" y="82.121" width="19.1131" height="23.5885" fill="black">
<rect fill="white" x="360.314" y="82.121" width="19.1131" height="23.5885"/>
<path d="M374.45 94.884C374.534 93.9399 374.686 92.372 374.786 91.3865C374.903 90.2316 374.224 89.1533 373.149 88.7152L367.676 86.4849C366.983 86.2025 366.201 86.6772 366.13 87.4219C365.939 89.4136 365.621 92.6791 365.59 92.937C365.547 93.2997 365.458 94.2044 365.383 94.9484C365.319 95.6915 365.233 96.5262 365.212 96.8071C365.179 97.0791 365.221 97.692 365.298 98.162C365.411 98.8971 365.492 99.108 365.885 99.7454C366.644 100.953 367.503 101.574 368.816 101.86C370.109 102.138 371.517 101.778 372.574 100.895C373.191 100.395 373.433 100.032 373.817 99.0981C374.08 98.4348 374.145 98.0001 374.45 94.884Z"/>
</mask>
<path d="M374.45 94.884C374.534 93.9399 374.686 92.372 374.786 91.3865C374.903 90.2316 374.224 89.1533 373.149 88.7152L367.676 86.4849C366.983 86.2025 366.201 86.6772 366.13 87.4219C365.939 89.4136 365.621 92.6791 365.59 92.937C365.547 93.2997 365.458 94.2044 365.383 94.9484C365.319 95.6915 365.233 96.5262 365.212 96.8071C365.179 97.0791 365.221 97.692 365.298 98.162C365.411 98.8971 365.492 99.108 365.885 99.7454C366.644 100.953 367.503 101.574 368.816 101.86C370.109 102.138 371.517 101.778 372.574 100.895C373.191 100.395 373.433 100.032 373.817 99.0981C374.08 98.4348 374.145 98.0001 374.45 94.884Z" fill="#B5D8F4"/>
<path d="M374.45 94.884C374.534 93.9399 374.686 92.372 374.786 91.3865C374.903 90.2316 374.224 89.1533 373.149 88.7152L367.676 86.4849C366.983 86.2025 366.201 86.6772 366.13 87.4219C365.939 89.4136 365.621 92.6791 365.59 92.937C365.547 93.2997 365.458 94.2044 365.383 94.9484C365.319 95.6915 365.233 96.5262 365.212 96.8071C365.179 97.0791 365.221 97.692 365.298 98.162C365.411 98.8971 365.492 99.108 365.885 99.7454C366.644 100.953 367.503 101.574 368.816 101.86C370.109 102.138 371.517 101.778 372.574 100.895C373.191 100.395 373.433 100.032 373.817 99.0981C374.08 98.4348 374.145 98.0001 374.45 94.884Z" stroke="#555555" stroke-width="5.42" mask="url(#path-1-outside-1_748_36923)"/>
<mask id="path-2-outside-2_748_36923" maskUnits="userSpaceOnUse" x="350.221" y="56.2251" width="39.2961" height="39.7489" fill="black">
<rect fill="white" x="350.221" y="56.2251" width="39.2961" height="39.7489"/>
<path d="M366.903 61.0998C367.526 61.651 367.538 62.2756 366.945 63.4739C366.716 63.9355 366.536 64.3216 366.545 64.326C366.638 64.3832 369.94 66.359 370.793 66.8694C371.379 67.2259 372.663 67.9827 373.658 68.5634C375.515 69.659 376.884 70.4686 378.568 71.4896C379.105 71.8108 380.203 72.4532 381.011 72.9195C382.686 73.8918 383.042 74.2448 383.068 74.9312C383.082 75.3033 382.933 75.6272 380.202 81.1485L377.321 86.9715L376.967 87.1723C376.317 87.5469 376.1 87.4947 372.775 86.148C371.119 85.4724 368.975 84.5994 368.016 84.2134C367.044 83.8319 365.663 83.2704 364.927 82.9721C364.19 82.6738 362.827 82.1211 361.881 81.7528C360.94 81.3756 359.822 80.9326 359.387 80.7616L358.601 80.4502L358.073 81.4047C357.458 82.5145 357.167 82.746 356.444 82.6869C355.646 82.6236 355.161 82.1959 355.012 81.4257L354.916 80.9698L359.818 71.0635L364.719 61.1572L365.09 60.921C365.673 60.5687 366.378 60.6412 366.903 61.0998Z"/>
</mask>
<path d="M366.903 61.0998C367.526 61.651 367.538 62.2756 366.945 63.4739C366.716 63.9355 366.536 64.3216 366.545 64.326C366.638 64.3832 369.94 66.359 370.793 66.8694C371.379 67.2259 372.663 67.9827 373.658 68.5634C375.515 69.659 376.884 70.4686 378.568 71.4896C379.105 71.8108 380.203 72.4532 381.011 72.9195C382.686 73.8918 383.042 74.2448 383.068 74.9312C383.082 75.3033 382.933 75.6272 380.202 81.1485L377.321 86.9715L376.967 87.1723C376.317 87.5469 376.1 87.4947 372.775 86.148C371.119 85.4724 368.975 84.5994 368.016 84.2134C367.044 83.8319 365.663 83.2704 364.927 82.9721C364.19 82.6738 362.827 82.1211 361.881 81.7528C360.94 81.3756 359.822 80.9326 359.387 80.7616L358.601 80.4502L358.073 81.4047C357.458 82.5145 357.167 82.746 356.444 82.6869C355.646 82.6236 355.161 82.1959 355.012 81.4257L354.916 80.9698L359.818 71.0635L364.719 61.1572L365.09 60.921C365.673 60.5687 366.378 60.6412 366.903 61.0998Z" fill="#B5D8F4"/>
<path d="M366.903 61.0998C367.526 61.651 367.538 62.2756 366.945 63.4739C366.716 63.9355 366.536 64.3216 366.545 64.326C366.638 64.3832 369.94 66.359 370.793 66.8694C371.379 67.2259 372.663 67.9827 373.658 68.5634C375.515 69.659 376.884 70.4686 378.568 71.4896C379.105 71.8108 380.203 72.4532 381.011 72.9195C382.686 73.8918 383.042 74.2448 383.068 74.9312C383.082 75.3033 382.933 75.6272 380.202 81.1485L377.321 86.9715L376.967 87.1723C376.317 87.5469 376.1 87.4947 372.775 86.148C371.119 85.4724 368.975 84.5994 368.016 84.2134C367.044 83.8319 365.663 83.2704 364.927 82.9721C364.19 82.6738 362.827 82.1211 361.881 81.7528C360.94 81.3756 359.822 80.9326 359.387 80.7616L358.601 80.4502L358.073 81.4047C357.458 82.5145 357.167 82.746 356.444 82.6869C355.646 82.6236 355.161 82.1959 355.012 81.4257L354.916 80.9698L359.818 71.0635L364.719 61.1572L365.09 60.921C365.673 60.5687 366.378 60.6412 366.903 61.0998Z" stroke="#555555" stroke-width="5.42" mask="url(#path-2-outside-2_748_36923)"/>
<mask id="path-3-outside-3_748_36923" maskUnits="userSpaceOnUse" x="374.75" y="73.6443" width="16.9544" height="19.2187" fill="black">
<rect fill="white" x="374.75" y="73.6443" width="16.9544" height="19.2187"/>
<path d="M384.733 78.5172C385.485 79.2318 386.031 80.3415 386.146 81.4041C386.211 82.0329 386 83.2873 385.727 83.8376C385.49 84.317 384.877 85.0193 384.325 85.4423C383.177 86.3328 381.534 86.5696 380.056 86.0705L379.608 85.9261L381.628 81.8429L383.649 77.7596L383.973 77.9311C384.159 78.0234 384.502 78.2922 384.733 78.5172Z"/>
</mask>
<path d="M384.733 78.5172C385.485 79.2318 386.031 80.3415 386.146 81.4041C386.211 82.0329 386 83.2873 385.727 83.8376C385.49 84.317 384.877 85.0193 384.325 85.4423C383.177 86.3328 381.534 86.5696 380.056 86.0705L379.608 85.9261L381.628 81.8429L383.649 77.7596L383.973 77.9311C384.159 78.0234 384.502 78.2922 384.733 78.5172Z" fill="#B5D8F4"/>
<path d="M384.733 78.5172C385.485 79.2318 386.031 80.3415 386.146 81.4041C386.211 82.0329 386 83.2873 385.727 83.8376C385.49 84.317 384.877 85.0193 384.325 85.4423C383.177 86.3328 381.534 86.5696 380.056 86.0705L379.608 85.9261L381.628 81.8429L383.649 77.7596L383.973 77.9311C384.159 78.0234 384.502 78.2922 384.733 78.5172Z" stroke="#555555" stroke-width="5.42" mask="url(#path-3-outside-3_748_36923)"/>
<mask id="path-4-outside-4_748_36923" maskUnits="userSpaceOnUse" x="359.007" y="66.6699" width="21.4457" height="20.0873" fill="black">
<rect fill="white" x="359.007" y="66.6699" width="21.4457" height="20.0873"/>
<path d="M366.293 80.0088C366.458 80.0902 366.656 80.0471 366.772 79.905L369.699 76.3209C369.965 75.9943 370.489 76.259 370.385 76.6674L369.244 81.121C369.198 81.301 369.284 81.4888 369.451 81.5713L370.946 82.3111C371.102 82.3884 371.291 82.3537 371.409 82.2258L377.238 75.9334C377.39 75.7684 377.374 75.5092 377.202 75.3646L375.978 74.3368C375.805 74.1914 375.546 74.2214 375.41 74.4023L372.698 78.0252C372.438 78.3726 371.89 78.1051 372.004 77.6862L373.164 73.4128C373.214 73.2313 373.128 73.0404 372.959 72.957L372.034 72.4994L371.104 72.0391C370.938 71.957 370.737 72.0017 370.622 72.1465L367.836 75.642C367.565 75.9811 367.026 75.6976 367.151 75.2826L368.457 70.9715C368.524 70.7525 368.39 70.5233 368.167 70.4734L366.645 70.1329C366.427 70.084 366.211 70.2273 366.172 70.448L364.671 78.8896C364.64 79.0619 364.727 79.2337 364.883 79.3113L366.293 80.0088Z"/>
</mask>
<path d="M366.293 80.0088C366.458 80.0902 366.656 80.0471 366.772 79.905L369.699 76.3209C369.965 75.9943 370.489 76.259 370.385 76.6674L369.244 81.121C369.198 81.301 369.284 81.4888 369.451 81.5713L370.946 82.3111C371.102 82.3884 371.291 82.3537 371.409 82.2258L377.238 75.9334C377.39 75.7684 377.374 75.5092 377.202 75.3646L375.978 74.3368C375.805 74.1914 375.546 74.2214 375.41 74.4023L372.698 78.0252C372.438 78.3726 371.89 78.1051 372.004 77.6862L373.164 73.4128C373.214 73.2313 373.128 73.0404 372.959 72.957L372.034 72.4994L371.104 72.0391C370.938 71.957 370.737 72.0017 370.622 72.1465L367.836 75.642C367.565 75.9811 367.026 75.6976 367.151 75.2826L368.457 70.9715C368.524 70.7525 368.39 70.5233 368.167 70.4734L366.645 70.1329C366.427 70.084 366.211 70.2273 366.172 70.448L364.671 78.8896C364.64 79.0619 364.727 79.2337 364.883 79.3113L366.293 80.0088Z" fill="#FFC71E"/>
<path d="M366.293 80.0088C366.458 80.0902 366.656 80.0471 366.772 79.905L369.699 76.3209C369.965 75.9943 370.489 76.259 370.385 76.6674L369.244 81.121C369.198 81.301 369.284 81.4888 369.451 81.5713L370.946 82.3111C371.102 82.3884 371.291 82.3537 371.409 82.2258L377.238 75.9334C377.39 75.7684 377.374 75.5092 377.202 75.3646L375.978 74.3368C375.805 74.1914 375.546 74.2214 375.41 74.4023L372.698 78.0252C372.438 78.3726 371.89 78.1051 372.004 77.6862L373.164 73.4128C373.214 73.2313 373.128 73.0404 372.959 72.957L372.034 72.4994L371.104 72.0391C370.938 71.957 370.737 72.0017 370.622 72.1465L367.836 75.642C367.565 75.9811 367.026 75.6976 367.151 75.2826L368.457 70.9715C368.524 70.7525 368.39 70.5233 368.167 70.4734L366.645 70.1329C366.427 70.084 366.211 70.2273 366.172 70.448L364.671 78.8896C364.64 79.0619 364.727 79.2337 364.883 79.3113L366.293 80.0088Z" stroke="#555555" stroke-width="3.39653" mask="url(#path-4-outside-4_748_36923)"/>
<path d="M342.095 61.0427C342.197 60.9514 342.393 60.825 342.534 60.7726C343.14 60.5217 342.95 60.4511 348.491 63.1036L353.645 65.571L353.835 65.9025C354.323 66.7671 353.777 67.8674 352.813 67.9766C352.486 68.0104 352.325 67.943 347.266 65.521C341.362 62.6946 341.714 62.9129 341.713 62.0417C341.719 61.5638 341.824 61.3038 342.095 61.0427Z" fill="#555555"/>
<path d="M338.785 70.4413C338.846 70.3187 338.982 70.129 339.094 70.0281C339.564 69.5717 339.362 69.5758 345.49 69.999L351.191 70.3926L351.49 70.6305C352.263 71.2542 352.161 72.4784 351.305 72.9353C351.014 73.0872 350.838 73.0841 345.243 72.6978C338.713 72.2469 339.12 72.3203 338.799 71.5105C338.628 71.0641 338.63 70.7836 338.785 70.4413Z" fill="#555555"/>
<path d="M129.843 106.363L131.533 94.1436H125.078V90.4031H132.06L132.947 84.1689H124.939V80.4561H137.297V84.1689L134.11 106.363H129.843ZM147.798 106.529H143.891V94.2821H138.433V90.3754H143.891V80.3176H147.798V106.529ZM153.449 80.4561H173.454V92.7582H153.449V80.4561ZM151.537 95.9169H175.366V99.6297H170.101V106.529H166.222V99.6297H160.681V106.529H156.802V99.6297H151.537V95.9169ZM169.464 89.3779V83.8364H157.577V89.3779H169.464ZM183.4 80.4284V102.65H194.926V106.418H179.105V80.4284H183.4ZM200.994 80.3176V106.529H196.921V80.3176H200.994ZM205.426 106.39V80.4561H217.811V84.1966H209.554V91.262H217.229V94.9471H209.554V102.705H218.31V106.39H205.426ZM227.592 80.3176V106.529H223.713V80.3176H227.592ZM240.207 91.6499H247.272V86.6626H251.317V91.6499H256.776L257.967 84.1689H241.897V80.4561H262.123V84.1689L260.932 91.6499H264.035V94.6978H240.207V91.6499ZM246.302 96.6096H257.939C260.682 96.6096 262.871 98.6322 262.871 101.569C262.871 104.506 260.682 106.529 257.939 106.529H246.302C243.587 106.529 241.37 104.506 241.37 101.569C241.37 98.6322 243.587 96.6096 246.302 96.6096ZM257.939 100.101H246.302C245.637 100.101 245.111 100.71 245.111 101.569C245.111 102.428 245.637 103.038 246.302 103.038H257.939C258.604 103.038 259.131 102.428 259.131 101.569C259.131 100.71 258.604 100.101 257.939 100.101ZM281.794 84.2243L277.971 92.4812L283.235 106.418H278.83L275.588 97.607L271.487 106.418H267.054L277.195 84.2243H267.497V80.4561H281.794V84.2243ZM289.691 80.3176V106.529H285.867V80.3176H289.691ZM309.168 106.39H305.095L301.327 89.3502L297.559 106.39H293.514L299.471 80.4561H303.183L309.168 106.39ZM315.513 80.3176V88.6298H318.339V92.398H315.513V106.529H311.69V80.3176H315.513ZM326.457 96.8312H337.761C340.477 96.8312 342.693 98.937 342.693 101.68C342.693 104.395 340.477 106.529 337.761 106.529H326.457C323.741 106.529 321.525 104.395 321.525 101.68C321.525 98.937 323.741 96.8312 326.457 96.8312ZM329.56 79.3755V81.2873H334.63V84.5845H330.031C332.081 85.3326 333.55 86.9397 333.55 88.7684V90.7356C333.55 93.2847 330.724 95.335 327.454 95.335C324.185 95.335 321.525 93.2847 321.525 90.7356V88.8515C321.525 86.9674 323.021 85.3326 324.96 84.5845H320.555V81.2873H325.681V79.3755H329.56ZM342.111 95.3073H337.955V80.3176H342.111V85.6097H344.938V89.3779H342.111V95.3073ZM337.761 100.461H326.457C325.792 100.461 325.265 101.015 325.265 101.68C325.265 102.345 325.792 102.871 326.457 102.871H337.761C338.399 102.871 338.953 102.345 338.953 101.68C338.953 101.015 338.399 100.461 337.761 100.461ZM330.114 90.0429V89.461C330.114 88.2696 328.978 87.2999 327.565 87.2999C326.152 87.2999 325.016 88.2696 325.016 89.461V90.0429C325.016 91.2066 326.152 92.1764 327.565 92.1764C328.978 92.1764 330.114 91.2066 330.114 90.0429Z" fill="#3D3D3D"/>
<mask id="path-8-outside-5_748_36923" maskUnits="userSpaceOnUse" x="184.148" y="38.1619" width="26" height="26" fill="black">
<rect fill="white" x="184.148" y="38.1619" width="26" height="26"/>
<path fill-rule="evenodd" clip-rule="evenodd" d="M190.636 41.1639C191.101 41.1311 191.497 41.4996 191.497 41.966V59.979C191.497 60.4231 191.136 60.783 190.693 60.783H187.952C187.508 60.783 187.148 60.4231 187.148 59.979V51.0965V42.1592C187.148 41.7371 187.474 41.3868 187.896 41.3571L190.636 41.1639ZM200.368 46.8455C201.743 46.8455 202.905 47.1613 203.852 47.7932C204.8 48.4251 205.506 49.2706 205.971 50.3299C206.454 51.3891 206.696 52.5785 206.696 53.8979V54.4039C206.696 54.848 206.335 55.208 205.892 55.208H199.065C198.539 55.208 198.147 55.7168 198.426 56.1626C199.016 57.1058 200.072 57.5774 201.594 57.5774C202.601 57.5774 203.602 57.3598 204.597 56.9246C205.04 56.7307 205.574 56.9151 205.755 57.3641L206.406 58.9777C206.543 59.3183 206.435 59.7132 206.118 59.8992C205.593 60.2076 204.986 60.4651 204.298 60.6715C203.388 60.9503 202.384 61.0897 201.288 61.0897C198.816 61.0897 196.865 60.4672 195.434 59.2221C194.022 57.9769 193.315 56.2486 193.315 54.0372C193.315 52.5878 193.613 51.3242 194.207 50.2462C194.802 49.1499 195.629 48.3137 196.688 47.7375C197.766 47.1429 198.993 46.8455 200.368 46.8455ZM200.256 50.4414C199.643 50.4414 199.123 50.6551 198.695 51.0825C198.476 51.3016 198.305 51.5607 198.182 51.8597C198 52.3021 198.388 52.7271 198.866 52.7271H201.597C202.092 52.7271 202.482 52.2741 202.28 51.8219C202.153 51.5388 201.989 51.2923 201.789 51.0825C201.418 50.6551 200.907 50.4414 200.256 50.4414Z"/>
</mask>
<path fill-rule="evenodd" clip-rule="evenodd" d="M190.636 41.1639C191.101 41.1311 191.497 41.4996 191.497 41.966V59.979C191.497 60.4231 191.136 60.783 190.693 60.783H187.952C187.508 60.783 187.148 60.4231 187.148 59.979V51.0965V42.1592C187.148 41.7371 187.474 41.3868 187.896 41.3571L190.636 41.1639ZM200.368 46.8455C201.743 46.8455 202.905 47.1613 203.852 47.7932C204.8 48.4251 205.506 49.2706 205.971 50.3299C206.454 51.3891 206.696 52.5785 206.696 53.8979V54.4039C206.696 54.848 206.335 55.208 205.892 55.208H199.065C198.539 55.208 198.147 55.7168 198.426 56.1626C199.016 57.1058 200.072 57.5774 201.594 57.5774C202.601 57.5774 203.602 57.3598 204.597 56.9246C205.04 56.7307 205.574 56.9151 205.755 57.3641L206.406 58.9777C206.543 59.3183 206.435 59.7132 206.118 59.8992C205.593 60.2076 204.986 60.4651 204.298 60.6715C203.388 60.9503 202.384 61.0897 201.288 61.0897C198.816 61.0897 196.865 60.4672 195.434 59.2221C194.022 57.9769 193.315 56.2486 193.315 54.0372C193.315 52.5878 193.613 51.3242 194.207 50.2462C194.802 49.1499 195.629 48.3137 196.688 47.7375C197.766 47.1429 198.993 46.8455 200.368 46.8455ZM200.256 50.4414C199.643 50.4414 199.123 50.6551 198.695 51.0825C198.476 51.3016 198.305 51.5607 198.182 51.8597C198 52.3021 198.388 52.7271 198.866 52.7271H201.597C202.092 52.7271 202.482 52.2741 202.28 51.8219C202.153 51.5388 201.989 51.2923 201.789 51.0825C201.418 50.6551 200.907 50.4414 200.256 50.4414Z" fill="#FFB904"/>
<path fill-rule="evenodd" clip-rule="evenodd" d="M190.636 41.1639C191.101 41.1311 191.497 41.4996 191.497 41.966V59.979C191.497 60.4231 191.136 60.783 190.693 60.783H187.952C187.508 60.783 187.148 60.4231 187.148 59.979V51.0965V42.1592C187.148 41.7371 187.474 41.3868 187.896 41.3571L190.636 41.1639ZM200.368 46.8455C201.743 46.8455 202.905 47.1613 203.852 47.7932C204.8 48.4251 205.506 49.2706 205.971 50.3299C206.454 51.3891 206.696 52.5785 206.696 53.8979V54.4039C206.696 54.848 206.335 55.208 205.892 55.208H199.065C198.539 55.208 198.147 55.7168 198.426 56.1626C199.016 57.1058 200.072 57.5774 201.594 57.5774C202.601 57.5774 203.602 57.3598 204.597 56.9246C205.04 56.7307 205.574 56.9151 205.755 57.3641L206.406 58.9777C206.543 59.3183 206.435 59.7132 206.118 59.8992C205.593 60.2076 204.986 60.4651 204.298 60.6715C203.388 60.9503 202.384 61.0897 201.288 61.0897C198.816 61.0897 196.865 60.4672 195.434 59.2221C194.022 57.9769 193.315 56.2486 193.315 54.0372C193.315 52.5878 193.613 51.3242 194.207 50.2462C194.802 49.1499 195.629 48.3137 196.688 47.7375C197.766 47.1429 198.993 46.8455 200.368 46.8455ZM200.256 50.4414C199.643 50.4414 199.123 50.6551 198.695 51.0825C198.476 51.3016 198.305 51.5607 198.182 51.8597C198 52.3021 198.388 52.7271 198.866 52.7271H201.597C202.092 52.7271 202.482 52.2741 202.28 51.8219C202.153 51.5388 201.989 51.2923 201.789 51.0825C201.418 50.6551 200.907 50.4414 200.256 50.4414Z" stroke="#555555" stroke-width="5.41005" mask="url(#path-8-outside-5_748_36923)"/>
<ellipse cx="200.94" cy="51.4101" rx="2.7953" ry="2.30898" fill="#555555"/>
<ellipse cx="155.412" cy="56.3581" rx="3.11897" ry="2.30898" fill="#555555"/>
<mask id="path-11-outside-6_748_36923" maskUnits="userSpaceOnUse" x="146.936" y="38.1868" width="41" height="32" fill="black">
<rect fill="white" x="146.936" y="38.1868" width="41" height="32"/>
<path d="M155.316 50.5807C154.777 50.5807 154.163 50.6643 153.476 50.8316C153.125 50.917 152.795 51.012 152.488 51.1168C152.038 51.2701 151.528 51.056 151.371 50.6074L150.719 48.7444C150.589 48.3726 150.746 47.9584 151.111 47.81C151.637 47.5959 152.277 47.4045 153.03 47.2356C154.108 46.9756 155.074 46.8454 155.929 46.8454C157.062 46.8454 158.066 47.0684 158.939 47.5144C159.813 47.9604 160.482 48.5924 160.946 49.4099C161.43 50.2091 161.671 51.129 161.671 52.1695V59.9789C161.671 60.423 161.311 60.783 160.867 60.783H159.656C159.399 60.783 159.157 60.6596 159.005 60.4511L158.808 60.1794C158.505 59.7608 157.893 59.7393 157.497 60.0722C156.691 60.7504 155.824 61.0896 154.898 61.0896C153.262 61.0896 152.026 60.6901 151.19 59.891C150.354 59.0734 149.936 57.9676 149.936 56.5739C149.936 55.1988 150.4 54.1673 151.33 53.4797C152.259 52.792 153.532 52.4483 155.148 52.4483H156.411C156.875 52.4483 157.268 52.0408 157.074 51.6191C156.978 51.4095 156.847 51.2306 156.682 51.0824C156.347 50.748 155.892 50.5807 155.316 50.5807ZM155.176 55.0686C154.712 55.0686 154.331 55.2079 154.033 55.4867C153.755 55.7655 153.615 56.1186 153.615 56.546C153.615 56.8805 153.736 57.1684 153.978 57.4101C154.219 57.6517 154.535 57.7725 154.925 57.7725C155.649 57.7725 156.35 57.4962 157.03 56.9436C157.204 56.8024 157.295 56.586 157.295 56.3621V55.8727C157.295 55.4286 156.935 55.0686 156.491 55.0686H155.176ZM164.929 51.775C164.929 51.331 164.569 50.9709 164.124 50.9709H163.558C163.114 50.9709 162.754 50.611 162.754 50.1669V48.3743C162.754 47.9302 163.114 47.5702 163.558 47.5702H164.124C164.569 47.5702 164.929 47.2102 164.929 46.7661V46.4273C164.929 44.7919 165.468 43.5096 166.545 42.5805C167.642 41.6514 169.036 41.1868 170.727 41.1868C171.266 41.1868 171.851 41.2983 172.483 41.5213C172.866 41.6416 173.194 41.7749 173.468 41.9212C173.778 42.0869 173.869 42.4673 173.735 42.7923L173.04 44.4751C172.86 44.9105 172.347 45.0876 171.893 44.9635C171.588 44.8801 171.283 44.8384 170.977 44.8384C170.439 44.8384 170.02 45.0335 169.723 45.4238C169.426 45.7954 169.277 46.3065 169.277 46.9569C169.277 47.2956 169.552 47.5702 169.89 47.5702H171.792C172.164 47.5702 172.488 47.8259 172.574 48.1883L173 49.9809C173.12 50.4861 172.737 50.9709 172.218 50.9709H170.081C169.637 50.9709 169.277 51.331 169.277 51.775V66.3902C169.277 66.8343 168.917 67.1942 168.473 67.1942H165.733C165.289 67.1942 164.929 66.8343 164.929 66.3902V51.775ZM175.886 51.775C175.886 51.331 175.526 50.9709 175.082 50.9709H174.516C174.072 50.9709 173.712 50.611 173.712 50.1669V48.3743C173.712 47.9302 174.072 47.5702 174.516 47.5702H175.082C175.526 47.5702 175.886 47.2102 175.886 46.7661V46.4273C175.886 44.7919 176.425 43.5096 177.503 42.5805C178.599 41.6514 179.993 41.1868 181.684 41.1868C182.223 41.1868 182.809 41.2983 183.44 41.5213C183.823 41.6416 184.151 41.775 184.425 41.9212C184.735 42.0869 184.826 42.4673 184.692 42.7923L183.997 44.4752C183.818 44.9105 183.305 45.0877 182.85 44.9635C182.545 44.8801 182.24 44.8384 181.935 44.8384C181.396 44.8384 180.978 45.0335 180.681 45.4238C180.383 45.7954 180.235 46.3065 180.235 46.9569C180.235 47.2956 180.509 47.5702 180.848 47.5702H182.749C183.121 47.5702 183.445 47.8259 183.531 48.1883L183.958 49.9809C184.077 50.4861 183.695 50.9709 183.175 50.9709H181.039C180.595 50.9709 180.235 51.331 180.235 51.775V66.3902C180.235 66.8343 179.875 67.1942 179.431 67.1942H176.69C176.246 67.1942 175.886 66.8343 175.886 66.3902V51.775Z"/>
</mask>
<path d="M155.316 50.5807C154.777 50.5807 154.163 50.6643 153.476 50.8316C153.125 50.917 152.795 51.012 152.488 51.1168C152.038 51.2701 151.528 51.056 151.371 50.6074L150.719 48.7444C150.589 48.3726 150.746 47.9584 151.111 47.81C151.637 47.5959 152.277 47.4045 153.03 47.2356C154.108 46.9756 155.074 46.8454 155.929 46.8454C157.062 46.8454 158.066 47.0684 158.939 47.5144C159.813 47.9604 160.482 48.5924 160.946 49.4099C161.43 50.2091 161.671 51.129 161.671 52.1695V59.9789C161.671 60.423 161.311 60.783 160.867 60.783H159.656C159.399 60.783 159.157 60.6596 159.005 60.4511L158.808 60.1794C158.505 59.7608 157.893 59.7393 157.497 60.0722C156.691 60.7504 155.824 61.0896 154.898 61.0896C153.262 61.0896 152.026 60.6901 151.19 59.891C150.354 59.0734 149.936 57.9676 149.936 56.5739C149.936 55.1988 150.4 54.1673 151.33 53.4797C152.259 52.792 153.532 52.4483 155.148 52.4483H156.411C156.875 52.4483 157.268 52.0408 157.074 51.6191C156.978 51.4095 156.847 51.2306 156.682 51.0824C156.347 50.748 155.892 50.5807 155.316 50.5807ZM155.176 55.0686C154.712 55.0686 154.331 55.2079 154.033 55.4867C153.755 55.7655 153.615 56.1186 153.615 56.546C153.615 56.8805 153.736 57.1684 153.978 57.4101C154.219 57.6517 154.535 57.7725 154.925 57.7725C155.649 57.7725 156.35 57.4962 157.03 56.9436C157.204 56.8024 157.295 56.586 157.295 56.3621V55.8727C157.295 55.4286 156.935 55.0686 156.491 55.0686H155.176ZM164.929 51.775C164.929 51.331 164.569 50.9709 164.124 50.9709H163.558C163.114 50.9709 162.754 50.611 162.754 50.1669V48.3743C162.754 47.9302 163.114 47.5702 163.558 47.5702H164.124C164.569 47.5702 164.929 47.2102 164.929 46.7661V46.4273C164.929 44.7919 165.468 43.5096 166.545 42.5805C167.642 41.6514 169.036 41.1868 170.727 41.1868C171.266 41.1868 171.851 41.2983 172.483 41.5213C172.866 41.6416 173.194 41.7749 173.468 41.9212C173.778 42.0869 173.869 42.4673 173.735 42.7923L173.04 44.4751C172.86 44.9105 172.347 45.0876 171.893 44.9635C171.588 44.8801 171.283 44.8384 170.977 44.8384C170.439 44.8384 170.02 45.0335 169.723 45.4238C169.426 45.7954 169.277 46.3065 169.277 46.9569C169.277 47.2956 169.552 47.5702 169.89 47.5702H171.792C172.164 47.5702 172.488 47.8259 172.574 48.1883L173 49.9809C173.12 50.4861 172.737 50.9709 172.218 50.9709H170.081C169.637 50.9709 169.277 51.331 169.277 51.775V66.3902C169.277 66.8343 168.917 67.1942 168.473 67.1942H165.733C165.289 67.1942 164.929 66.8343 164.929 66.3902V51.775ZM175.886 51.775C175.886 51.331 175.526 50.9709 175.082 50.9709H174.516C174.072 50.9709 173.712 50.611 173.712 50.1669V48.3743C173.712 47.9302 174.072 47.5702 174.516 47.5702H175.082C175.526 47.5702 175.886 47.2102 175.886 46.7661V46.4273C175.886 44.7919 176.425 43.5096 177.503 42.5805C178.599 41.6514 179.993 41.1868 181.684 41.1868C182.223 41.1868 182.809 41.2983 183.44 41.5213C183.823 41.6416 184.151 41.775 184.425 41.9212C184.735 42.0869 184.826 42.4673 184.692 42.7923L183.997 44.4752C183.818 44.9105 183.305 45.0877 182.85 44.9635C182.545 44.8801 182.24 44.8384 181.935 44.8384C181.396 44.8384 180.978 45.0335 180.681 45.4238C180.383 45.7954 180.235 46.3065 180.235 46.9569C180.235 47.2956 180.509 47.5702 180.848 47.5702H182.749C183.121 47.5702 183.445 47.8259 183.531 48.1883L183.958 49.9809C184.077 50.4861 183.695 50.9709 183.175 50.9709H181.039C180.595 50.9709 180.235 51.331 180.235 51.775V66.3902C180.235 66.8343 179.875 67.1942 179.431 67.1942H176.69C176.246 67.1942 175.886 66.8343 175.886 66.3902V51.775Z" fill="#FFB904"/>
<path d="M155.316 50.5807C154.777 50.5807 154.163 50.6643 153.476 50.8316C153.125 50.917 152.795 51.012 152.488 51.1168C152.038 51.2701 151.528 51.056 151.371 50.6074L150.719 48.7444C150.589 48.3726 150.746 47.9584 151.111 47.81C151.637 47.5959 152.277 47.4045 153.03 47.2356C154.108 46.9756 155.074 46.8454 155.929 46.8454C157.062 46.8454 158.066 47.0684 158.939 47.5144C159.813 47.9604 160.482 48.5924 160.946 49.4099C161.43 50.2091 161.671 51.129 161.671 52.1695V59.9789C161.671 60.423 161.311 60.783 160.867 60.783H159.656C159.399 60.783 159.157 60.6596 159.005 60.4511L158.808 60.1794C158.505 59.7608 157.893 59.7393 157.497 60.0722C156.691 60.7504 155.824 61.0896 154.898 61.0896C153.262 61.0896 152.026 60.6901 151.19 59.891C150.354 59.0734 149.936 57.9676 149.936 56.5739C149.936 55.1988 150.4 54.1673 151.33 53.4797C152.259 52.792 153.532 52.4483 155.148 52.4483H156.411C156.875 52.4483 157.268 52.0408 157.074 51.6191C156.978 51.4095 156.847 51.2306 156.682 51.0824C156.347 50.748 155.892 50.5807 155.316 50.5807ZM155.176 55.0686C154.712 55.0686 154.331 55.2079 154.033 55.4867C153.755 55.7655 153.615 56.1186 153.615 56.546C153.615 56.8805 153.736 57.1684 153.978 57.4101C154.219 57.6517 154.535 57.7725 154.925 57.7725C155.649 57.7725 156.35 57.4962 157.03 56.9436C157.204 56.8024 157.295 56.586 157.295 56.3621V55.8727C157.295 55.4286 156.935 55.0686 156.491 55.0686H155.176ZM164.929 51.775C164.929 51.331 164.569 50.9709 164.124 50.9709H163.558C163.114 50.9709 162.754 50.611 162.754 50.1669V48.3743C162.754 47.9302 163.114 47.5702 163.558 47.5702H164.124C164.569 47.5702 164.929 47.2102 164.929 46.7661V46.4273C164.929 44.7919 165.468 43.5096 166.545 42.5805C167.642 41.6514 169.036 41.1868 170.727 41.1868C171.266 41.1868 171.851 41.2983 172.483 41.5213C172.866 41.6416 173.194 41.7749 173.468 41.9212C173.778 42.0869 173.869 42.4673 173.735 42.7923L173.04 44.4751C172.86 44.9105 172.347 45.0876 171.893 44.9635C171.588 44.8801 171.283 44.8384 170.977 44.8384C170.439 44.8384 170.02 45.0335 169.723 45.4238C169.426 45.7954 169.277 46.3065 169.277 46.9569C169.277 47.2956 169.552 47.5702 169.89 47.5702H171.792C172.164 47.5702 172.488 47.8259 172.574 48.1883L173 49.9809C173.12 50.4861 172.737 50.9709 172.218 50.9709H170.081C169.637 50.9709 169.277 51.331 169.277 51.775V66.3902C169.277 66.8343 168.917 67.1942 168.473 67.1942H165.733C165.289 67.1942 164.929 66.8343 164.929 66.3902V51.775ZM175.886 51.775C175.886 51.331 175.526 50.9709 175.082 50.9709H174.516C174.072 50.9709 173.712 50.611 173.712 50.1669V48.3743C173.712 47.9302 174.072 47.5702 174.516 47.5702H175.082C175.526 47.5702 175.886 47.2102 175.886 46.7661V46.4273C175.886 44.7919 176.425 43.5096 177.503 42.5805C178.599 41.6514 179.993 41.1868 181.684 41.1868C182.223 41.1868 182.809 41.2983 183.44 41.5213C183.823 41.6416 184.151 41.775 184.425 41.9212C184.735 42.0869 184.826 42.4673 184.692 42.7923L183.997 44.4752C183.818 44.9105 183.305 45.0877 182.85 44.9635C182.545 44.8801 182.24 44.8384 181.935 44.8384C181.396 44.8384 180.978 45.0335 180.681 45.4238C180.383 45.7954 180.235 46.3065 180.235 46.9569C180.235 47.2956 180.509 47.5702 180.848 47.5702H182.749C183.121 47.5702 183.445 47.8259 183.531 48.1883L183.958 49.9809C184.077 50.4861 183.695 50.9709 183.175 50.9709H181.039C180.595 50.9709 180.235 51.331 180.235 51.775V66.3902C180.235 66.8343 179.875 67.1942 179.431 67.1942H176.69C176.246 67.1942 175.886 66.8343 175.886 66.3902V51.775Z" stroke="#555555" stroke-width="5.41005" mask="url(#path-11-outside-6_748_36923)"/>
<path fill-rule="evenodd" clip-rule="evenodd" d="M190.636 41.1639C191.101 41.1311 191.497 41.4996 191.497 41.966V59.979C191.497 60.4231 191.136 60.783 190.693 60.783H187.952C187.508 60.783 187.148 60.4231 187.148 59.979V51.0965V42.1592C187.148 41.7371 187.474 41.3868 187.896 41.3571L190.636 41.1639ZM200.368 46.8455C201.743 46.8455 202.905 47.1613 203.852 47.7932C204.8 48.4251 205.506 49.2706 205.971 50.3299C206.454 51.3891 206.696 52.5785 206.696 53.8979V54.4039C206.696 54.848 206.335 55.208 205.892 55.208H199.065C198.539 55.208 198.147 55.7168 198.426 56.1626C199.016 57.1058 200.072 57.5774 201.594 57.5774C202.601 57.5774 203.602 57.3598 204.597 56.9246C205.04 56.7307 205.574 56.9151 205.755 57.3641L206.406 58.9777C206.543 59.3183 206.435 59.7132 206.118 59.8992C205.593 60.2076 204.986 60.4651 204.298 60.6715C203.388 60.9503 202.384 61.0897 201.288 61.0897C198.816 61.0897 196.865 60.4672 195.434 59.2221C194.022 57.9769 193.315 56.2486 193.315 54.0372C193.315 52.5878 193.613 51.3242 194.207 50.2462C194.802 49.1499 195.629 48.3137 196.688 47.7375C197.766 47.1429 198.993 46.8455 200.368 46.8455ZM200.256 50.4414C199.643 50.4414 199.123 50.6551 198.695 51.0825C198.476 51.3016 198.305 51.5607 198.182 51.8597C198 52.3021 198.388 52.7271 198.866 52.7271H201.597C202.092 52.7271 202.482 52.2741 202.28 51.8219C202.153 51.5388 201.989 51.2923 201.789 51.0825C201.418 50.6551 200.907 50.4414 200.256 50.4414Z" fill="#FFB904"/>
<mask id="path-13-outside-7_748_36923" maskUnits="userSpaceOnUse" x="120.554" y="39.0007" width="31" height="25" fill="black">
<rect fill="white" x="120.554" y="39.0007" width="31" height="25"/>
<path d="M136.159 48.757L133.722 60.261C133.644 60.6314 133.317 60.8964 132.938 60.8964H129.296C128.941 60.8964 128.628 60.6628 128.528 60.3222L123.587 43.6238C123.452 43.1648 123.746 42.6899 124.217 42.6069L126.898 42.1351C127.324 42.0602 127.733 42.3365 127.822 42.7595L129.935 52.8021C130.116 53.665 131.355 53.6448 131.508 52.7765L133.295 42.6629C133.363 42.2799 133.695 42.0007 134.084 42.0007L138.234 42.0008C138.623 42.0008 138.956 42.2799 139.023 42.6629L140.81 52.7766C140.964 53.6449 142.202 53.6651 142.384 52.8021L144.497 42.7596C144.586 42.3365 144.994 42.0603 145.42 42.1352L148.101 42.607C148.573 42.6899 148.867 43.1648 148.731 43.6238L143.791 60.3223C143.69 60.6628 143.377 60.8964 143.022 60.8964H139.381C139.002 60.8964 138.675 60.6314 138.596 60.261L136.159 48.757Z"/>
</mask>
<path d="M136.159 48.757L133.722 60.261C133.644 60.6314 133.317 60.8964 132.938 60.8964H129.296C128.941 60.8964 128.628 60.6628 128.528 60.3222L123.587 43.6238C123.452 43.1648 123.746 42.6899 124.217 42.6069L126.898 42.1351C127.324 42.0602 127.733 42.3365 127.822 42.7595L129.935 52.8021C130.116 53.665 131.355 53.6448 131.508 52.7765L133.295 42.6629C133.363 42.2799 133.695 42.0007 134.084 42.0007L138.234 42.0008C138.623 42.0008 138.956 42.2799 139.023 42.6629L140.81 52.7766C140.964 53.6449 142.202 53.6651 142.384 52.8021L144.497 42.7596C144.586 42.3365 144.994 42.0603 145.42 42.1352L148.101 42.607C148.573 42.6899 148.867 43.1648 148.731 43.6238L143.791 60.3223C143.69 60.6628 143.377 60.8964 143.022 60.8964H139.381C139.002 60.8964 138.675 60.6314 138.596 60.261L136.159 48.757Z" fill="#FFB904"/>
<path d="M136.159 48.757L133.722 60.261C133.644 60.6314 133.317 60.8964 132.938 60.8964H129.296C128.941 60.8964 128.628 60.6628 128.528 60.3222L123.587 43.6238C123.452 43.1648 123.746 42.6899 124.217 42.6069L126.898 42.1351C127.324 42.0602 127.733 42.3365 127.822 42.7595L129.935 52.8021C130.116 53.665 131.355 53.6448 131.508 52.7765L133.295 42.6629C133.363 42.2799 133.695 42.0007 134.084 42.0007L138.234 42.0008C138.623 42.0008 138.956 42.2799 139.023 42.6629L140.81 52.7766C140.964 53.6449 142.202 53.6651 142.384 52.8021L144.497 42.7596C144.586 42.3365 144.994 42.0603 145.42 42.1352L148.101 42.607C148.573 42.6899 148.867 43.1648 148.731 43.6238L143.791 60.3223C143.69 60.6628 143.377 60.8964 143.022 60.8964H139.381C139.002 60.8964 138.675 60.6314 138.596 60.261L136.159 48.757Z" stroke="#555555" stroke-width="5.41005" mask="url(#path-13-outside-7_748_36923)"/>
<circle cx="239.061" cy="56.8676" r="2.30898" fill="#555555"/>
<mask id="path-15-outside-8_748_36923" maskUnits="userSpaceOnUse" x="256.064" y="40.0598" width="33" height="32" fill="black">
<rect fill="white" x="256.064" y="40.0598" width="33" height="32"/>
<path d="M266.653 47.3397C266.209 47.3397 265.849 46.9796 265.849 46.5356V43.8641C265.849 43.3713 265.409 42.9944 264.922 43.0693L261.847 43.5424C261.455 43.6027 261.166 43.9403 261.166 44.3371V46.5356C261.166 46.9796 260.806 47.3397 260.362 47.3397H259.868C259.424 47.3397 259.064 47.6996 259.064 48.1437V50.1979C259.064 50.642 259.424 51.002 259.868 51.002H260.362C260.806 51.002 261.166 51.362 261.166 51.8061V56.4956C261.166 58.2566 261.756 59.6176 262.937 60.5782C264.117 61.5388 265.629 62.0191 267.47 62.0191C268.07 62.0191 268.72 61.9091 269.421 61.6889C269.84 61.5572 270.194 61.4149 270.484 61.2618C270.797 61.0969 270.89 60.7154 270.755 60.3889L269.965 58.4754C269.785 58.0401 269.273 57.8617 268.821 57.9935C268.47 58.0956 268.12 58.1466 267.77 58.1466C267.17 58.1466 266.699 57.9365 266.359 57.5162C266.019 57.0959 265.849 56.5455 265.849 55.8652V51.8061C265.849 51.362 266.209 51.002 266.653 51.002H268.922C269.439 51.002 269.821 50.5217 269.706 50.018L269.234 47.9639C269.15 47.5986 268.825 47.3397 268.45 47.3397H266.653Z"/>
<path d="M286.098 48.1079C286.306 47.5804 285.917 47.0094 285.35 47.0094H282.327C281.985 47.0094 281.682 47.2247 281.568 47.5465L279.522 53.357C279.269 54.0757 278.252 54.0721 278.003 53.3518L275.883 47.1931C275.743 46.7876 275.31 46.5631 274.898 46.6827L272.032 47.5153C271.58 47.6468 271.337 48.1379 271.507 48.5776L276.48 61.4288C276.516 61.5214 276.534 61.6197 276.534 61.719V67.6692C276.534 68.1133 276.894 68.4733 277.338 68.4733H280.023C280.466 68.4733 280.827 68.1133 280.827 67.6692V61.6613C280.827 61.5605 280.845 61.4607 280.882 61.3669L286.098 48.1079Z"/>
</mask>
<path d="M266.653 47.3397C266.209 47.3397 265.849 46.9796 265.849 46.5356V43.8641C265.849 43.3713 265.409 42.9944 264.922 43.0693L261.847 43.5424C261.455 43.6027 261.166 43.9403 261.166 44.3371V46.5356C261.166 46.9796 260.806 47.3397 260.362 47.3397H259.868C259.424 47.3397 259.064 47.6996 259.064 48.1437V50.1979C259.064 50.642 259.424 51.002 259.868 51.002H260.362C260.806 51.002 261.166 51.362 261.166 51.8061V56.4956C261.166 58.2566 261.756 59.6176 262.937 60.5782C264.117 61.5388 265.629 62.0191 267.47 62.0191C268.07 62.0191 268.72 61.9091 269.421 61.6889C269.84 61.5572 270.194 61.4149 270.484 61.2618C270.797 61.0969 270.89 60.7154 270.755 60.3889L269.965 58.4754C269.785 58.0401 269.273 57.8617 268.821 57.9935C268.47 58.0956 268.12 58.1466 267.77 58.1466C267.17 58.1466 266.699 57.9365 266.359 57.5162C266.019 57.0959 265.849 56.5455 265.849 55.8652V51.8061C265.849 51.362 266.209 51.002 266.653 51.002H268.922C269.439 51.002 269.821 50.5217 269.706 50.018L269.234 47.9639C269.15 47.5986 268.825 47.3397 268.45 47.3397H266.653Z" fill="#FFB904"/>
<path d="M286.098 48.1079C286.306 47.5804 285.917 47.0094 285.35 47.0094H282.327C281.985 47.0094 281.682 47.2247 281.568 47.5465L279.522 53.357C279.269 54.0757 278.252 54.0721 278.003 53.3518L275.883 47.1931C275.743 46.7876 275.31 46.5631 274.898 46.6827L272.032 47.5153C271.58 47.6468 271.337 48.1379 271.507 48.5776L276.48 61.4288C276.516 61.5214 276.534 61.6197 276.534 61.719V67.6692C276.534 68.1133 276.894 68.4733 277.338 68.4733H280.023C280.466 68.4733 280.827 68.1133 280.827 67.6692V61.6613C280.827 61.5605 280.845 61.4607 280.882 61.3669L286.098 48.1079Z" fill="#FFB904"/>
<path d="M266.653 47.3397C266.209 47.3397 265.849 46.9796 265.849 46.5356V43.8641C265.849 43.3713 265.409 42.9944 264.922 43.0693L261.847 43.5424C261.455 43.6027 261.166 43.9403 261.166 44.3371V46.5356C261.166 46.9796 260.806 47.3397 260.362 47.3397H259.868C259.424 47.3397 259.064 47.6996 259.064 48.1437V50.1979C259.064 50.642 259.424 51.002 259.868 51.002H260.362C260.806 51.002 261.166 51.362 261.166 51.8061V56.4956C261.166 58.2566 261.756 59.6176 262.937 60.5782C264.117 61.5388 265.629 62.0191 267.47 62.0191C268.07 62.0191 268.72 61.9091 269.421 61.6889C269.84 61.5572 270.194 61.4149 270.484 61.2618C270.797 61.0969 270.89 60.7154 270.755 60.3889L269.965 58.4754C269.785 58.0401 269.273 57.8617 268.821 57.9935C268.47 58.0956 268.12 58.1466 267.77 58.1466C267.17 58.1466 266.699 57.9365 266.359 57.5162C266.019 57.0959 265.849 56.5455 265.849 55.8652V51.8061C265.849 51.362 266.209 51.002 266.653 51.002H268.922C269.439 51.002 269.821 50.5217 269.706 50.018L269.234 47.9639C269.15 47.5986 268.825 47.3397 268.45 47.3397H266.653Z" stroke="#555555" stroke-width="5.41005" mask="url(#path-15-outside-8_748_36923)"/>
<path d="M286.098 48.1079C286.306 47.5804 285.917 47.0094 285.35 47.0094H282.327C281.985 47.0094 281.682 47.2247 281.568 47.5465L279.522 53.357C279.269 54.0757 278.252 54.0721 278.003 53.3518L275.883 47.1931C275.743 46.7876 275.31 46.5631 274.898 46.6827L272.032 47.5153C271.58 47.6468 271.337 48.1379 271.507 48.5776L276.48 61.4288C276.516 61.5214 276.534 61.6197 276.534 61.719V67.6692C276.534 68.1133 276.894 68.4733 277.338 68.4733H280.023C280.466 68.4733 280.827 68.1133 280.827 67.6692V61.6613C280.827 61.5605 280.845 61.4607 280.882 61.3669L286.098 48.1079Z" stroke="#555555" stroke-width="5.41005" mask="url(#path-15-outside-8_748_36923)"/>
<mask id="path-16-outside-9_748_36923" maskUnits="userSpaceOnUse" x="212.975" y="38.1619" width="48" height="27" fill="black">
<rect fill="white" x="212.975" y="38.1619" width="48" height="27"/>
<path d="M221.462 55.0608C221.018 55.0608 220.658 55.4209 220.658 55.8649V60.7709C220.658 61.215 220.298 61.575 219.854 61.575H216.779C216.335 61.575 215.975 61.215 215.975 60.7709V41.966C215.975 41.5219 216.335 41.1619 216.779 41.1619H223.51C225.051 41.1619 226.442 41.422 227.683 41.9424C228.924 42.4426 229.904 43.2133 230.625 44.2539C231.365 45.2944 231.735 46.5853 231.735 48.1263C231.735 49.6473 231.345 50.9282 230.565 51.9688C229.784 53.0094 228.743 53.7899 227.442 54.3103C226.162 54.8106 224.761 55.0608 223.24 55.0608H221.462ZM226.842 48.2464C226.842 47.1657 226.532 46.3451 225.911 45.7849C225.311 45.2246 224.461 44.9443 223.36 44.9443H221.462C221.018 44.9443 220.658 45.3043 220.658 45.7484V50.5043C220.658 50.9484 221.018 51.3084 221.462 51.3084H223.42C224.421 51.3084 225.231 51.0382 225.851 50.4979C226.492 49.9376 226.822 49.1871 226.842 48.2464ZM238.726 50.5879C238.146 50.5879 237.485 50.678 236.745 50.8581C236.342 50.9561 235.966 51.066 235.616 51.1877C235.168 51.3439 234.658 51.1298 234.501 50.6814L233.759 48.5608C233.628 48.1891 233.786 47.7748 234.15 47.624C234.726 47.3854 235.431 47.1726 236.265 46.9856C237.425 46.7054 238.466 46.5654 239.387 46.5654C240.607 46.5654 241.688 46.8055 242.629 47.2858C243.57 47.7661 244.29 48.4465 244.79 49.3271C245.311 50.1876 245.571 51.1783 245.571 52.2991V60.7709C245.571 61.215 245.211 61.575 244.767 61.575H243.369C243.112 61.575 242.87 61.4516 242.718 61.2431L242.442 60.8621C242.138 60.4435 241.527 60.4212 241.135 60.7591C240.25 61.5232 239.297 61.9052 238.276 61.9052C236.515 61.9052 235.184 61.4749 234.283 60.6144C233.383 59.7338 232.933 58.5431 232.933 57.0421C232.933 55.5611 233.433 54.4503 234.434 53.71C235.434 52.9695 236.805 52.5992 238.546 52.5992H239.972C240.436 52.5992 240.826 52.1945 240.647 51.7666C240.541 51.5147 240.391 51.302 240.197 51.1283C239.837 50.7681 239.347 50.5879 238.726 50.5879ZM238.576 55.421C238.076 55.421 237.666 55.5712 237.345 55.8714C237.045 56.1715 236.895 56.5517 236.895 57.0121C236.895 57.3723 237.025 57.6826 237.285 57.9427C237.545 58.2028 237.886 58.3329 238.306 58.3329C239.092 58.3329 239.855 58.0298 240.593 57.4233C240.766 57.2812 240.858 57.065 240.858 56.8411V56.2252C240.858 55.7811 240.498 55.421 240.054 55.421H238.576ZM257.297 49.7704C257.423 50.2776 257.036 50.7756 256.526 50.8909C256.088 50.9901 255.617 51.1493 255.113 51.3685C254.329 51.6994 253.613 52.1216 252.965 52.6346C252.782 52.7799 252.681 53.004 252.681 53.2382V60.7709C252.681 61.215 252.321 61.575 251.877 61.575H248.772C248.328 61.575 247.968 61.215 247.968 60.7709V47.8497C247.968 47.4057 248.328 47.0457 248.772 47.0457H249.929C250.203 47.0457 250.459 47.1858 250.607 47.4174L251.218 48.3756C251.472 48.7739 252.012 48.8666 252.408 48.6093C252.929 48.2709 253.501 47.9598 254.122 47.6761C254.791 47.356 255.413 47.1523 255.987 47.0649C256.352 47.0092 256.676 47.2675 256.765 47.6262L257.297 49.7704Z"/>
</mask>
<path d="M221.462 55.0608C221.018 55.0608 220.658 55.4209 220.658 55.8649V60.7709C220.658 61.215 220.298 61.575 219.854 61.575H216.779C216.335 61.575 215.975 61.215 215.975 60.7709V41.966C215.975 41.5219 216.335 41.1619 216.779 41.1619H223.51C225.051 41.1619 226.442 41.422 227.683 41.9424C228.924 42.4426 229.904 43.2133 230.625 44.2539C231.365 45.2944 231.735 46.5853 231.735 48.1263C231.735 49.6473 231.345 50.9282 230.565 51.9688C229.784 53.0094 228.743 53.7899 227.442 54.3103C226.162 54.8106 224.761 55.0608 223.24 55.0608H221.462ZM226.842 48.2464C226.842 47.1657 226.532 46.3451 225.911 45.7849C225.311 45.2246 224.461 44.9443 223.36 44.9443H221.462C221.018 44.9443 220.658 45.3043 220.658 45.7484V50.5043C220.658 50.9484 221.018 51.3084 221.462 51.3084H223.42C224.421 51.3084 225.231 51.0382 225.851 50.4979C226.492 49.9376 226.822 49.1871 226.842 48.2464ZM238.726 50.5879C238.146 50.5879 237.485 50.678 236.745 50.8581C236.342 50.9561 235.966 51.066 235.616 51.1877C235.168 51.3439 234.658 51.1298 234.501 50.6814L233.759 48.5608C233.628 48.1891 233.786 47.7748 234.15 47.624C234.726 47.3854 235.431 47.1726 236.265 46.9856C237.425 46.7054 238.466 46.5654 239.387 46.5654C240.607 46.5654 241.688 46.8055 242.629 47.2858C243.57 47.7661 244.29 48.4465 244.79 49.3271C245.311 50.1876 245.571 51.1783 245.571 52.2991V60.7709C245.571 61.215 245.211 61.575 244.767 61.575H243.369C243.112 61.575 242.87 61.4516 242.718 61.2431L242.442 60.8621C242.138 60.4435 241.527 60.4212 241.135 60.7591C240.25 61.5232 239.297 61.9052 238.276 61.9052C236.515 61.9052 235.184 61.4749 234.283 60.6144C233.383 59.7338 232.933 58.5431 232.933 57.0421C232.933 55.5611 233.433 54.4503 234.434 53.71C235.434 52.9695 236.805 52.5992 238.546 52.5992H239.972C240.436 52.5992 240.826 52.1945 240.647 51.7666C240.541 51.5147 240.391 51.302 240.197 51.1283C239.837 50.7681 239.347 50.5879 238.726 50.5879ZM238.576 55.421C238.076 55.421 237.666 55.5712 237.345 55.8714C237.045 56.1715 236.895 56.5517 236.895 57.0121C236.895 57.3723 237.025 57.6826 237.285 57.9427C237.545 58.2028 237.886 58.3329 238.306 58.3329C239.092 58.3329 239.855 58.0298 240.593 57.4233C240.766 57.2812 240.858 57.065 240.858 56.8411V56.2252C240.858 55.7811 240.498 55.421 240.054 55.421H238.576ZM257.297 49.7704C257.423 50.2776 257.036 50.7756 256.526 50.8909C256.088 50.9901 255.617 51.1493 255.113 51.3685C254.329 51.6994 253.613 52.1216 252.965 52.6346C252.782 52.7799 252.681 53.004 252.681 53.2382V60.7709C252.681 61.215 252.321 61.575 251.877 61.575H248.772C248.328 61.575 247.968 61.215 247.968 60.7709V47.8497C247.968 47.4057 248.328 47.0457 248.772 47.0457H249.929C250.203 47.0457 250.459 47.1858 250.607 47.4174L251.218 48.3756C251.472 48.7739 252.012 48.8666 252.408 48.6093C252.929 48.2709 253.501 47.9598 254.122 47.6761C254.791 47.356 255.413 47.1523 255.987 47.0649C256.352 47.0092 256.676 47.2675 256.765 47.6262L257.297 49.7704Z" fill="#FFB904"/>
<path d="M221.462 55.0608C221.018 55.0608 220.658 55.4209 220.658 55.8649V60.7709C220.658 61.215 220.298 61.575 219.854 61.575H216.779C216.335 61.575 215.975 61.215 215.975 60.7709V41.966C215.975 41.5219 216.335 41.1619 216.779 41.1619H223.51C225.051 41.1619 226.442 41.422 227.683 41.9424C228.924 42.4426 229.904 43.2133 230.625 44.2539C231.365 45.2944 231.735 46.5853 231.735 48.1263C231.735 49.6473 231.345 50.9282 230.565 51.9688C229.784 53.0094 228.743 53.7899 227.442 54.3103C226.162 54.8106 224.761 55.0608 223.24 55.0608H221.462ZM226.842 48.2464C226.842 47.1657 226.532 46.3451 225.911 45.7849C225.311 45.2246 224.461 44.9443 223.36 44.9443H221.462C221.018 44.9443 220.658 45.3043 220.658 45.7484V50.5043C220.658 50.9484 221.018 51.3084 221.462 51.3084H223.42C224.421 51.3084 225.231 51.0382 225.851 50.4979C226.492 49.9376 226.822 49.1871 226.842 48.2464ZM238.726 50.5879C238.146 50.5879 237.485 50.678 236.745 50.8581C236.342 50.9561 235.966 51.066 235.616 51.1877C235.168 51.3439 234.658 51.1298 234.501 50.6814L233.759 48.5608C233.628 48.1891 233.786 47.7748 234.15 47.624C234.726 47.3854 235.431 47.1726 236.265 46.9856C237.425 46.7054 238.466 46.5654 239.387 46.5654C240.607 46.5654 241.688 46.8055 242.629 47.2858C243.57 47.7661 244.29 48.4465 244.79 49.3271C245.311 50.1876 245.571 51.1783 245.571 52.2991V60.7709C245.571 61.215 245.211 61.575 244.767 61.575H243.369C243.112 61.575 242.87 61.4516 242.718 61.2431L242.442 60.8621C242.138 60.4435 241.527 60.4212 241.135 60.7591C240.25 61.5232 239.297 61.9052 238.276 61.9052C236.515 61.9052 235.184 61.4749 234.283 60.6144C233.383 59.7338 232.933 58.5431 232.933 57.0421C232.933 55.5611 233.433 54.4503 234.434 53.71C235.434 52.9695 236.805 52.5992 238.546 52.5992H239.972C240.436 52.5992 240.826 52.1945 240.647 51.7666C240.541 51.5147 240.391 51.302 240.197 51.1283C239.837 50.7681 239.347 50.5879 238.726 50.5879ZM238.576 55.421C238.076 55.421 237.666 55.5712 237.345 55.8714C237.045 56.1715 236.895 56.5517 236.895 57.0121C236.895 57.3723 237.025 57.6826 237.285 57.9427C237.545 58.2028 237.886 58.3329 238.306 58.3329C239.092 58.3329 239.855 58.0298 240.593 57.4233C240.766 57.2812 240.858 57.065 240.858 56.8411V56.2252C240.858 55.7811 240.498 55.421 240.054 55.421H238.576ZM257.297 49.7704C257.423 50.2776 257.036 50.7756 256.526 50.8909C256.088 50.9901 255.617 51.1493 255.113 51.3685C254.329 51.6994 253.613 52.1216 252.965 52.6346C252.782 52.7799 252.681 53.004 252.681 53.2382V60.7709C252.681 61.215 252.321 61.575 251.877 61.575H248.772C248.328 61.575 247.968 61.215 247.968 60.7709V47.8497C247.968 47.4057 248.328 47.0457 248.772 47.0457H249.929C250.203 47.0457 250.459 47.1858 250.607 47.4174L251.218 48.3756C251.472 48.7739 252.012 48.8666 252.408 48.6093C252.929 48.2709 253.501 47.9598 254.122 47.6761C254.791 47.356 255.413 47.1523 255.987 47.0649C256.352 47.0092 256.676 47.2675 256.765 47.6262L257.297 49.7704Z" stroke="#555555" stroke-width="5.41005" mask="url(#path-16-outside-9_748_36923)"/>
<circle cx="223.752" cy="48.0275" r="2.30898" fill="#555555"/>
<path d="M266.653 47.3397C266.209 47.3397 265.849 46.9796 265.849 46.5356V43.8641C265.849 43.3713 265.409 42.9944 264.922 43.0693L261.847 43.5424C261.455 43.6027 261.166 43.9403 261.166 44.3371V46.5356C261.166 46.9796 260.806 47.3397 260.362 47.3397H259.868C259.424 47.3397 259.064 47.6996 259.064 48.1437V50.1979C259.064 50.642 259.424 51.002 259.868 51.002H260.362C260.806 51.002 261.166 51.362 261.166 51.8061V56.4956C261.166 58.2566 261.756 59.6176 262.937 60.5782C264.117 61.5388 265.629 62.0191 267.47 62.0191C268.07 62.0191 268.72 61.9091 269.421 61.6889C269.84 61.5572 270.194 61.4149 270.484 61.2618C270.797 61.0969 270.89 60.7154 270.755 60.3889L269.965 58.4754C269.785 58.0401 269.273 57.8617 268.821 57.9935C268.47 58.0956 268.12 58.1466 267.77 58.1466C267.17 58.1466 266.699 57.9365 266.359 57.5162C266.019 57.0959 265.849 56.5455 265.849 55.8652V51.8061C265.849 51.362 266.209 51.002 266.653 51.002H268.922C269.439 51.002 269.821 50.5217 269.706 50.018L269.234 47.9639C269.15 47.5986 268.825 47.3397 268.45 47.3397H266.653Z" fill="#FFB904"/>
<path d="M286.098 48.1079C286.306 47.5804 285.917 47.0094 285.35 47.0094H282.327C281.985 47.0094 281.682 47.2247 281.568 47.5465L279.522 53.357C279.269 54.0757 278.252 54.0721 278.003 53.3518L275.883 47.1931C275.743 46.7876 275.31 46.5631 274.898 46.6827L272.032 47.5153C271.58 47.6468 271.337 48.1379 271.507 48.5776L276.48 61.4288C276.516 61.5214 276.534 61.6197 276.534 61.719V67.6692C276.534 68.1133 276.894 68.4733 277.338 68.4733H280.023C280.466 68.4733 280.827 68.1133 280.827 67.6692V61.6613C280.827 61.5605 280.845 61.4607 280.882 61.3669L286.098 48.1079Z" fill="#FFB904"/>
<path fill-rule="evenodd" clip-rule="evenodd" d="M92.9585 39.2113L113.469 34.031L114.132 36.6547L93.6212 41.835L92.9585 39.2113ZM101.943 42.4704L114.733 39.2401L115.396 41.8638L112.994 42.4704H114.951V45.1764H102.28L100.914 45.5213L100.252 42.8976L101.59 42.5596V42.4704H101.943Z" fill="#555555"/>
<mask id="path-20-outside-10_748_36923" maskUnits="userSpaceOnUse" x="90.2844" y="33.605" width="29" height="32" fill="black">
<rect fill="white" x="90.2844" y="33.605" width="29" height="32"/>
<path fill-rule="evenodd" clip-rule="evenodd" d="M111.124 37.4582C111.121 37.4125 111.797 37.2007 112.627 36.9877C114.043 36.6243 114.232 36.5741 114.258 36.6186C114.262 36.6269 114.262 36.6386 114.262 36.6521C114.263 36.6862 114.446 37.4203 114.669 38.2835C114.892 39.1466 115.058 39.8792 115.038 39.9115C115.018 39.9438 114.799 40.0155 114.552 40.0708L114.145 40.162C114.119 40.1679 114.091 40.1608 114.072 40.1432L113.134 39.3113C112.601 38.8382 111.932 38.2465 111.648 37.9963C111.363 37.7461 111.128 37.504 111.124 37.4582ZM104.337 39.1596C104.337 39.1221 105.072 38.9039 105.97 38.6747C106.868 38.4456 107.646 38.2643 107.697 38.2719C107.794 38.2861 110.726 40.8664 110.77 40.9753C110.783 41.0083 110.013 41.2302 109.058 41.4684L107.366 41.8908C107.339 41.8975 107.311 41.8905 107.29 41.8722L105.83 40.5646C105.009 39.8294 104.337 39.1971 104.337 39.1596ZM98.2379 40.658C98.6131 40.5615 99.3295 40.373 99.8298 40.2394C100.33 40.1057 100.795 39.9937 100.864 39.9904C100.972 39.9852 103.931 42.5507 103.985 42.697C103.997 42.728 103.29 42.9362 102.414 43.1597C102.165 43.2234 101.923 43.285 101.704 43.3411C101.153 43.4817 100.741 43.5869 100.688 43.6004C100.604 43.622 100.001 43.14 99.0551 42.2936C98.2304 41.5561 97.5557 40.9258 97.5557 40.8932C97.5557 40.8604 97.8628 40.7546 98.2379 40.658ZM93.4477 41.8896C93.5467 41.8519 93.7021 41.8024 93.7931 41.7795C93.884 41.7565 94.0162 41.7334 94.0867 41.7281C94.2469 41.7161 97.2473 44.3777 97.1627 44.4567C97.1287 44.4883 96.5427 44.6576 95.8605 44.8328L95.2152 44.9984C95.1216 45.0225 95.1378 45.16 95.2344 45.1616L95.9638 45.174C96.703 45.1865 97.3076 45.2181 97.3076 45.2442C97.3076 45.3036 95.2666 48.3231 95.0896 48.5256C94.9902 48.6394 94.8617 48.6685 94.5418 48.6497L94.2001 48.6298C94.157 48.6272 94.1231 48.5921 94.1221 48.5489L94.0792 46.7228L94.0348 44.8303C94.0346 44.8237 94.0337 44.8171 94.032 44.8108L93.6512 43.3891L93.2873 42.0302C93.2763 41.9892 93.2981 41.9464 93.3379 41.9313L93.4477 41.8896ZM98.5204 48.6046C98.4998 48.5706 98.9882 47.7888 99.6055 46.8676L100.703 45.2293C100.719 45.2064 100.745 45.1926 100.772 45.1926H102.491C103.596 45.1926 104.254 45.223 104.254 45.2742C104.254 45.3191 103.749 46.1008 103.132 47.0113L102.035 48.6303C102.02 48.653 101.994 48.6667 101.966 48.6667H100.284C99.3346 48.6667 98.541 48.6387 98.5204 48.6046ZM105.538 48.5882C105.512 48.5452 105.996 47.7635 106.614 46.8512L107.713 45.229C107.729 45.2062 107.755 45.1926 107.782 45.1926H109.511C110.485 45.1926 111.283 45.2144 111.283 45.2411C111.283 45.3195 109.113 48.5368 109.016 48.6034C108.882 48.6945 105.595 48.6802 105.538 48.5882ZM112.522 48.5651C112.522 48.5072 113.015 47.7254 113.618 46.8278L114.69 45.2323C114.706 45.2094 114.731 45.1957 114.759 45.1956L115.233 45.1942L115.668 45.1928C115.714 45.1927 115.752 45.2305 115.751 45.2768L115.73 46.9089L115.708 48.5446C115.708 48.5895 115.672 48.6258 115.627 48.6264L114.115 48.6478C112.871 48.6653 112.523 48.6472 112.522 48.5651ZM94.1024 55.8216C94.0907 52.4096 94.0989 49.5714 94.1206 49.5145C94.1518 49.4325 96.3951 49.4111 104.954 49.4111H115.666C115.712 49.4111 115.749 49.4482 115.749 49.494L115.749 55.7392L115.749 61.9842C115.749 62.03 115.711 62.0672 115.666 62.0671L104.936 62.0463L94.2063 62.0255C94.1607 62.0254 94.1237 61.9885 94.1236 61.9429C94.1234 61.8973 94.1024 55.8216 94.1024 55.8216ZM106.076 60.4479C106.12 60.6418 106.293 60.7793 106.492 60.7793H108.197C108.386 60.7793 108.553 60.6541 108.606 60.472L111.206 51.5472C111.274 51.3139 111.134 51.071 110.898 51.0134L109.256 50.6129C109.015 50.5541 108.775 50.7125 108.734 50.9571L107.93 55.7742C107.853 56.2379 107.192 56.2538 107.092 55.7943L106.066 51.0581C106.023 50.8619 105.849 50.7219 105.649 50.7219H104.523H103.405C103.201 50.7219 103.026 50.8661 102.986 51.0661L102.059 55.7767C101.968 56.2383 101.307 56.2346 101.221 55.7719L100.328 50.9478C100.284 50.7068 100.046 50.5529 99.8077 50.6109L98.1243 51.0213C97.8875 51.079 97.7471 51.3231 97.8163 51.5568L100.454 60.4737C100.508 60.6549 100.674 60.7793 100.863 60.7793H102.672C102.873 60.7793 103.047 60.6382 103.089 60.4411L104.122 55.5651C104.217 55.1179 104.853 55.1127 104.956 55.5582L106.076 60.4479Z"/>
</mask>
<path fill-rule="evenodd" clip-rule="evenodd" d="M111.124 37.4582C111.121 37.4125 111.797 37.2007 112.627 36.9877C114.043 36.6243 114.232 36.5741 114.258 36.6186C114.262 36.6269 114.262 36.6386 114.262 36.6521C114.263 36.6862 114.446 37.4203 114.669 38.2835C114.892 39.1466 115.058 39.8792 115.038 39.9115C115.018 39.9438 114.799 40.0155 114.552 40.0708L114.145 40.162C114.119 40.1679 114.091 40.1608 114.072 40.1432L113.134 39.3113C112.601 38.8382 111.932 38.2465 111.648 37.9963C111.363 37.7461 111.128 37.504 111.124 37.4582ZM104.337 39.1596C104.337 39.1221 105.072 38.9039 105.97 38.6747C106.868 38.4456 107.646 38.2643 107.697 38.2719C107.794 38.2861 110.726 40.8664 110.77 40.9753C110.783 41.0083 110.013 41.2302 109.058 41.4684L107.366 41.8908C107.339 41.8975 107.311 41.8905 107.29 41.8722L105.83 40.5646C105.009 39.8294 104.337 39.1971 104.337 39.1596ZM98.2379 40.658C98.6131 40.5615 99.3295 40.373 99.8298 40.2394C100.33 40.1057 100.795 39.9937 100.864 39.9904C100.972 39.9852 103.931 42.5507 103.985 42.697C103.997 42.728 103.29 42.9362 102.414 43.1597C102.165 43.2234 101.923 43.285 101.704 43.3411C101.153 43.4817 100.741 43.5869 100.688 43.6004C100.604 43.622 100.001 43.14 99.0551 42.2936C98.2304 41.5561 97.5557 40.9258 97.5557 40.8932C97.5557 40.8604 97.8628 40.7546 98.2379 40.658ZM93.4477 41.8896C93.5467 41.8519 93.7021 41.8024 93.7931 41.7795C93.884 41.7565 94.0162 41.7334 94.0867 41.7281C94.2469 41.7161 97.2473 44.3777 97.1627 44.4567C97.1287 44.4883 96.5427 44.6576 95.8605 44.8328L95.2152 44.9984C95.1216 45.0225 95.1378 45.16 95.2344 45.1616L95.9638 45.174C96.703 45.1865 97.3076 45.2181 97.3076 45.2442C97.3076 45.3036 95.2666 48.3231 95.0896 48.5256C94.9902 48.6394 94.8617 48.6685 94.5418 48.6497L94.2001 48.6298C94.157 48.6272 94.1231 48.5921 94.1221 48.5489L94.0792 46.7228L94.0348 44.8303C94.0346 44.8237 94.0337 44.8171 94.032 44.8108L93.6512 43.3891L93.2873 42.0302C93.2763 41.9892 93.2981 41.9464 93.3379 41.9313L93.4477 41.8896ZM98.5204 48.6046C98.4998 48.5706 98.9882 47.7888 99.6055 46.8676L100.703 45.2293C100.719 45.2064 100.745 45.1926 100.772 45.1926H102.491C103.596 45.1926 104.254 45.223 104.254 45.2742C104.254 45.3191 103.749 46.1008 103.132 47.0113L102.035 48.6303C102.02 48.653 101.994 48.6667 101.966 48.6667H100.284C99.3346 48.6667 98.541 48.6387 98.5204 48.6046ZM105.538 48.5882C105.512 48.5452 105.996 47.7635 106.614 46.8512L107.713 45.229C107.729 45.2062 107.755 45.1926 107.782 45.1926H109.511C110.485 45.1926 111.283 45.2144 111.283 45.2411C111.283 45.3195 109.113 48.5368 109.016 48.6034C108.882 48.6945 105.595 48.6802 105.538 48.5882ZM112.522 48.5651C112.522 48.5072 113.015 47.7254 113.618 46.8278L114.69 45.2323C114.706 45.2094 114.731 45.1957 114.759 45.1956L115.233 45.1942L115.668 45.1928C115.714 45.1927 115.752 45.2305 115.751 45.2768L115.73 46.9089L115.708 48.5446C115.708 48.5895 115.672 48.6258 115.627 48.6264L114.115 48.6478C112.871 48.6653 112.523 48.6472 112.522 48.5651ZM94.1024 55.8216C94.0907 52.4096 94.0989 49.5714 94.1206 49.5145C94.1518 49.4325 96.3951 49.4111 104.954 49.4111H115.666C115.712 49.4111 115.749 49.4482 115.749 49.494L115.749 55.7392L115.749 61.9842C115.749 62.03 115.711 62.0672 115.666 62.0671L104.936 62.0463L94.2063 62.0255C94.1607 62.0254 94.1237 61.9885 94.1236 61.9429C94.1234 61.8973 94.1024 55.8216 94.1024 55.8216ZM106.076 60.4479C106.12 60.6418 106.293 60.7793 106.492 60.7793H108.197C108.386 60.7793 108.553 60.6541 108.606 60.472L111.206 51.5472C111.274 51.3139 111.134 51.071 110.898 51.0134L109.256 50.6129C109.015 50.5541 108.775 50.7125 108.734 50.9571L107.93 55.7742C107.853 56.2379 107.192 56.2538 107.092 55.7943L106.066 51.0581C106.023 50.8619 105.849 50.7219 105.649 50.7219H104.523H103.405C103.201 50.7219 103.026 50.8661 102.986 51.0661L102.059 55.7767C101.968 56.2383 101.307 56.2346 101.221 55.7719L100.328 50.9478C100.284 50.7068 100.046 50.5529 99.8077 50.6109L98.1243 51.0213C97.8875 51.079 97.7471 51.3231 97.8163 51.5568L100.454 60.4737C100.508 60.6549 100.674 60.7793 100.863 60.7793H102.672C102.873 60.7793 103.047 60.6382 103.089 60.4411L104.122 55.5651C104.217 55.1179 104.853 55.1127 104.956 55.5582L106.076 60.4479Z" fill="#FFB904"/>
<path fill-rule="evenodd" clip-rule="evenodd" d="M111.124 37.4582C111.121 37.4125 111.797 37.2007 112.627 36.9877C114.043 36.6243 114.232 36.5741 114.258 36.6186C114.262 36.6269 114.262 36.6386 114.262 36.6521C114.263 36.6862 114.446 37.4203 114.669 38.2835C114.892 39.1466 115.058 39.8792 115.038 39.9115C115.018 39.9438 114.799 40.0155 114.552 40.0708L114.145 40.162C114.119 40.1679 114.091 40.1608 114.072 40.1432L113.134 39.3113C112.601 38.8382 111.932 38.2465 111.648 37.9963C111.363 37.7461 111.128 37.504 111.124 37.4582ZM104.337 39.1596C104.337 39.1221 105.072 38.9039 105.97 38.6747C106.868 38.4456 107.646 38.2643 107.697 38.2719C107.794 38.2861 110.726 40.8664 110.77 40.9753C110.783 41.0083 110.013 41.2302 109.058 41.4684L107.366 41.8908C107.339 41.8975 107.311 41.8905 107.29 41.8722L105.83 40.5646C105.009 39.8294 104.337 39.1971 104.337 39.1596ZM98.2379 40.658C98.6131 40.5615 99.3295 40.373 99.8298 40.2394C100.33 40.1057 100.795 39.9937 100.864 39.9904C100.972 39.9852 103.931 42.5507 103.985 42.697C103.997 42.728 103.29 42.9362 102.414 43.1597C102.165 43.2234 101.923 43.285 101.704 43.3411C101.153 43.4817 100.741 43.5869 100.688 43.6004C100.604 43.622 100.001 43.14 99.0551 42.2936C98.2304 41.5561 97.5557 40.9258 97.5557 40.8932C97.5557 40.8604 97.8628 40.7546 98.2379 40.658ZM93.4477 41.8896C93.5467 41.8519 93.7021 41.8024 93.7931 41.7795C93.884 41.7565 94.0162 41.7334 94.0867 41.7281C94.2469 41.7161 97.2473 44.3777 97.1627 44.4567C97.1287 44.4883 96.5427 44.6576 95.8605 44.8328L95.2152 44.9984C95.1216 45.0225 95.1378 45.16 95.2344 45.1616L95.9638 45.174C96.703 45.1865 97.3076 45.2181 97.3076 45.2442C97.3076 45.3036 95.2666 48.3231 95.0896 48.5256C94.9902 48.6394 94.8617 48.6685 94.5418 48.6497L94.2001 48.6298C94.157 48.6272 94.1231 48.5921 94.1221 48.5489L94.0792 46.7228L94.0348 44.8303C94.0346 44.8237 94.0337 44.8171 94.032 44.8108L93.6512 43.3891L93.2873 42.0302C93.2763 41.9892 93.2981 41.9464 93.3379 41.9313L93.4477 41.8896ZM98.5204 48.6046C98.4998 48.5706 98.9882 47.7888 99.6055 46.8676L100.703 45.2293C100.719 45.2064 100.745 45.1926 100.772 45.1926H102.491C103.596 45.1926 104.254 45.223 104.254 45.2742C104.254 45.3191 103.749 46.1008 103.132 47.0113L102.035 48.6303C102.02 48.653 101.994 48.6667 101.966 48.6667H100.284C99.3346 48.6667 98.541 48.6387 98.5204 48.6046ZM105.538 48.5882C105.512 48.5452 105.996 47.7635 106.614 46.8512L107.713 45.229C107.729 45.2062 107.755 45.1926 107.782 45.1926H109.511C110.485 45.1926 111.283 45.2144 111.283 45.2411C111.283 45.3195 109.113 48.5368 109.016 48.6034C108.882 48.6945 105.595 48.6802 105.538 48.5882ZM112.522 48.5651C112.522 48.5072 113.015 47.7254 113.618 46.8278L114.69 45.2323C114.706 45.2094 114.731 45.1957 114.759 45.1956L115.233 45.1942L115.668 45.1928C115.714 45.1927 115.752 45.2305 115.751 45.2768L115.73 46.9089L115.708 48.5446C115.708 48.5895 115.672 48.6258 115.627 48.6264L114.115 48.6478C112.871 48.6653 112.523 48.6472 112.522 48.5651ZM94.1024 55.8216C94.0907 52.4096 94.0989 49.5714 94.1206 49.5145C94.1518 49.4325 96.3951 49.4111 104.954 49.4111H115.666C115.712 49.4111 115.749 49.4482 115.749 49.494L115.749 55.7392L115.749 61.9842C115.749 62.03 115.711 62.0672 115.666 62.0671L104.936 62.0463L94.2063 62.0255C94.1607 62.0254 94.1237 61.9885 94.1236 61.9429C94.1234 61.8973 94.1024 55.8216 94.1024 55.8216ZM106.076 60.4479C106.12 60.6418 106.293 60.7793 106.492 60.7793H108.197C108.386 60.7793 108.553 60.6541 108.606 60.472L111.206 51.5472C111.274 51.3139 111.134 51.071 110.898 51.0134L109.256 50.6129C109.015 50.5541 108.775 50.7125 108.734 50.9571L107.93 55.7742C107.853 56.2379 107.192 56.2538 107.092 55.7943L106.066 51.0581C106.023 50.8619 105.849 50.7219 105.649 50.7219H104.523H103.405C103.201 50.7219 103.026 50.8661 102.986 51.0661L102.059 55.7767C101.968 56.2383 101.307 56.2346 101.221 55.7719L100.328 50.9478C100.284 50.7068 100.046 50.5529 99.8077 50.6109L98.1243 51.0213C97.8875 51.079 97.7471 51.3231 97.8163 51.5568L100.454 60.4737C100.508 60.6549 100.674 60.7793 100.863 60.7793H102.672C102.873 60.7793 103.047 60.6382 103.089 60.4411L104.122 55.5651C104.217 55.1179 104.853 55.1127 104.956 55.5582L106.076 60.4479Z" stroke="#555555" stroke-width="5.41219" mask="url(#path-20-outside-10_748_36923)"/>
<path fill-rule="evenodd" clip-rule="evenodd" d="M395.942 89.7632C395.005 89.7632 394.094 89.8755 393.222 90.0873C393.235 90.1802 393.242 90.2751 393.242 90.3716V94.4912L398.645 94.4911V90.3716C398.645 90.2753 398.652 90.1806 398.665 90.088C397.792 89.8757 396.88 89.7632 395.942 89.7632ZM398.645 98.5437L393.242 98.5437V103.947H398.645V98.5437ZM389.189 94.4912V91.9579C388.218 92.665 387.363 93.5205 386.655 94.4912H389.189ZM384.787 98.5136C384.9 98.5334 385.017 98.5437 385.136 98.5437H389.189V103.947H385.136C385.017 103.947 384.9 103.957 384.787 103.977C384.573 103.102 384.46 102.187 384.46 101.245C384.46 100.304 384.573 99.3892 384.787 98.5136ZM402.697 98.5437H406.75C406.868 98.5437 406.984 98.5335 407.097 98.514C407.311 99.3894 407.424 100.304 407.424 101.245C407.424 102.187 407.311 103.101 407.097 103.977C406.984 103.957 406.868 103.947 406.75 103.947H402.697V98.5437ZM405.228 94.4911H402.697V91.9598C403.667 92.6665 404.522 93.5214 405.228 94.4911ZM393.242 108H398.645V111.985C398.645 112.126 398.659 112.264 398.687 112.397C397.807 112.613 396.888 112.727 395.942 112.727C394.997 112.727 394.078 112.613 393.199 112.398C393.227 112.265 393.242 112.127 393.242 111.985V108ZM402.697 108V110.531C403.667 109.824 404.522 108.969 405.228 108H402.697ZM386.655 108H389.189V110.533C388.218 109.826 387.363 108.97 386.655 108ZM380.407 101.245C380.407 92.6658 387.362 85.7107 395.942 85.7107C404.521 85.7107 411.477 92.6658 411.477 101.245C411.477 109.825 404.521 116.78 395.942 116.78C387.362 116.78 380.407 109.825 380.407 101.245Z" fill="#FFC71E"/>
<path d="M392.315 105.995L387.512 99.1143C387.374 98.9174 387.119 98.828 386.912 98.9494C386.318 99.2976 386.037 99.8941 385.927 100.368C385.868 100.625 385.713 100.953 385.729 101.216C385.759 101.715 386.076 102.755 387.096 104.714C388.465 107.344 390.754 107.245 392.115 106.734C392.415 106.621 392.498 106.257 392.315 105.995Z" fill="#555555"/>
<ellipse cx="379.755" cy="96.4794" rx="1.34842" ry="2.79838" transform="rotate(-55.4456 379.755 96.4794)" fill="#FFC71E"/>
<ellipse cx="378.713" cy="98.2372" rx="1.34842" ry="2.79838" transform="rotate(-55.4456 378.713 98.2372)" fill="#FFC71E"/>
<ellipse cx="377.765" cy="100.121" rx="1.34842" ry="2.6505" transform="rotate(-55.4456 377.765 100.121)" fill="#FFC71E"/>
<ellipse cx="376.657" cy="101.651" rx="1.00473" ry="2.02834" transform="rotate(-55.4456 376.657 101.651)" fill="#FFC71E"/>
<ellipse cx="3.02778" cy="3.02778" rx="3.02778" ry="3.02778" transform="matrix(-0.394925 -0.918713 -0.918713 0.394925 400.345 104.321)" fill="#F0F0F0"/>
<mask id="path-28-inside-11_748_36923" fill="white">
<path fill-rule="evenodd" clip-rule="evenodd" d="M393.615 101.51C393.908 100.834 394.45 100.264 395.181 99.9504C395.377 99.8659 395.578 99.804 395.78 99.7637C396.326 99.8818 396.808 100.253 397.046 100.806C397.436 101.713 397.017 102.764 396.109 103.154C395.202 103.544 394.151 103.125 393.761 102.218C393.662 101.987 393.615 101.746 393.615 101.51Z"/>
</mask>
<path fill-rule="evenodd" clip-rule="evenodd" d="M393.615 101.51C393.908 100.834 394.45 100.264 395.181 99.9504C395.377 99.8659 395.578 99.804 395.78 99.7637C396.326 99.8818 396.808 100.253 397.046 100.806C397.436 101.713 397.017 102.764 396.109 103.154C395.202 103.544 394.151 103.125 393.761 102.218C393.662 101.987 393.615 101.746 393.615 101.51Z" fill="#555555"/>
<path d="M393.615 101.51L393.366 101.51L393.366 101.458L393.387 101.411L393.615 101.51ZM395.78 99.7637L395.731 99.5197L395.782 99.5095L395.832 99.5205L395.78 99.7637ZM395.279 100.179C394.609 100.467 394.113 100.989 393.843 101.609L393.387 101.411C393.704 100.679 394.291 100.062 395.082 99.7218L395.279 100.179ZM395.829 100.008C395.644 100.045 395.46 100.101 395.279 100.179L395.082 99.7218C395.295 99.6304 395.512 99.5634 395.731 99.5197L395.829 100.008ZM396.817 100.904C396.613 100.429 396.198 100.109 395.727 100.007L395.832 99.5205C396.454 99.6548 397.004 100.078 397.275 100.707L396.817 100.904ZM396.011 102.925C396.792 102.59 397.153 101.685 396.817 100.904L397.275 100.707C397.719 101.741 397.241 102.938 396.208 103.383L396.011 102.925ZM393.99 102.119C394.325 102.9 395.23 103.261 396.011 102.925L396.208 103.383C395.174 103.827 393.977 103.349 393.532 102.316L393.99 102.119ZM393.864 101.511C393.864 101.714 393.904 101.92 393.99 102.119L393.532 102.316C393.419 102.053 393.366 101.779 393.366 101.51L393.864 101.511Z" fill="#555555" mask="url(#path-28-inside-11_748_36923)"/>
<circle cx="396.603" cy="101.758" r="0.321804" transform="rotate(49.1859 396.603 101.758)" fill="white"/>
<ellipse cx="3.02778" cy="3.02778" rx="3.02778" ry="3.02778" transform="matrix(-0.691469 -0.722406 -0.722406 0.691469 396.148 95.9341)" fill="#F0F0F0"/>
<mask id="path-32-inside-12_748_36923" fill="white">
<path fill-rule="evenodd" clip-rule="evenodd" d="M388.862 95.6564C388.901 94.9205 389.209 94.1971 389.783 93.6474C389.938 93.4994 390.104 93.3712 390.279 93.2628C390.832 93.1823 391.414 93.3614 391.83 93.7956C392.512 94.5089 392.488 95.6406 391.774 96.3234C391.061 97.0061 389.929 96.9814 389.247 96.2681C389.073 96.0865 388.945 95.8779 388.862 95.6564Z"/>
</mask>
<path fill-rule="evenodd" clip-rule="evenodd" d="M388.862 95.6564C388.901 94.9205 389.209 94.1971 389.783 93.6474C389.938 93.4994 390.104 93.3712 390.279 93.2628C390.832 93.1823 391.414 93.3614 391.83 93.7956C392.512 94.5089 392.488 95.6406 391.774 96.3234C391.061 97.0061 389.929 96.9814 389.247 96.2681C389.073 96.0865 388.945 95.8779 388.862 95.6564Z" fill="#555555"/>
<path d="M388.862 95.6564L388.629 95.7432L388.611 95.6949L388.614 95.6435L388.862 95.6564ZM390.279 93.2628L390.148 93.0512L390.192 93.024L390.243 93.0165L390.279 93.2628ZM389.955 93.8272C389.428 94.3313 389.146 94.9942 389.111 95.6693L388.614 95.6435C388.655 94.8468 388.989 94.0629 389.611 93.4676L389.955 93.8272ZM390.41 93.4743C390.25 93.5736 390.097 93.6912 389.955 93.8272L389.611 93.4676C389.778 93.3075 389.958 93.1687 390.148 93.0512L390.41 93.4743ZM391.65 93.9677C391.292 93.594 390.791 93.4396 390.315 93.509L390.243 93.0165C390.872 92.925 391.536 93.1287 392.009 93.6236L391.65 93.9677ZM391.602 96.1436C392.216 95.5559 392.238 94.5817 391.65 93.9677L392.009 93.6236C392.787 94.4361 392.759 95.7254 391.946 96.5031L391.602 96.1436ZM389.426 96.096C390.014 96.71 390.988 96.7313 391.602 96.1436L391.946 96.5031C391.134 97.2809 389.845 97.2527 389.067 96.4401L389.426 96.096ZM389.096 95.5696C389.166 95.7599 389.276 95.9394 389.426 96.096L389.067 96.4401C388.869 96.2336 388.723 95.9958 388.629 95.7432L389.096 95.5696Z" fill="#555555" mask="url(#path-32-inside-12_748_36923)"/>
<circle cx="391.746" cy="94.8428" r="0.321804" transform="rotate(28.7007 391.746 94.8428)" fill="white"/>
<path fill-rule="evenodd" clip-rule="evenodd" d="M367.79 24.2506C366.555 23.8398 365.221 24.508 364.81 25.7432L363.297 30.2903L358.824 28.8023C357.589 28.3915 356.254 29.0598 355.844 30.295C355.433 31.5302 356.101 32.8646 357.336 33.2754L361.81 34.7633L359.826 40.7274L355.352 39.2395C354.117 38.8286 352.783 39.4969 352.372 40.7321C351.961 41.9673 352.629 43.3017 353.865 43.7126L358.338 45.2005L356.875 49.5996C356.464 50.8348 357.132 52.1692 358.367 52.58C359.603 52.9909 360.937 52.3226 361.348 51.0874L362.811 46.6883L368.775 48.672L367.312 53.0711C366.901 54.3063 367.569 55.6407 368.805 56.0516C370.04 56.4624 371.374 55.7942 371.785 54.559L373.248 50.1598L377.721 51.6475C378.956 52.0584 380.291 51.3901 380.701 50.1549C381.112 48.9197 380.444 47.5853 379.209 47.1745L374.736 45.6868L376.72 39.7227L381.193 41.2104C382.428 41.6212 383.762 40.953 384.173 39.7178C384.584 38.4826 383.916 37.1482 382.68 36.7373L378.208 35.2496L379.72 30.7026C380.131 29.4674 379.463 28.133 378.227 27.7222C376.992 27.3113 375.658 27.9796 375.247 29.2148L373.734 33.7618L367.77 31.7781L369.283 27.2311C369.694 25.9959 369.025 24.6615 367.79 24.2506ZM366.283 36.2511L364.299 42.2152L370.263 44.199L372.247 38.2349L366.283 36.2511Z" fill="#FFC71E"/>
<rect x="359.839" y="23.2619" width="26.7127" height="26.7127" rx="5.49968" transform="rotate(18.3979 359.839 23.2619)" stroke="#FFC71E" stroke-width="4.71401"/>
<ellipse cx="2.71575" cy="3.28365" rx="2.71575" ry="3.28365" transform="matrix(-0.948887 -0.315615 -0.315615 0.948887 368.487 33.7361)" fill="#F0F0F0"/>
<g clip-path="url(#clip0_748_36923)">
<mask id="path-38-inside-13_748_36923" fill="white">
<path fill-rule="evenodd" clip-rule="evenodd" d="M364.972 39.1717C365.571 38.9979 366.078 38.5419 366.29 37.905C366.632 36.8761 366.075 35.7646 365.046 35.4223C364.017 35.0801 362.906 35.6368 362.564 36.6657C362.376 37.229 362.458 37.8171 362.74 38.2901C363.019 38.674 363.39 38.9628 363.837 39.1115C364.207 39.2345 364.593 39.2495 364.972 39.1717Z"/>
</mask>
<path fill-rule="evenodd" clip-rule="evenodd" d="M364.972 39.1717C365.571 38.9979 366.078 38.5419 366.29 37.905C366.632 36.8761 366.075 35.7646 365.046 35.4223C364.017 35.0801 362.906 35.6368 362.564 36.6657C362.376 37.229 362.458 37.8171 362.74 38.2901C363.019 38.674 363.39 38.9628 363.837 39.1115C364.207 39.2345 364.593 39.2495 364.972 39.1717Z" fill="#555555"/>
<path d="M364.972 39.1717L365.048 39.4341L365.037 39.4372L365.027 39.4394L364.972 39.1717ZM362.74 38.2901L362.519 38.4509L362.511 38.4407L362.505 38.4298L362.74 38.2901ZM364.896 38.9092C365.412 38.7594 365.848 38.3668 366.03 37.8187L366.549 37.9912C366.308 38.7171 365.73 39.2364 365.048 39.4341L364.896 38.9092ZM366.03 37.8187C366.325 36.933 365.846 35.9762 364.96 35.6816L365.133 35.163C366.305 35.5529 366.939 36.8191 366.549 37.9912L366.03 37.8187ZM364.96 35.6816C364.074 35.387 363.118 35.8662 362.823 36.7519L362.304 36.5794C362.694 35.4073 363.96 34.7732 365.133 35.163L364.96 35.6816ZM362.823 36.7519C362.662 37.2368 362.732 37.7426 362.975 38.1503L362.505 38.4298C362.185 37.8915 362.091 37.2212 362.304 36.5794L362.823 36.7519ZM362.961 38.1293C363.21 38.4722 363.536 38.7233 363.923 38.8522L363.751 39.3708C363.244 39.2022 362.828 38.8758 362.519 38.4509L362.961 38.1293ZM363.923 38.8522C364.244 38.9589 364.581 38.9729 364.917 38.904L365.027 39.4394C364.604 39.5261 364.17 39.5101 363.751 39.3708L363.923 38.8522Z" fill="#555555" mask="url(#path-38-inside-13_748_36923)"/>
<circle cx="365.671" cy="37.0124" r="0.353401" transform="rotate(0.845161 365.671 37.0124)" fill="white"/>
</g>
<ellipse cx="2.71575" cy="3.28365" rx="2.71575" ry="3.28365" transform="matrix(-0.948887 -0.315615 -0.315615 0.948887 376.785 36.4961)" fill="#F0F0F0"/>
<g clip-path="url(#clip1_748_36923)">
<mask id="path-42-inside-14_748_36923" fill="white">
<path fill-rule="evenodd" clip-rule="evenodd" d="M373.27 41.9317C373.869 41.7579 374.376 41.3019 374.587 40.665C374.93 39.6361 374.373 38.5246 373.344 38.1823C372.315 37.8401 371.204 38.3968 370.861 39.4257C370.674 39.989 370.756 40.5771 371.038 41.0501C371.317 41.434 371.688 41.7228 372.135 41.8715C372.505 41.9945 372.89 42.0095 373.27 41.9317Z"/>
</mask>
<path fill-rule="evenodd" clip-rule="evenodd" d="M373.27 41.9317C373.869 41.7579 374.376 41.3019 374.587 40.665C374.93 39.6361 374.373 38.5246 373.344 38.1823C372.315 37.8401 371.204 38.3968 370.861 39.4257C370.674 39.989 370.756 40.5771 371.038 41.0501C371.317 41.434 371.688 41.7228 372.135 41.8715C372.505 41.9945 372.89 42.0095 373.27 41.9317Z" fill="#555555"/>
<path d="M373.27 41.9317L373.346 42.1942L373.335 42.1972L373.324 42.1994L373.27 41.9317ZM371.038 41.0501L370.817 41.2109L370.809 41.2007L370.803 41.1898L371.038 41.0501ZM373.193 41.6692C373.71 41.5194 374.146 41.1268 374.328 40.5788L374.847 40.7513C374.605 41.4771 374.028 41.9964 373.346 42.1942L373.193 41.6692ZM374.328 40.5788C374.623 39.6931 374.143 38.7362 373.258 38.4416L373.43 37.923C374.602 38.3129 375.237 39.5791 374.847 40.7513L374.328 40.5788ZM373.258 38.4416C372.372 38.1471 371.415 38.6262 371.121 39.5119L370.602 39.3394C370.992 38.1673 372.258 37.5332 373.43 37.923L373.258 38.4416ZM371.121 39.5119C370.959 39.9968 371.03 40.5026 371.272 40.9104L370.803 41.1898C370.482 40.6515 370.389 39.9812 370.602 39.3394L371.121 39.5119ZM371.259 40.8893C371.508 41.2322 371.834 41.4833 372.221 41.6122L372.049 42.1308C371.542 41.9622 371.126 41.6358 370.817 41.2109L371.259 40.8893ZM372.221 41.6122C372.542 41.7189 372.879 41.733 373.215 41.664L373.324 42.1994C372.902 42.2861 372.468 42.2701 372.049 42.1308L372.221 41.6122Z" fill="#555555" mask="url(#path-42-inside-14_748_36923)"/>
<circle cx="373.969" cy="39.7722" r="0.353401" transform="rotate(0.845161 373.969 39.7722)" fill="white"/>
</g>
<path d="M369.622 44.9732C368.226 45.9526 365.169 46.8117 364.106 42.4129" stroke="#555555" stroke-width="1.69323" stroke-linecap="round"/>
<ellipse cx="1.19412" cy="2.47816" rx="1.19412" ry="2.47816" transform="matrix(0.145763 -0.98932 -0.98932 -0.145763 356.953 50.5933)" fill="#FFC71E"/>
<ellipse cx="1.19412" cy="2.47816" rx="1.19412" ry="2.47816" transform="matrix(0.145763 -0.98932 -0.98932 -0.145763 356.568 52.3616)" fill="#FFC71E"/>
<ellipse cx="1.19412" cy="2.34721" rx="1.19412" ry="2.34721" transform="matrix(0.145763 -0.98932 -0.98932 -0.145763 355.917 54.136)" fill="#FFC71E"/>
<ellipse cx="0.889756" cy="1.79624" rx="0.889756" ry="1.79624" transform="matrix(0.145763 -0.98932 -0.98932 -0.145763 355.211 55.4138)" fill="#FFC71E"/>
<path fill-rule="evenodd" clip-rule="evenodd" d="M311.333 38.1299C310.033 38.1878 309.025 39.2889 309.083 40.5894L309.296 45.3766L304.587 45.5862C303.286 45.644 302.279 46.7452 302.337 48.0456C302.395 49.3461 303.496 50.3534 304.796 50.2955L309.506 50.0859L309.785 56.365L305.076 56.5746C303.775 56.6325 302.768 57.7336 302.826 59.0341C302.884 60.3345 303.985 61.3419 305.285 61.284L309.995 61.0744L310.201 65.7059C310.259 67.0063 311.36 68.0136 312.66 67.9558C313.961 67.8979 314.968 66.7968 314.91 65.4963L314.704 60.8648L320.983 60.5854L321.19 65.2169C321.247 66.5173 322.349 67.5246 323.649 67.4668C324.949 67.4089 325.957 66.3078 325.899 65.0073L325.693 60.3758L330.402 60.1662C331.702 60.1084 332.71 59.0072 332.652 57.7068C332.594 56.4063 331.493 55.399 330.192 55.4569L325.483 55.6665L325.204 49.3873L329.913 49.1778C331.213 49.1199 332.221 48.0188 332.163 46.7183C332.105 45.4179 331.004 44.4105 329.703 44.4684L324.994 44.678L324.781 39.8908C324.723 38.5903 323.622 37.583 322.322 37.6409C321.021 37.6988 320.014 38.7999 320.072 40.1004L320.285 44.8876L314.006 45.167L313.793 40.3798C313.735 39.0793 312.634 38.072 311.333 38.1299ZM314.215 49.8763L314.495 56.1555L320.774 55.876L320.494 49.5969L314.215 49.8763Z" fill="#FFC71E"/>
<rect x="303.554" y="40.0487" width="26.7127" height="26.7127" rx="5.49968" transform="rotate(-2.5481 303.554 40.0487)" stroke="#FFC71E" stroke-width="4.71401"/>
<path d="M310.439 48.045C311.471 47.5728 313.902 47.2025 315.373 49.4989" stroke="#555555" stroke-width="1.69323" stroke-linecap="round"/>
<path d="M310.402 51.1288C310.987 50.157 312.785 48.4798 315.295 49.5458" stroke="#555555" stroke-width="1.69323" stroke-linecap="round"/>
<ellipse cx="2.71575" cy="3.28365" rx="2.71575" ry="3.28365" transform="matrix(-0.999011 0.0444581 0.0444581 0.999011 325.122 45.0332)" fill="#F0F0F0"/>
<g clip-path="url(#clip2_748_36923)">
<mask id="path-55-inside-15_748_36923" fill="white">
<path fill-rule="evenodd" clip-rule="evenodd" d="M324.503 50.2705C325.001 49.894 325.311 49.287 325.281 48.6164C325.233 47.5332 324.316 46.6941 323.232 46.7423C322.149 46.7905 321.31 47.7078 321.358 48.791C321.385 49.3841 321.671 49.904 322.103 50.2451C322.502 50.5038 322.951 50.6409 323.422 50.6199C323.811 50.6026 324.177 50.4788 324.503 50.2705Z"/>
</mask>
<path fill-rule="evenodd" clip-rule="evenodd" d="M324.503 50.2705C325.001 49.894 325.311 49.287 325.281 48.6164C325.233 47.5332 324.316 46.6941 323.232 46.7423C322.149 46.7905 321.31 47.7078 321.358 48.791C321.385 49.3841 321.671 49.904 322.103 50.2451C322.502 50.5038 322.951 50.6409 323.422 50.6199C323.811 50.6026 324.177 50.4788 324.503 50.2705Z" fill="#555555"/>
<path d="M324.503 50.2705L324.668 50.4885L324.659 50.495L324.65 50.5009L324.503 50.2705ZM322.103 50.2451L321.955 50.4743L321.944 50.4674L321.934 50.4596L322.103 50.2451ZM324.338 50.0526C324.767 49.728 325.034 49.2056 325.008 48.6286L325.554 48.6043C325.588 49.3684 325.234 50.06 324.668 50.4885L324.338 50.0526ZM325.008 48.6286C324.967 47.6961 324.177 46.9738 323.244 47.0153L323.22 46.4693C324.454 46.4144 325.499 47.3703 325.554 48.6043L325.008 48.6286ZM323.244 47.0153C322.312 47.0568 321.59 47.8464 321.631 48.7789L321.085 48.8032C321.03 47.5691 321.986 46.5242 323.22 46.4693L323.244 47.0153ZM321.631 48.7789C321.654 49.2893 321.9 49.7366 322.273 50.0306L321.934 50.4596C321.442 50.0713 321.115 49.4788 321.085 48.8032L321.631 48.7789ZM322.252 50.016C322.608 50.247 323.002 50.3651 323.41 50.3469L323.434 50.8929C322.9 50.9167 322.395 50.7606 321.955 50.4743L322.252 50.016ZM323.41 50.3469C323.748 50.3319 324.067 50.2246 324.356 50.0402L324.65 50.5009C324.287 50.7329 323.875 50.8733 323.434 50.8929L323.41 50.3469Z" fill="#555555" mask="url(#path-55-inside-15_748_36923)"/>
<circle cx="323.972" cy="47.8733" r="0.353401" transform="rotate(-20.1009 323.972 47.8733)" fill="white"/>
</g>
<path d="M320.2 54.1921C317.267 55.0967 317.098 53.8509 314.131 53.7496C312.823 53.6175 312.801 54.2878 313.693 56.0677C314.584 57.8476 317.048 58.4528 318.443 58.3908C319.837 58.3287 321.983 56.901 322.075 55.3048C322.148 54.0278 320.856 54.0309 320.2 54.1921Z" fill="#555555"/>
<mask id="path-59-outside-16_748_36923" maskUnits="userSpaceOnUse" x="304.991" y="22.5848" width="22.9119" height="21.9573" fill="black">
<rect fill="white" x="304.991" y="22.5848" width="22.9119" height="21.9573"/>
<path d="M315.382 26.3127C315.667 25.7626 316.441 25.7281 316.774 26.2508L324.052 37.6708C324.327 38.1022 324.135 38.6735 323.65 38.8369C322.114 39.3544 319.002 40.3114 316.707 40.4135C314.413 40.5156 311.227 39.8389 309.652 39.4599C309.155 39.3402 308.913 38.7881 309.148 38.334L315.382 26.3127Z"/>
</mask>
<path d="M315.382 26.3127C315.667 25.7626 316.441 25.7281 316.774 26.2508L324.052 37.6708C324.327 38.1022 324.135 38.6735 323.65 38.8369C322.114 39.3544 319.002 40.3114 316.707 40.4135C314.413 40.5156 311.227 39.8389 309.652 39.4599C309.155 39.3402 308.913 38.7881 309.148 38.334L315.382 26.3127Z" fill="#FFC2AF"/>
<path d="M315.382 26.3127C315.667 25.7626 316.441 25.7281 316.774 26.2508L324.052 37.6708C324.327 38.1022 324.135 38.6735 323.65 38.8369C322.114 39.3544 319.002 40.3114 316.707 40.4135C314.413 40.5156 311.227 39.8389 309.652 39.4599C309.155 39.3402 308.913 38.7881 309.148 38.334L315.382 26.3127Z" stroke="#555555" stroke-width="5.42" mask="url(#path-59-outside-16_748_36923)"/>
<defs>
<clipPath id="clip0_748_36923">
<rect width="5.46552" height="7.65136" fill="white" transform="matrix(-0.948887 -0.315615 -0.315615 0.948887 368.815 32.7498)"/>
</clipPath>
<clipPath id="clip1_748_36923">
<rect width="5.46552" height="7.65136" fill="white" transform="matrix(-0.948887 -0.315615 -0.315615 0.948887 377.113 35.5098)"/>
</clipPath>
<clipPath id="clip2_748_36923">
<rect width="5.46552" height="7.65136" fill="white" transform="matrix(-0.999011 0.0444581 0.0444581 0.999011 325.075 43.9946)"/>
</clipPath>
</defs>
</svg>
