<svg width="124" height="24" viewBox="0 0 124 24" fill="none" xmlns="http://www.w3.org/2000/svg">
<mask id="path-1-outside-1_718_30954" maskUnits="userSpaceOnUse" x="46.5695" y="-3.05526e-05" width="19" height="19" fill="black">
<rect fill="white" x="46.5695" y="-3.05526e-05" width="19" height="19"/>
<path fill-rule="evenodd" clip-rule="evenodd" d="M51.1237 2.00146C51.4645 1.97744 51.7542 2.24732 51.7542 2.58883L51.7542 15.7796C51.7542 16.1048 51.4903 16.3684 51.1653 16.3684L49.1583 16.3684C48.8334 16.3684 48.5695 16.1048 48.5695 15.7796L48.5695 9.275L48.5695 2.73033C48.5695 2.4212 48.8085 2.1647 49.1172 2.14296L51.1237 2.00146ZM58.2501 6.16205C59.2575 6.16205 60.108 6.39335 60.8017 6.85607C61.4959 7.3188 62.0133 7.93794 62.3532 8.71362C62.707 9.4893 62.8842 10.3603 62.8842 11.3265L62.8842 11.697C62.8842 12.0223 62.6203 12.2859 62.2953 12.2859L57.2961 12.2859C56.9111 12.2859 56.6241 12.6584 56.8284 12.9849C57.2604 13.6756 58.0337 14.0209 59.1486 14.0209C59.8857 14.0209 60.6187 13.8616 61.3472 13.5429C61.6721 13.4009 62.0626 13.536 62.195 13.8648L62.6722 15.0464C62.7726 15.2958 62.6935 15.585 62.4612 15.7212C62.077 15.947 61.6324 16.1356 61.1285 16.2868C60.4619 16.4909 59.727 16.593 58.924 16.593C57.114 16.593 55.685 16.1371 54.6375 15.2253C53.603 14.3135 53.086 13.0479 53.086 11.4285C53.086 10.3671 53.3038 9.44176 53.739 8.65238C54.1747 7.84954 54.7803 7.23718 55.5558 6.81526C56.3453 6.37983 57.2433 6.16205 58.2501 6.16205ZM58.1688 8.79528C57.7196 8.79528 57.3386 8.95183 57.0255 9.26478C56.865 9.42522 56.7398 9.61494 56.6499 9.83394C56.5166 10.1579 56.8004 10.4691 57.1506 10.4691L59.1504 10.4691C59.5133 10.4691 59.7989 10.1374 59.6507 9.80624C59.5576 9.59889 59.4378 9.41844 59.2914 9.26478C59.0193 8.95183 58.6452 8.79528 58.1688 8.79528Z"/>
</mask>
<path fill-rule="evenodd" clip-rule="evenodd" d="M51.1237 2.00146C51.4645 1.97744 51.7542 2.24732 51.7542 2.58883L51.7542 15.7796C51.7542 16.1048 51.4903 16.3684 51.1653 16.3684L49.1583 16.3684C48.8334 16.3684 48.5695 16.1048 48.5695 15.7796L48.5695 9.275L48.5695 2.73033C48.5695 2.4212 48.8085 2.1647 49.1172 2.14296L51.1237 2.00146ZM58.2501 6.16205C59.2575 6.16205 60.108 6.39335 60.8017 6.85607C61.4959 7.3188 62.0133 7.93794 62.3532 8.71362C62.707 9.4893 62.8842 10.3603 62.8842 11.3265L62.8842 11.697C62.8842 12.0223 62.6203 12.2859 62.2953 12.2859L57.2961 12.2859C56.9111 12.2859 56.6241 12.6584 56.8284 12.9849C57.2604 13.6756 58.0337 14.0209 59.1486 14.0209C59.8857 14.0209 60.6187 13.8616 61.3472 13.5429C61.6721 13.4009 62.0626 13.536 62.195 13.8648L62.6722 15.0464C62.7726 15.2958 62.6935 15.585 62.4612 15.7212C62.077 15.947 61.6324 16.1356 61.1285 16.2868C60.4619 16.4909 59.727 16.593 58.924 16.593C57.114 16.593 55.685 16.1371 54.6375 15.2253C53.603 14.3135 53.086 13.0479 53.086 11.4285C53.086 10.3671 53.3038 9.44176 53.739 8.65238C54.1747 7.84954 54.7803 7.23718 55.5558 6.81526C56.3453 6.37983 57.2433 6.16205 58.2501 6.16205ZM58.1688 8.79528C57.7196 8.79528 57.3386 8.95183 57.0255 9.26478C56.865 9.42522 56.7398 9.61494 56.6499 9.83394C56.5166 10.1579 56.8004 10.4691 57.1506 10.4691L59.1504 10.4691C59.5133 10.4691 59.7989 10.1374 59.6507 9.80624C59.5576 9.59889 59.4378 9.41844 59.2914 9.26478C59.0193 8.95183 58.6452 8.79528 58.1688 8.79528Z" fill="#FFC71E"/>
<path fill-rule="evenodd" clip-rule="evenodd" d="M51.1237 2.00146C51.4645 1.97744 51.7542 2.24732 51.7542 2.58883L51.7542 15.7796C51.7542 16.1048 51.4903 16.3684 51.1653 16.3684L49.1583 16.3684C48.8334 16.3684 48.5695 16.1048 48.5695 15.7796L48.5695 9.275L48.5695 2.73033C48.5695 2.4212 48.8085 2.1647 49.1172 2.14296L51.1237 2.00146ZM58.2501 6.16205C59.2575 6.16205 60.108 6.39335 60.8017 6.85607C61.4959 7.3188 62.0133 7.93794 62.3532 8.71362C62.707 9.4893 62.8842 10.3603 62.8842 11.3265L62.8842 11.697C62.8842 12.0223 62.6203 12.2859 62.2953 12.2859L57.2961 12.2859C56.9111 12.2859 56.6241 12.6584 56.8284 12.9849C57.2604 13.6756 58.0337 14.0209 59.1486 14.0209C59.8857 14.0209 60.6187 13.8616 61.3472 13.5429C61.6721 13.4009 62.0626 13.536 62.195 13.8648L62.6722 15.0464C62.7726 15.2958 62.6935 15.585 62.4612 15.7212C62.077 15.947 61.6324 16.1356 61.1285 16.2868C60.4619 16.4909 59.727 16.593 58.924 16.593C57.114 16.593 55.685 16.1371 54.6375 15.2253C53.603 14.3135 53.086 13.0479 53.086 11.4285C53.086 10.3671 53.3038 9.44176 53.739 8.65238C54.1747 7.84954 54.7803 7.23718 55.5558 6.81526C56.3453 6.37983 57.2433 6.16205 58.2501 6.16205ZM58.1688 8.79528C57.7196 8.79528 57.3386 8.95183 57.0255 9.26478C56.865 9.42522 56.7398 9.61494 56.6499 9.83394C56.5166 10.1579 56.8004 10.4691 57.1506 10.4691L59.1504 10.4691C59.5133 10.4691 59.7989 10.1374 59.6507 9.80624C59.5576 9.59889 59.4378 9.41844 59.2914 9.26478C59.0193 8.95183 58.6452 8.79528 58.1688 8.79528Z" stroke="#555555" stroke-width="3.96174" mask="url(#path-1-outside-1_718_30954)"/>
<ellipse cx="58.6689" cy="9.50454" rx="2.04698" ry="1.69085" fill="#555555"/>
<ellipse cx="25.3304" cy="13.1281" rx="2.284" ry="1.69085" fill="#555555"/>
<mask id="path-4-outside-2_718_30954" maskUnits="userSpaceOnUse" x="19.3201" y="0.0182495" width="30" height="24" fill="black">
<rect fill="white" x="19.3201" y="0.0182495" width="30" height="24"/>
<path d="M25.2598 8.89737C24.865 8.89737 24.416 8.9586 23.9126 9.08108C23.6554 9.14362 23.4142 9.21322 23.189 9.28996C22.8596 9.40221 22.4861 9.2454 22.3711 8.91694L21.8936 7.55262C21.7983 7.28038 21.9137 6.97709 22.1808 6.8684C22.5661 6.71163 23.0345 6.57145 23.5859 6.4478C24.3751 6.25736 25.0828 6.16205 25.7089 6.16205C26.5389 6.16205 27.2737 6.32533 27.9134 6.65193C28.553 6.97854 29.0429 7.44131 29.3832 8.04002C29.7369 8.62522 29.9139 9.29886 29.9139 10.0608L29.9139 15.7796C29.9139 16.1048 29.6503 16.3684 29.3251 16.3684L28.4383 16.3684C28.2496 16.3684 28.0724 16.278 27.9617 16.1254L27.8173 15.9264C27.595 15.6199 27.1473 15.6042 26.8575 15.8479C26.2669 16.3446 25.6323 16.593 24.9536 16.593C23.756 16.593 22.8511 16.3004 22.2387 15.7152C21.6263 15.1165 21.3201 14.3067 21.3201 13.2861C21.3201 12.2791 21.6602 11.5238 22.3408 11.0203C23.0211 10.5167 23.9534 10.265 25.1373 10.265L26.0617 10.265C26.4014 10.265 26.6891 9.96658 26.5475 9.65778C26.4771 9.5043 26.3813 9.37329 26.26 9.26478C26.015 9.01984 25.6816 8.89737 25.2598 8.89737ZM25.1577 12.1838C24.8175 12.1838 24.5384 12.2859 24.3208 12.49C24.1167 12.6941 24.0146 12.9527 24.0146 13.2657C24.0146 13.5106 24.103 13.7215 24.28 13.8985C24.4568 14.0754 24.6882 14.1638 24.974 14.1638C25.5036 14.1638 26.0173 13.9615 26.515 13.5569C26.6422 13.4535 26.7091 13.295 26.7091 13.131L26.7091 12.7726C26.7091 12.4474 26.4455 12.1838 26.1203 12.1838L25.1577 12.1838ZM32.2992 9.77193C32.2992 9.44677 32.0356 9.18312 31.7104 9.18312L31.2958 9.18312C30.9706 9.18312 30.707 8.91951 30.707 8.59431L30.707 7.2816C30.707 6.95639 30.9706 6.69279 31.2958 6.69279L31.7104 6.69279C32.0356 6.69279 32.2992 6.42913 32.2992 6.10393L32.2992 5.85587C32.2992 4.65827 32.694 3.71926 33.4832 3.03889C34.2861 2.35851 35.3068 2.01825 36.5451 2.01825C36.9398 2.01825 37.3685 2.0999 37.8311 2.2632C38.1117 2.35135 38.3521 2.44897 38.5524 2.55604C38.7794 2.67744 38.8461 2.95595 38.7478 3.19394L38.2391 4.42625C38.1074 4.74508 37.7318 4.87483 37.399 4.7839C37.1756 4.72285 36.9522 4.69234 36.7288 4.69234C36.3342 4.69234 36.028 4.83519 35.8102 5.12099C35.5926 5.3931 35.4836 5.76743 35.4836 6.24371C35.4836 6.49173 35.6847 6.69279 35.9327 6.69279L37.325 6.69279C37.5977 6.69279 37.8347 6.88006 37.8978 7.14543L38.2099 8.45814C38.2978 8.82809 38.0173 9.18312 37.637 9.18312L36.0724 9.18312C35.7472 9.18312 35.4836 9.44677 35.4836 9.77193L35.4836 20.4745C35.4836 20.7997 35.22 21.0633 34.8948 21.0633L32.8881 21.0633C32.5629 21.0633 32.2992 20.7997 32.2992 20.4745L32.2992 9.77193ZM40.3233 9.77193C40.3233 9.44677 40.0597 9.18312 39.7345 9.18312L39.3199 9.18312C38.9947 9.18312 38.7311 8.91951 38.7311 8.59431L38.7311 7.2816C38.7311 6.95639 38.9947 6.69279 39.3199 6.69279L39.7345 6.69279C40.0597 6.69279 40.3233 6.42913 40.3233 6.10393L40.3233 5.85587C40.3233 4.65827 40.7179 3.71926 41.5073 3.03889C42.3101 2.35851 43.3307 2.01825 44.5691 2.01825C44.9637 2.01825 45.3926 2.0999 45.8554 2.2632C46.1356 2.35136 46.376 2.44898 46.5766 2.55606C46.8035 2.67745 46.8699 2.95595 46.7719 3.19394L46.263 4.42634C46.1315 4.74513 45.7559 4.87487 45.4233 4.78395C45.1996 4.72285 44.9764 4.69234 44.7529 4.69234C44.3581 4.69234 44.0519 4.83519 43.8343 5.12099C43.6165 5.3931 43.5077 5.76743 43.5077 6.24371C43.5077 6.49173 43.7088 6.69279 43.9568 6.69279L45.3492 6.69279C45.6217 6.69279 45.859 6.88006 45.9218 7.14544L46.2341 8.45814C46.3218 8.82809 46.0416 9.18312 45.661 9.18312L44.0965 9.18312C43.7713 9.18312 43.5077 9.44677 43.5077 9.77193L43.5077 20.4745C43.5077 20.7997 43.2441 21.0633 42.9189 21.0633L40.9121 21.0633C40.5869 21.0633 40.3233 20.7997 40.3233 20.4745L40.3233 9.77193Z"/>
</mask>
<path d="M25.2598 8.89737C24.865 8.89737 24.416 8.9586 23.9126 9.08108C23.6554 9.14362 23.4142 9.21322 23.189 9.28996C22.8596 9.40221 22.4861 9.2454 22.3711 8.91694L21.8936 7.55262C21.7983 7.28038 21.9137 6.97709 22.1808 6.8684C22.5661 6.71163 23.0345 6.57145 23.5859 6.4478C24.3751 6.25736 25.0828 6.16205 25.7089 6.16205C26.5389 6.16205 27.2737 6.32533 27.9134 6.65193C28.553 6.97854 29.0429 7.44131 29.3832 8.04002C29.7369 8.62522 29.9139 9.29886 29.9139 10.0608L29.9139 15.7796C29.9139 16.1048 29.6503 16.3684 29.3251 16.3684L28.4383 16.3684C28.2496 16.3684 28.0724 16.278 27.9617 16.1254L27.8173 15.9264C27.595 15.6199 27.1473 15.6042 26.8575 15.8479C26.2669 16.3446 25.6323 16.593 24.9536 16.593C23.756 16.593 22.8511 16.3004 22.2387 15.7152C21.6263 15.1165 21.3201 14.3067 21.3201 13.2861C21.3201 12.2791 21.6602 11.5238 22.3408 11.0203C23.0211 10.5167 23.9534 10.265 25.1373 10.265L26.0617 10.265C26.4014 10.265 26.6891 9.96658 26.5475 9.65778C26.4771 9.5043 26.3813 9.37329 26.26 9.26478C26.015 9.01984 25.6816 8.89737 25.2598 8.89737ZM25.1577 12.1838C24.8175 12.1838 24.5384 12.2859 24.3208 12.49C24.1167 12.6941 24.0146 12.9527 24.0146 13.2657C24.0146 13.5106 24.103 13.7215 24.28 13.8985C24.4568 14.0754 24.6882 14.1638 24.974 14.1638C25.5036 14.1638 26.0173 13.9615 26.515 13.5569C26.6422 13.4535 26.7091 13.295 26.7091 13.131L26.7091 12.7726C26.7091 12.4474 26.4455 12.1838 26.1203 12.1838L25.1577 12.1838ZM32.2992 9.77193C32.2992 9.44677 32.0356 9.18312 31.7104 9.18312L31.2958 9.18312C30.9706 9.18312 30.707 8.91951 30.707 8.59431L30.707 7.2816C30.707 6.95639 30.9706 6.69279 31.2958 6.69279L31.7104 6.69279C32.0356 6.69279 32.2992 6.42913 32.2992 6.10393L32.2992 5.85587C32.2992 4.65827 32.694 3.71926 33.4832 3.03889C34.2861 2.35851 35.3068 2.01825 36.5451 2.01825C36.9398 2.01825 37.3685 2.0999 37.8311 2.2632C38.1117 2.35135 38.3521 2.44897 38.5524 2.55604C38.7794 2.67744 38.8461 2.95595 38.7478 3.19394L38.2391 4.42625C38.1074 4.74508 37.7318 4.87483 37.399 4.7839C37.1756 4.72285 36.9522 4.69234 36.7288 4.69234C36.3342 4.69234 36.028 4.83519 35.8102 5.12099C35.5926 5.3931 35.4836 5.76743 35.4836 6.24371C35.4836 6.49173 35.6847 6.69279 35.9327 6.69279L37.325 6.69279C37.5977 6.69279 37.8347 6.88006 37.8978 7.14543L38.2099 8.45814C38.2978 8.82809 38.0173 9.18312 37.637 9.18312L36.0724 9.18312C35.7472 9.18312 35.4836 9.44677 35.4836 9.77193L35.4836 20.4745C35.4836 20.7997 35.22 21.0633 34.8948 21.0633L32.8881 21.0633C32.5629 21.0633 32.2992 20.7997 32.2992 20.4745L32.2992 9.77193ZM40.3233 9.77193C40.3233 9.44677 40.0597 9.18312 39.7345 9.18312L39.3199 9.18312C38.9947 9.18312 38.7311 8.91951 38.7311 8.59431L38.7311 7.2816C38.7311 6.95639 38.9947 6.69279 39.3199 6.69279L39.7345 6.69279C40.0597 6.69279 40.3233 6.42913 40.3233 6.10393L40.3233 5.85587C40.3233 4.65827 40.7179 3.71926 41.5073 3.03889C42.3101 2.35851 43.3307 2.01825 44.5691 2.01825C44.9637 2.01825 45.3926 2.0999 45.8554 2.2632C46.1356 2.35136 46.376 2.44898 46.5766 2.55606C46.8035 2.67745 46.8699 2.95595 46.7719 3.19394L46.263 4.42634C46.1315 4.74513 45.7559 4.87487 45.4233 4.78395C45.1996 4.72285 44.9764 4.69234 44.7529 4.69234C44.3581 4.69234 44.0519 4.83519 43.8343 5.12099C43.6165 5.3931 43.5077 5.76743 43.5077 6.24371C43.5077 6.49173 43.7088 6.69279 43.9568 6.69279L45.3492 6.69279C45.6217 6.69279 45.859 6.88006 45.9218 7.14544L46.2341 8.45814C46.3218 8.82809 46.0416 9.18312 45.661 9.18312L44.0965 9.18312C43.7713 9.18312 43.5077 9.44677 43.5077 9.77193L43.5077 20.4745C43.5077 20.7997 43.2441 21.0633 42.9189 21.0633L40.9121 21.0633C40.5869 21.0633 40.3233 20.7997 40.3233 20.4745L40.3233 9.77193Z" fill="#FFC71E"/>
<path d="M25.2598 8.89737C24.865 8.89737 24.416 8.9586 23.9126 9.08108C23.6554 9.14362 23.4142 9.21322 23.189 9.28996C22.8596 9.40221 22.4861 9.2454 22.3711 8.91694L21.8936 7.55262C21.7983 7.28038 21.9137 6.97709 22.1808 6.8684C22.5661 6.71163 23.0345 6.57145 23.5859 6.4478C24.3751 6.25736 25.0828 6.16205 25.7089 6.16205C26.5389 6.16205 27.2737 6.32533 27.9134 6.65193C28.553 6.97854 29.0429 7.44131 29.3832 8.04002C29.7369 8.62522 29.9139 9.29886 29.9139 10.0608L29.9139 15.7796C29.9139 16.1048 29.6503 16.3684 29.3251 16.3684L28.4383 16.3684C28.2496 16.3684 28.0724 16.278 27.9617 16.1254L27.8173 15.9264C27.595 15.6199 27.1473 15.6042 26.8575 15.8479C26.2669 16.3446 25.6323 16.593 24.9536 16.593C23.756 16.593 22.8511 16.3004 22.2387 15.7152C21.6263 15.1165 21.3201 14.3067 21.3201 13.2861C21.3201 12.2791 21.6602 11.5238 22.3408 11.0203C23.0211 10.5167 23.9534 10.265 25.1373 10.265L26.0617 10.265C26.4014 10.265 26.6891 9.96658 26.5475 9.65778C26.4771 9.5043 26.3813 9.37329 26.26 9.26478C26.015 9.01984 25.6816 8.89737 25.2598 8.89737ZM25.1577 12.1838C24.8175 12.1838 24.5384 12.2859 24.3208 12.49C24.1167 12.6941 24.0146 12.9527 24.0146 13.2657C24.0146 13.5106 24.103 13.7215 24.28 13.8985C24.4568 14.0754 24.6882 14.1638 24.974 14.1638C25.5036 14.1638 26.0173 13.9615 26.515 13.5569C26.6422 13.4535 26.7091 13.295 26.7091 13.131L26.7091 12.7726C26.7091 12.4474 26.4455 12.1838 26.1203 12.1838L25.1577 12.1838ZM32.2992 9.77193C32.2992 9.44677 32.0356 9.18312 31.7104 9.18312L31.2958 9.18312C30.9706 9.18312 30.707 8.91951 30.707 8.59431L30.707 7.2816C30.707 6.95639 30.9706 6.69279 31.2958 6.69279L31.7104 6.69279C32.0356 6.69279 32.2992 6.42913 32.2992 6.10393L32.2992 5.85587C32.2992 4.65827 32.694 3.71926 33.4832 3.03889C34.2861 2.35851 35.3068 2.01825 36.5451 2.01825C36.9398 2.01825 37.3685 2.0999 37.8311 2.2632C38.1117 2.35135 38.3521 2.44897 38.5524 2.55604C38.7794 2.67744 38.8461 2.95595 38.7478 3.19394L38.2391 4.42625C38.1074 4.74508 37.7318 4.87483 37.399 4.7839C37.1756 4.72285 36.9522 4.69234 36.7288 4.69234C36.3342 4.69234 36.028 4.83519 35.8102 5.12099C35.5926 5.3931 35.4836 5.76743 35.4836 6.24371C35.4836 6.49173 35.6847 6.69279 35.9327 6.69279L37.325 6.69279C37.5977 6.69279 37.8347 6.88006 37.8978 7.14543L38.2099 8.45814C38.2978 8.82809 38.0173 9.18312 37.637 9.18312L36.0724 9.18312C35.7472 9.18312 35.4836 9.44677 35.4836 9.77193L35.4836 20.4745C35.4836 20.7997 35.22 21.0633 34.8948 21.0633L32.8881 21.0633C32.5629 21.0633 32.2992 20.7997 32.2992 20.4745L32.2992 9.77193ZM40.3233 9.77193C40.3233 9.44677 40.0597 9.18312 39.7345 9.18312L39.3199 9.18312C38.9947 9.18312 38.7311 8.91951 38.7311 8.59431L38.7311 7.2816C38.7311 6.95639 38.9947 6.69279 39.3199 6.69279L39.7345 6.69279C40.0597 6.69279 40.3233 6.42913 40.3233 6.10393L40.3233 5.85587C40.3233 4.65827 40.7179 3.71926 41.5073 3.03889C42.3101 2.35851 43.3307 2.01825 44.5691 2.01825C44.9637 2.01825 45.3926 2.0999 45.8554 2.2632C46.1356 2.35136 46.376 2.44898 46.5766 2.55606C46.8035 2.67745 46.8699 2.95595 46.7719 3.19394L46.263 4.42634C46.1315 4.74513 45.7559 4.87487 45.4233 4.78395C45.1996 4.72285 44.9764 4.69234 44.7529 4.69234C44.3581 4.69234 44.0519 4.83519 43.8343 5.12099C43.6165 5.3931 43.5077 5.76743 43.5077 6.24371C43.5077 6.49173 43.7088 6.69279 43.9568 6.69279L45.3492 6.69279C45.6217 6.69279 45.859 6.88006 45.9218 7.14544L46.2341 8.45814C46.3218 8.82809 46.0416 9.18312 45.661 9.18312L44.0965 9.18312C43.7713 9.18312 43.5077 9.44677 43.5077 9.77193L43.5077 20.4745C43.5077 20.7997 43.2441 21.0633 42.9189 21.0633L40.9121 21.0633C40.5869 21.0633 40.3233 20.7997 40.3233 20.4745L40.3233 9.77193Z" stroke="#555555" stroke-width="3.96174" mask="url(#path-4-outside-2_718_30954)"/>
<path fill-rule="evenodd" clip-rule="evenodd" d="M51.1237 2.00146C51.4645 1.97744 51.7542 2.24732 51.7542 2.58883L51.7542 15.7796C51.7542 16.1048 51.4903 16.3684 51.1653 16.3684L49.1583 16.3684C48.8334 16.3684 48.5695 16.1048 48.5695 15.7796L48.5695 9.275L48.5695 2.73033C48.5695 2.4212 48.8085 2.1647 49.1172 2.14296L51.1237 2.00146ZM58.2501 6.16205C59.2575 6.16205 60.108 6.39335 60.8017 6.85607C61.4959 7.3188 62.0133 7.93794 62.3532 8.71362C62.707 9.4893 62.8842 10.3603 62.8842 11.3265L62.8842 11.697C62.8842 12.0223 62.6203 12.2859 62.2953 12.2859L57.2961 12.2859C56.9111 12.2859 56.6241 12.6584 56.8284 12.9849C57.2604 13.6756 58.0337 14.0209 59.1486 14.0209C59.8857 14.0209 60.6187 13.8616 61.3472 13.5429C61.6721 13.4009 62.0626 13.536 62.195 13.8648L62.6722 15.0464C62.7726 15.2958 62.6935 15.585 62.4612 15.7212C62.077 15.947 61.6324 16.1356 61.1285 16.2868C60.4619 16.4909 59.727 16.593 58.924 16.593C57.114 16.593 55.685 16.1371 54.6375 15.2253C53.603 14.3135 53.086 13.0479 53.086 11.4285C53.086 10.3671 53.3038 9.44176 53.739 8.65238C54.1747 7.84954 54.7803 7.23718 55.5558 6.81526C56.3453 6.37983 57.2433 6.16205 58.2501 6.16205ZM58.1688 8.79528C57.7196 8.79528 57.3386 8.95183 57.0255 9.26478C56.865 9.42522 56.7398 9.61494 56.6499 9.83394C56.5166 10.1579 56.8004 10.4691 57.1506 10.4691L59.1504 10.4691C59.5133 10.4691 59.7989 10.1374 59.6507 9.80624C59.5576 9.59889 59.4378 9.41844 59.2914 9.26478C59.0193 8.95183 58.6452 8.79528 58.1688 8.79528Z" fill="#FFC71E"/>
<mask id="path-6-outside-3_718_30954" maskUnits="userSpaceOnUse" x="0.000610071" y="0.614197" width="23" height="18" fill="black">
<rect fill="white" x="0.000610071" y="0.614197" width="23" height="18"/>
<path d="M11.2312 7.56178L9.44643 15.986C9.38899 16.2573 9.14952 16.4514 8.87222 16.4514L6.20554 16.4514C5.94551 16.4514 5.71647 16.2803 5.64272 16.0309L2.02495 3.80273C1.92551 3.46662 2.14089 3.11885 2.48609 3.0581L4.44945 2.71263C4.76124 2.65776 5.06041 2.86005 5.12558 3.16987L6.67293 10.524C6.80588 11.1559 7.71303 11.1411 7.82533 10.5052L9.13375 3.09907C9.18328 2.81862 9.427 2.6142 9.71181 2.6142L12.7506 2.61423C13.0354 2.61423 13.2791 2.81865 13.3286 3.0991L14.637 10.5053C14.7494 11.1411 15.6565 11.1559 15.7894 10.524L17.3368 3.1699C17.402 2.86009 17.7011 2.65779 18.0129 2.71266L19.9762 3.05814C20.3215 3.11888 20.5369 3.46665 20.4374 3.80276L16.8196 16.031C16.7459 16.2803 16.5168 16.4514 16.2568 16.4514L13.5901 16.4514C13.3128 16.4514 13.0734 16.2573 13.0159 15.9861L11.2312 7.56178Z"/>
</mask>
<path d="M11.2312 7.56178L9.44643 15.986C9.38899 16.2573 9.14952 16.4514 8.87222 16.4514L6.20554 16.4514C5.94551 16.4514 5.71647 16.2803 5.64272 16.0309L2.02495 3.80273C1.92551 3.46662 2.14089 3.11885 2.48609 3.0581L4.44945 2.71263C4.76124 2.65776 5.06041 2.86005 5.12558 3.16987L6.67293 10.524C6.80588 11.1559 7.71303 11.1411 7.82533 10.5052L9.13375 3.09907C9.18328 2.81862 9.427 2.6142 9.71181 2.6142L12.7506 2.61423C13.0354 2.61423 13.2791 2.81865 13.3286 3.0991L14.637 10.5053C14.7494 11.1411 15.6565 11.1559 15.7894 10.524L17.3368 3.1699C17.402 2.86009 17.7011 2.65779 18.0129 2.71266L19.9762 3.05814C20.3215 3.11888 20.5369 3.46665 20.4374 3.80276L16.8196 16.031C16.7459 16.2803 16.5168 16.4514 16.2568 16.4514L13.5901 16.4514C13.3128 16.4514 13.0734 16.2573 13.0159 15.9861L11.2312 7.56178Z" fill="#FFC71E"/>
<path d="M11.2312 7.56178L9.44643 15.986C9.38899 16.2573 9.14952 16.4514 8.87222 16.4514L6.20554 16.4514C5.94551 16.4514 5.71647 16.2803 5.64272 16.0309L2.02495 3.80273C1.92551 3.46662 2.14089 3.11885 2.48609 3.0581L4.44945 2.71263C4.76124 2.65776 5.06041 2.86005 5.12558 3.16987L6.67293 10.524C6.80588 11.1559 7.71303 11.1411 7.82533 10.5052L9.13375 3.09907C9.18328 2.81862 9.427 2.6142 9.71181 2.6142L12.7506 2.61423C13.0354 2.61423 13.2791 2.81865 13.3286 3.0991L14.637 10.5053C14.7494 11.1411 15.6565 11.1559 15.7894 10.524L17.3368 3.1699C17.402 2.86009 17.7011 2.65779 18.0129 2.71266L19.9762 3.05814C20.3215 3.11888 20.5369 3.46665 20.4374 3.80276L16.8196 16.031C16.7459 16.2803 16.5168 16.4514 16.2568 16.4514L13.5901 16.4514C13.3128 16.4514 13.0734 16.2573 13.0159 15.9861L11.2312 7.56178Z" stroke="#555555" stroke-width="3.96174" mask="url(#path-6-outside-3_718_30954)"/>
<circle cx="86.5846" cy="13.5011" r="1.69085" fill="#555555"/>
<mask id="path-8-outside-4_718_30954" maskUnits="userSpaceOnUse" x="99.2351" y="1.38986" width="24" height="23" fill="black">
<rect fill="white" x="99.2351" y="1.38986" width="24" height="23"/>
<path d="M106.792 6.52397C106.467 6.52397 106.203 6.26032 106.203 5.93516L106.203 3.97882C106.203 3.61793 105.882 3.34196 105.525 3.39684L103.273 3.74324C102.986 3.78744 102.774 4.0346 102.774 4.32522L102.774 5.93516C102.774 6.26032 102.51 6.52397 102.185 6.52397L101.824 6.52397C101.499 6.52397 101.235 6.78758 101.235 7.11278L101.235 8.61706C101.235 8.94227 101.499 9.20588 101.824 9.20588L102.185 9.20588C102.51 9.20588 102.774 9.46953 102.774 9.79473L102.774 13.2288C102.774 14.5184 103.206 15.515 104.071 16.2184C104.935 16.9219 106.042 17.2736 107.39 17.2736C107.83 17.2736 108.306 17.1931 108.819 17.0318C109.126 16.9354 109.385 16.8312 109.598 16.719C109.827 16.5983 109.895 16.319 109.796 16.0798L109.218 14.6786C109.086 14.3598 108.711 14.2292 108.38 14.3257C108.123 14.4004 107.867 14.4378 107.61 14.4378C107.171 14.4378 106.826 14.2839 106.577 13.9762C106.328 13.6684 106.203 13.2653 106.203 12.7671L106.203 9.79473C106.203 9.46953 106.467 9.20588 106.792 9.20588L108.454 9.20588C108.832 9.20588 109.112 8.85414 109.028 8.48533L108.682 6.98109C108.621 6.7136 108.383 6.52397 108.108 6.52397L106.792 6.52397Z"/>
<path d="M121.032 7.08653C121.184 6.70022 120.899 6.28215 120.484 6.28215L118.27 6.28215C118.02 6.28215 117.798 6.43978 117.714 6.67541L116.216 10.9304C116.031 11.4567 115.286 11.4541 115.104 10.9266L113.551 6.41664C113.449 6.11972 113.132 5.95531 112.83 6.0429L110.732 6.65259C110.4 6.74889 110.222 7.10854 110.347 7.43053L113.988 16.8413C114.015 16.9091 114.028 16.9812 114.028 17.0538L114.028 21.4112C114.028 21.7364 114.292 22 114.617 22L116.583 22C116.908 22 117.172 21.7364 117.172 21.4112L117.172 17.0116C117.172 16.9378 117.185 16.8647 117.212 16.796L121.032 7.08653Z"/>
</mask>
<path d="M106.792 6.52397C106.467 6.52397 106.203 6.26032 106.203 5.93516L106.203 3.97882C106.203 3.61793 105.882 3.34196 105.525 3.39684L103.273 3.74324C102.986 3.78744 102.774 4.0346 102.774 4.32522L102.774 5.93516C102.774 6.26032 102.51 6.52397 102.185 6.52397L101.824 6.52397C101.499 6.52397 101.235 6.78758 101.235 7.11278L101.235 8.61706C101.235 8.94227 101.499 9.20588 101.824 9.20588L102.185 9.20588C102.51 9.20588 102.774 9.46953 102.774 9.79473L102.774 13.2288C102.774 14.5184 103.206 15.515 104.071 16.2184C104.935 16.9219 106.042 17.2736 107.39 17.2736C107.83 17.2736 108.306 17.1931 108.819 17.0318C109.126 16.9354 109.385 16.8312 109.598 16.719C109.827 16.5983 109.895 16.319 109.796 16.0798L109.218 14.6786C109.086 14.3598 108.711 14.2292 108.38 14.3257C108.123 14.4004 107.867 14.4378 107.61 14.4378C107.171 14.4378 106.826 14.2839 106.577 13.9762C106.328 13.6684 106.203 13.2653 106.203 12.7671L106.203 9.79473C106.203 9.46953 106.467 9.20588 106.792 9.20588L108.454 9.20588C108.832 9.20588 109.112 8.85414 109.028 8.48533L108.682 6.98109C108.621 6.7136 108.383 6.52397 108.108 6.52397L106.792 6.52397Z" fill="#FFC71E"/>
<path d="M121.032 7.08653C121.184 6.70022 120.899 6.28215 120.484 6.28215L118.27 6.28215C118.02 6.28215 117.798 6.43978 117.714 6.67541L116.216 10.9304C116.031 11.4567 115.286 11.4541 115.104 10.9266L113.551 6.41664C113.449 6.11972 113.132 5.95531 112.83 6.0429L110.732 6.65259C110.4 6.74889 110.222 7.10854 110.347 7.43053L113.988 16.8413C114.015 16.9091 114.028 16.9812 114.028 17.0538L114.028 21.4112C114.028 21.7364 114.292 22 114.617 22L116.583 22C116.908 22 117.172 21.7364 117.172 21.4112L117.172 17.0116C117.172 16.9378 117.185 16.8647 117.212 16.796L121.032 7.08653Z" fill="#FFC71E"/>
<path d="M106.792 6.52397C106.467 6.52397 106.203 6.26032 106.203 5.93516L106.203 3.97882C106.203 3.61793 105.882 3.34196 105.525 3.39684L103.273 3.74324C102.986 3.78744 102.774 4.0346 102.774 4.32522L102.774 5.93516C102.774 6.26032 102.51 6.52397 102.185 6.52397L101.824 6.52397C101.499 6.52397 101.235 6.78758 101.235 7.11278L101.235 8.61706C101.235 8.94227 101.499 9.20588 101.824 9.20588L102.185 9.20588C102.51 9.20588 102.774 9.46953 102.774 9.79473L102.774 13.2288C102.774 14.5184 103.206 15.515 104.071 16.2184C104.935 16.9219 106.042 17.2736 107.39 17.2736C107.83 17.2736 108.306 17.1931 108.819 17.0318C109.126 16.9354 109.385 16.8312 109.598 16.719C109.827 16.5983 109.895 16.319 109.796 16.0798L109.218 14.6786C109.086 14.3598 108.711 14.2292 108.38 14.3257C108.123 14.4004 107.867 14.4378 107.61 14.4378C107.171 14.4378 106.826 14.2839 106.577 13.9762C106.328 13.6684 106.203 13.2653 106.203 12.7671L106.203 9.79473C106.203 9.46953 106.467 9.20588 106.792 9.20588L108.454 9.20588C108.832 9.20588 109.112 8.85414 109.028 8.48533L108.682 6.98109C108.621 6.7136 108.383 6.52397 108.108 6.52397L106.792 6.52397Z" stroke="#555555" stroke-width="3.96174" mask="url(#path-8-outside-4_718_30954)"/>
<path d="M121.032 7.08653C121.184 6.70022 120.899 6.28215 120.484 6.28215L118.27 6.28215C118.02 6.28215 117.798 6.43978 117.714 6.67541L116.216 10.9304C116.031 11.4567 115.286 11.4541 115.104 10.9266L113.551 6.41664C113.449 6.11972 113.132 5.95531 112.83 6.0429L110.732 6.65259C110.4 6.74889 110.222 7.10854 110.347 7.43053L113.988 16.8413C114.015 16.9091 114.028 16.9812 114.028 17.0538L114.028 21.4112C114.028 21.7364 114.292 22 114.617 22L116.583 22C116.908 22 117.172 21.7364 117.172 21.4112L117.172 17.0116C117.172 16.9378 117.185 16.8647 117.212 16.796L121.032 7.08653Z" stroke="#555555" stroke-width="3.96174" mask="url(#path-8-outside-4_718_30954)"/>
<mask id="path-9-outside-5_718_30954" maskUnits="userSpaceOnUse" x="67.6799" y="-3.05526e-05" width="35" height="20" fill="black">
<rect fill="white" x="67.6799" y="-3.05526e-05" width="35" height="20"/>
<path d="M73.698 12.1781C73.3728 12.1781 73.1092 12.4417 73.1092 12.7669L73.1092 16.3596C73.1092 16.6848 72.8456 16.9484 72.5204 16.9484L70.2688 16.9484C69.9436 16.9484 69.6799 16.6848 69.6799 16.3596L69.6799 2.5888C69.6799 2.2636 69.9436 1.99997 70.2688 1.99997L75.1976 1.99997C76.3261 1.99997 77.3447 2.19043 78.2532 2.57152C79.1619 2.93785 79.8801 3.50219 80.4077 4.26423C80.9499 5.02622 81.2211 5.97151 81.2211 7.10001C81.2211 8.21378 80.9353 9.1518 80.3636 9.91383C79.792 10.6759 79.03 11.2474 78.0773 11.6285C77.1395 11.9948 76.1136 12.1781 74.9997 12.1781L73.698 12.1781ZM77.6377 7.18796C77.6377 6.39655 77.4107 5.79562 76.9562 5.38536C76.5166 4.97506 75.8938 4.76984 75.0877 4.76984L73.698 4.76984C73.3728 4.76984 73.1092 5.03345 73.1092 5.35865L73.1092 8.84137C73.1092 9.16657 73.3728 9.43023 73.698 9.43023L75.1316 9.43023C75.8644 9.43023 76.458 9.23238 76.9122 8.83667C77.3813 8.42637 77.6231 7.87678 77.6377 7.18796ZM86.3404 8.90261C85.9153 8.90261 85.4317 8.96859 84.8895 9.10046C84.5945 9.17222 84.319 9.25271 84.0629 9.34183C83.7344 9.45621 83.361 9.29944 83.246 8.97103L82.7026 7.41812C82.6073 7.14593 82.7227 6.8426 82.9891 6.73214C83.4107 6.55739 83.927 6.40156 84.5378 6.26467C85.3878 6.05945 86.1499 5.95691 86.824 5.95691C87.7179 5.95691 88.5093 6.13276 89.1982 6.48449C89.887 6.83622 90.4146 7.33443 90.7809 7.97932C91.1621 8.60944 91.3525 9.33492 91.3525 10.1557L91.3525 16.3596C91.3525 16.6848 91.0889 16.9484 90.7637 16.9484L89.7403 16.9484C89.5517 16.9484 89.3744 16.858 89.2637 16.7053L89.0612 16.4263C88.8389 16.1198 88.391 16.1034 88.1044 16.3509C87.4561 16.9104 86.7582 17.1902 86.0107 17.1902C84.721 17.1902 83.7464 16.8751 83.0869 16.2449C82.4274 15.6 82.0977 14.7281 82.0977 13.629C82.0977 12.5444 82.464 11.731 83.1968 11.1888C83.9297 10.6466 84.9335 10.3755 86.2085 10.3755L87.2524 10.3755C87.592 10.3755 87.8777 10.0791 87.7465 9.76574C87.6694 9.58131 87.5597 9.42553 87.4176 9.29831C87.1538 9.03452 86.7947 8.90261 86.3404 8.90261ZM86.2305 12.4419C85.8641 12.4419 85.5636 12.5518 85.3292 12.7716C85.1093 12.9914 84.9994 13.2698 84.9994 13.607C84.9994 13.8708 85.0947 14.098 85.2852 14.2884C85.4757 14.4789 85.7249 14.5742 86.0326 14.5742C86.6085 14.5742 87.1667 14.3522 87.7075 13.9081C87.8342 13.804 87.9012 13.6457 87.9012 13.4818L87.9012 13.0307C87.9012 12.7055 87.6375 12.4419 87.3124 12.4419L86.2305 12.4419ZM99.9394 8.30394C100.031 8.67533 99.7481 9.04004 99.3749 9.1245C99.0541 9.19713 98.7091 9.31368 98.3399 9.4742C97.7658 9.71652 97.2417 10.0257 96.7675 10.4014C96.6331 10.5078 96.5594 10.6719 96.5594 10.8434L96.5594 16.3596C96.5594 16.6848 96.2957 16.9484 95.9705 16.9484L93.6968 16.9484C93.3717 16.9484 93.108 16.6848 93.108 16.3596L93.108 6.89746C93.108 6.57225 93.3717 6.30865 93.6968 6.30865L94.5438 6.30865C94.7449 6.30865 94.9321 6.41128 95.0403 6.58089L95.4877 7.2825C95.6737 7.57417 96.0693 7.6421 96.3594 7.45369C96.7411 7.20585 97.1595 6.97804 97.6145 6.77029C98.1047 6.53592 98.56 6.38669 98.9804 6.3227C99.2479 6.28194 99.4848 6.47107 99.55 6.73373L99.9394 8.30394Z"/>
</mask>
<path d="M73.698 12.1781C73.3728 12.1781 73.1092 12.4417 73.1092 12.7669L73.1092 16.3596C73.1092 16.6848 72.8456 16.9484 72.5204 16.9484L70.2688 16.9484C69.9436 16.9484 69.6799 16.6848 69.6799 16.3596L69.6799 2.5888C69.6799 2.2636 69.9436 1.99997 70.2688 1.99997L75.1976 1.99997C76.3261 1.99997 77.3447 2.19043 78.2532 2.57152C79.1619 2.93785 79.8801 3.50219 80.4077 4.26423C80.9499 5.02622 81.2211 5.97151 81.2211 7.10001C81.2211 8.21378 80.9353 9.1518 80.3636 9.91383C79.792 10.6759 79.03 11.2474 78.0773 11.6285C77.1395 11.9948 76.1136 12.1781 74.9997 12.1781L73.698 12.1781ZM77.6377 7.18796C77.6377 6.39655 77.4107 5.79562 76.9562 5.38536C76.5166 4.97506 75.8938 4.76984 75.0877 4.76984L73.698 4.76984C73.3728 4.76984 73.1092 5.03345 73.1092 5.35865L73.1092 8.84137C73.1092 9.16657 73.3728 9.43023 73.698 9.43023L75.1316 9.43023C75.8644 9.43023 76.458 9.23238 76.9122 8.83667C77.3813 8.42637 77.6231 7.87678 77.6377 7.18796ZM86.3404 8.90261C85.9153 8.90261 85.4317 8.96859 84.8895 9.10046C84.5945 9.17222 84.319 9.25271 84.0629 9.34183C83.7344 9.45621 83.361 9.29944 83.246 8.97103L82.7026 7.41812C82.6073 7.14593 82.7227 6.8426 82.9891 6.73214C83.4107 6.55739 83.927 6.40156 84.5378 6.26467C85.3878 6.05945 86.1499 5.95691 86.824 5.95691C87.7179 5.95691 88.5093 6.13276 89.1982 6.48449C89.887 6.83622 90.4146 7.33443 90.7809 7.97932C91.1621 8.60944 91.3525 9.33492 91.3525 10.1557L91.3525 16.3596C91.3525 16.6848 91.0889 16.9484 90.7637 16.9484L89.7403 16.9484C89.5517 16.9484 89.3744 16.858 89.2637 16.7053L89.0612 16.4263C88.8389 16.1198 88.391 16.1034 88.1044 16.3509C87.4561 16.9104 86.7582 17.1902 86.0107 17.1902C84.721 17.1902 83.7464 16.8751 83.0869 16.2449C82.4274 15.6 82.0977 14.7281 82.0977 13.629C82.0977 12.5444 82.464 11.731 83.1968 11.1888C83.9297 10.6466 84.9335 10.3755 86.2085 10.3755L87.2524 10.3755C87.592 10.3755 87.8777 10.0791 87.7465 9.76574C87.6694 9.58131 87.5597 9.42553 87.4176 9.29831C87.1538 9.03452 86.7947 8.90261 86.3404 8.90261ZM86.2305 12.4419C85.8641 12.4419 85.5636 12.5518 85.3292 12.7716C85.1093 12.9914 84.9994 13.2698 84.9994 13.607C84.9994 13.8708 85.0947 14.098 85.2852 14.2884C85.4757 14.4789 85.7249 14.5742 86.0326 14.5742C86.6085 14.5742 87.1667 14.3522 87.7075 13.9081C87.8342 13.804 87.9012 13.6457 87.9012 13.4818L87.9012 13.0307C87.9012 12.7055 87.6375 12.4419 87.3124 12.4419L86.2305 12.4419ZM99.9394 8.30394C100.031 8.67533 99.7481 9.04004 99.3749 9.1245C99.0541 9.19713 98.7091 9.31368 98.3399 9.4742C97.7658 9.71652 97.2417 10.0257 96.7675 10.4014C96.6331 10.5078 96.5594 10.6719 96.5594 10.8434L96.5594 16.3596C96.5594 16.6848 96.2957 16.9484 95.9705 16.9484L93.6968 16.9484C93.3717 16.9484 93.108 16.6848 93.108 16.3596L93.108 6.89746C93.108 6.57225 93.3717 6.30865 93.6968 6.30865L94.5438 6.30865C94.7449 6.30865 94.9321 6.41128 95.0403 6.58089L95.4877 7.2825C95.6737 7.57417 96.0693 7.6421 96.3594 7.45369C96.7411 7.20585 97.1595 6.97804 97.6145 6.77029C98.1047 6.53592 98.56 6.38669 98.9804 6.3227C99.2479 6.28194 99.4848 6.47107 99.55 6.73373L99.9394 8.30394Z" fill="#FFC71E"/>
<path d="M73.698 12.1781C73.3728 12.1781 73.1092 12.4417 73.1092 12.7669L73.1092 16.3596C73.1092 16.6848 72.8456 16.9484 72.5204 16.9484L70.2688 16.9484C69.9436 16.9484 69.6799 16.6848 69.6799 16.3596L69.6799 2.5888C69.6799 2.2636 69.9436 1.99997 70.2688 1.99997L75.1976 1.99997C76.3261 1.99997 77.3447 2.19043 78.2532 2.57152C79.1619 2.93785 79.8801 3.50219 80.4077 4.26423C80.9499 5.02622 81.2211 5.97151 81.2211 7.10001C81.2211 8.21378 80.9353 9.1518 80.3636 9.91383C79.792 10.6759 79.03 11.2474 78.0773 11.6285C77.1395 11.9948 76.1136 12.1781 74.9997 12.1781L73.698 12.1781ZM77.6377 7.18796C77.6377 6.39655 77.4107 5.79562 76.9562 5.38536C76.5166 4.97506 75.8938 4.76984 75.0877 4.76984L73.698 4.76984C73.3728 4.76984 73.1092 5.03345 73.1092 5.35865L73.1092 8.84137C73.1092 9.16657 73.3728 9.43023 73.698 9.43023L75.1316 9.43023C75.8644 9.43023 76.458 9.23238 76.9122 8.83667C77.3813 8.42637 77.6231 7.87678 77.6377 7.18796ZM86.3404 8.90261C85.9153 8.90261 85.4317 8.96859 84.8895 9.10046C84.5945 9.17222 84.319 9.25271 84.0629 9.34183C83.7344 9.45621 83.361 9.29944 83.246 8.97103L82.7026 7.41812C82.6073 7.14593 82.7227 6.8426 82.9891 6.73214C83.4107 6.55739 83.927 6.40156 84.5378 6.26467C85.3878 6.05945 86.1499 5.95691 86.824 5.95691C87.7179 5.95691 88.5093 6.13276 89.1982 6.48449C89.887 6.83622 90.4146 7.33443 90.7809 7.97932C91.1621 8.60944 91.3525 9.33492 91.3525 10.1557L91.3525 16.3596C91.3525 16.6848 91.0889 16.9484 90.7637 16.9484L89.7403 16.9484C89.5517 16.9484 89.3744 16.858 89.2637 16.7053L89.0612 16.4263C88.8389 16.1198 88.391 16.1034 88.1044 16.3509C87.4561 16.9104 86.7582 17.1902 86.0107 17.1902C84.721 17.1902 83.7464 16.8751 83.0869 16.2449C82.4274 15.6 82.0977 14.7281 82.0977 13.629C82.0977 12.5444 82.464 11.731 83.1968 11.1888C83.9297 10.6466 84.9335 10.3755 86.2085 10.3755L87.2524 10.3755C87.592 10.3755 87.8777 10.0791 87.7465 9.76574C87.6694 9.58131 87.5597 9.42553 87.4176 9.29831C87.1538 9.03452 86.7947 8.90261 86.3404 8.90261ZM86.2305 12.4419C85.8641 12.4419 85.5636 12.5518 85.3292 12.7716C85.1093 12.9914 84.9994 13.2698 84.9994 13.607C84.9994 13.8708 85.0947 14.098 85.2852 14.2884C85.4757 14.4789 85.7249 14.5742 86.0326 14.5742C86.6085 14.5742 87.1667 14.3522 87.7075 13.9081C87.8342 13.804 87.9012 13.6457 87.9012 13.4818L87.9012 13.0307C87.9012 12.7055 87.6375 12.4419 87.3124 12.4419L86.2305 12.4419ZM99.9394 8.30394C100.031 8.67533 99.7481 9.04004 99.3749 9.1245C99.0541 9.19713 98.7091 9.31368 98.3399 9.4742C97.7658 9.71652 97.2417 10.0257 96.7675 10.4014C96.6331 10.5078 96.5594 10.6719 96.5594 10.8434L96.5594 16.3596C96.5594 16.6848 96.2957 16.9484 95.9705 16.9484L93.6968 16.9484C93.3717 16.9484 93.108 16.6848 93.108 16.3596L93.108 6.89746C93.108 6.57225 93.3717 6.30865 93.6968 6.30865L94.5438 6.30865C94.7449 6.30865 94.9321 6.41128 95.0403 6.58089L95.4877 7.2825C95.6737 7.57417 96.0693 7.6421 96.3594 7.45369C96.7411 7.20585 97.1595 6.97804 97.6145 6.77029C98.1047 6.53592 98.56 6.38669 98.9804 6.3227C99.2479 6.28194 99.4848 6.47107 99.55 6.73373L99.9394 8.30394Z" stroke="#555555" stroke-width="3.96174" mask="url(#path-9-outside-5_718_30954)"/>
<circle cx="75.3736" cy="7.02758" r="1.69085" fill="#555555"/>
<path d="M106.792 6.52397C106.467 6.52397 106.203 6.26032 106.203 5.93516L106.203 3.97882C106.203 3.61793 105.882 3.34196 105.525 3.39684L103.273 3.74324C102.986 3.78744 102.774 4.0346 102.774 4.32522L102.774 5.93516C102.774 6.26032 102.51 6.52397 102.185 6.52397L101.824 6.52397C101.499 6.52397 101.235 6.78758 101.235 7.11278L101.235 8.61706C101.235 8.94227 101.499 9.20588 101.824 9.20588L102.185 9.20588C102.51 9.20588 102.774 9.46953 102.774 9.79473L102.774 13.2288C102.774 14.5184 103.206 15.515 104.071 16.2184C104.935 16.9219 106.042 17.2736 107.39 17.2736C107.83 17.2736 108.306 17.1931 108.819 17.0318C109.126 16.9354 109.385 16.8312 109.598 16.719C109.827 16.5983 109.895 16.319 109.796 16.0798L109.218 14.6786C109.086 14.3598 108.711 14.2292 108.38 14.3257C108.123 14.4004 107.867 14.4378 107.61 14.4378C107.171 14.4378 106.826 14.2839 106.577 13.9762C106.328 13.6684 106.203 13.2653 106.203 12.7671L106.203 9.79473C106.203 9.46953 106.467 9.20588 106.792 9.20588L108.454 9.20588C108.832 9.20588 109.112 8.85414 109.028 8.48533L108.682 6.98109C108.621 6.7136 108.383 6.52397 108.108 6.52397L106.792 6.52397Z" fill="#FFC71E"/>
<path d="M121.032 7.08653C121.184 6.70022 120.899 6.28215 120.484 6.28215L118.27 6.28215C118.02 6.28215 117.798 6.43978 117.714 6.67541L116.216 10.9304C116.031 11.4567 115.286 11.4541 115.104 10.9266L113.551 6.41664C113.449 6.11972 113.132 5.95531 112.83 6.0429L110.732 6.65259C110.4 6.74889 110.222 7.10854 110.347 7.43053L113.988 16.8413C114.015 16.9091 114.028 16.9812 114.028 17.0538L114.028 21.4112C114.028 21.7364 114.292 22 114.617 22L116.583 22C116.908 22 117.172 21.7364 117.172 21.4112L117.172 17.0116C117.172 16.9378 117.185 16.8647 117.212 16.796L121.032 7.08653Z" fill="#FFC71E"/>
</svg>
