<svg width="16" height="16" viewBox="0 0 16 16" fill="none" xmlns="http://www.w3.org/2000/svg">
<g id="photo-image-picture 1" clip-path="url(#clip0_248_6640)">
<g id="Group">
<path id="Vector" d="M2.39996 15.1994L11.2 6.39941L15.2 10.3994" stroke="#BDBDBD" stroke-width="2" stroke-linecap="round" stroke-linejoin="round"/>
<path id="Vector_2" d="M13.6 0.799805H2.39999C1.51633 0.799805 0.799988 1.51615 0.799988 2.3998V13.5998C0.799988 14.4835 1.51633 15.1998 2.39999 15.1998H13.6C14.4836 15.1998 15.2 14.4835 15.2 13.5998V2.3998C15.2 1.51615 14.4836 0.799805 13.6 0.799805Z" stroke="#BDBDBD" stroke-width="2" stroke-linecap="round" stroke-linejoin="round"/>
<path id="Vector_3" d="M5.2 6.4C5.86274 6.4 6.4 5.86274 6.4 5.2C6.4 4.53726 5.86274 4 5.2 4C4.53726 4 4 4.53726 4 5.2C4 5.86274 4.53726 6.4 5.2 6.4Z" stroke="#BDBDBD" stroke-width="2" stroke-linecap="round" stroke-linejoin="round"/>
</g>
</g>
<defs>
<clipPath id="clip0_248_6640">
<rect width="16" height="16" fill="white"/>
</clipPath>
</defs>
</svg>
