<svg width="19" height="19" viewBox="0 0 19 19" fill="none" xmlns="http://www.w3.org/2000/svg">
<g id="kakao-talk-fill 1" clip-path="url(#clip0_122_6048)">
<path id="Vector" d="M9.5 2C14.1944 2 18 4.84783 18 8.36176C18 11.8749 14.1944 14.7227 9.5 14.7227C9.03256 14.723 8.56558 14.6944 8.10195 14.6372L4.53357 16.878C4.128 17.084 3.98471 17.0615 4.15148 16.557L4.87357 13.6983C2.54214 12.5636 1 10.5971 1 8.36176C1 4.84861 4.80557 2 9.5 2ZM14.2819 8.2646L15.4719 7.1578C15.5405 7.08934 15.5788 6.99795 15.5787 6.9029C15.5786 6.80785 15.5401 6.71656 15.4712 6.64825C15.4024 6.57994 15.3086 6.53995 15.2097 6.5367C15.1107 6.53345 15.0143 6.5672 14.9408 6.63083L13.38 8.08117V6.88266C13.38 6.78536 13.3398 6.69205 13.2681 6.62325C13.1965 6.55445 13.0993 6.5158 12.998 6.5158C12.8966 6.5158 12.7994 6.55445 12.7278 6.62325C12.6561 6.69205 12.6159 6.78536 12.6159 6.88266V8.87008C12.6015 8.92677 12.6015 8.98593 12.6159 9.04263V10.1611C12.6159 10.2584 12.6561 10.3517 12.7278 10.4205C12.7994 10.4893 12.8966 10.5279 12.998 10.5279C13.0993 10.5279 13.1965 10.4893 13.2681 10.4205C13.3398 10.3517 13.38 10.2584 13.38 10.1611V9.1017L13.7257 8.78069L14.8817 10.3608C14.9106 10.4003 14.9472 10.4339 14.9896 10.4597C15.032 10.4856 15.0793 10.5031 15.1288 10.5114C15.1782 10.5197 15.2289 10.5186 15.2779 10.5081C15.3269 10.4976 15.3733 10.4779 15.4144 10.4502C15.4555 10.4225 15.4905 10.3873 15.5174 10.3466C15.5443 10.3059 15.5626 10.2605 15.5712 10.213C15.5799 10.1655 15.5787 10.1169 15.5678 10.0698C15.5568 10.0228 15.5363 9.97824 15.5075 9.93879L14.2819 8.26383V8.2646ZM11.8873 9.76003H10.7054V6.89432C10.7009 6.80004 10.6587 6.71107 10.5876 6.64589C10.5165 6.58071 10.422 6.54434 10.3237 6.54434C10.2254 6.54434 10.1309 6.58071 10.0598 6.64589C9.98871 6.71107 9.94652 6.80004 9.942 6.89432V10.1269C9.942 10.329 10.112 10.4937 10.3233 10.4937H11.8873C11.9886 10.4937 12.0858 10.4551 12.1575 10.3863C12.2291 10.3175 12.2694 10.2242 12.2694 10.1269C12.2694 10.0296 12.2291 9.93628 12.1575 9.86748C12.0858 9.79868 11.9886 9.76003 11.8873 9.76003ZM7.14591 8.91127L7.70933 7.58451L8.22581 8.91127H7.14591ZM9.18833 9.29057L9.18995 9.27813C9.18976 9.18571 9.15301 9.09681 9.08714 9.02941L8.24038 6.85313C8.20489 6.74942 8.13727 6.65858 8.04657 6.59274C7.95587 6.52691 7.84641 6.48922 7.73281 6.48471C7.61838 6.48423 7.5065 6.51721 7.41207 6.57927C7.31764 6.64134 7.24513 6.72954 7.20419 6.83214L5.85957 9.99942C5.8406 10.044 5.83096 10.0918 5.8312 10.14C5.83145 10.1881 5.84158 10.2358 5.86101 10.2802C5.88044 10.3246 5.9088 10.365 5.94445 10.3989C5.98011 10.4328 6.02238 10.4596 6.06883 10.4778C6.11529 10.496 6.16503 10.5053 6.21521 10.505C6.26539 10.5048 6.31504 10.4951 6.3613 10.4764C6.40757 10.4578 6.44956 10.4306 6.48487 10.3963C6.52018 10.3621 6.54812 10.3215 6.5671 10.2769L6.83424 9.64499H8.50995L8.752 10.2668C8.76846 10.3133 8.79446 10.3561 8.82847 10.3928C8.86248 10.4294 8.90381 10.4591 8.95001 10.4802C8.9962 10.5012 9.04633 10.5131 9.09741 10.5152C9.14849 10.5173 9.19949 10.5096 9.24739 10.4924C9.29529 10.4752 9.33912 10.449 9.37627 10.4153C9.41342 10.3816 9.44315 10.341 9.46368 10.2961C9.48422 10.2511 9.49515 10.2027 9.49582 10.1536C9.4965 10.1045 9.48691 10.0558 9.46762 10.0103L9.18833 9.29057ZM6.4991 6.89821C6.4991 6.80104 6.45895 6.70785 6.38747 6.63907C6.31599 6.57029 6.21901 6.53155 6.11781 6.53134H3.4909C3.38957 6.53134 3.29238 6.57 3.22072 6.6388C3.14907 6.7076 3.10881 6.80091 3.10881 6.89821C3.10881 6.9955 3.14907 7.08881 3.22072 7.15761C3.29238 7.22641 3.38957 7.26507 3.4909 7.26507H4.42995V10.1689C4.42995 10.2662 4.47021 10.3595 4.54187 10.4283C4.61352 10.4971 4.71071 10.5357 4.81205 10.5357C4.91339 10.5357 5.01057 10.4971 5.08223 10.4283C5.15389 10.3595 5.19414 10.2662 5.19414 10.1689V7.26507H6.117C6.32829 7.26507 6.4991 7.10029 6.4991 6.89821Z" fill="#401D21"/>
</g>
<defs>
<clipPath id="clip0_122_6048">
<rect width="19" height="19" fill="white"/>
</clipPath>
</defs>
</svg>
