<svg width="13" height="13" viewBox="0 0 13 13" fill="none" xmlns="http://www.w3.org/2000/svg">
<path id="Vector" d="M6.5 0.5C7.67522 0.5 8.76218 0.728516 9.76088 1.18555C10.7596 1.64258 11.5491 2.26404 12.1295 3.04994C12.7098 3.83584 13 4.69308 13 5.62165C13 6.55022 12.7098 7.40867 12.1295 8.19699C11.5491 8.98531 10.7608 9.60798 9.76451 10.065C8.76823 10.522 7.68006 10.7506 6.5 10.7506C6.1276 10.7506 5.74312 10.724 5.34654 10.6708C3.62481 11.8653 2.70833 12.4699 2.5971 12.4844C2.5439 12.5037 2.49312 12.5013 2.44475 12.4771C2.42541 12.4626 2.4109 12.4433 2.40123 12.4191C2.39156 12.3949 2.38672 12.3731 2.38672 12.3538V12.3248C2.41574 12.1362 2.63579 11.3503 3.04688 9.96708C2.11347 9.50279 1.3723 8.88737 0.823382 8.12082C0.274461 7.35426 0 6.52121 0 5.62165C0 4.69308 0.290179 3.83584 0.870536 3.04994C1.45089 2.26404 2.24042 1.64258 3.23912 1.18555C4.23782 0.728516 5.32478 0.5 6.5 0.5Z" fill="black"/>
</svg>
