<svg width="240" height="72" viewBox="0 0 240 72" fill="none" xmlns="http://www.w3.org/2000/svg">
<path d="M32.28 50L27.28 31.56L22.44 50H16.56L8.4 23.12L14.6 22.4L19.6 42.08L24.2 22.8H30.44L35.32 42.08L39.88 22.8H46.12L38.12 50H32.28ZM54.9956 35.36C54.2223 35.36 53.3423 35.48 52.3556 35.72C51.369 35.96 50.5023 36.2533 49.7556 36.6L48.0756 31.8C48.9556 31.32 50.169 30.9067 51.7156 30.56C53.2623 30.1867 54.649 30 55.8756 30C57.5023 30 58.9423 30.32 60.1956 30.96C61.449 31.6 62.409 32.5067 63.0756 33.68C63.769 34.8267 64.1156 36.1467 64.1156 37.64V50H60.6356L59.1556 47.96C57.7156 49.6133 56.129 50.44 54.3956 50.44C52.049 50.44 50.2756 49.8667 49.0756 48.72C47.8756 47.5467 47.2756 45.96 47.2756 43.96C47.2756 41.9867 47.9423 40.5067 49.2756 39.52C50.609 38.5333 52.4356 38.04 54.7556 38.04H57.7956C57.7423 37.1867 57.4623 36.5333 56.9556 36.08C56.4756 35.6 55.8223 35.36 54.9956 35.36ZM54.7956 41.8C54.129 41.8 53.5823 42 53.1556 42.4C52.7556 42.8 52.5556 43.3067 52.5556 43.92C52.5556 44.4 52.729 44.8133 53.0756 45.16C53.4223 45.5067 53.8756 45.68 54.4356 45.68C55.609 45.68 56.7423 45.1733 57.8356 44.16V41.8H54.7956ZM68.87 35.92H65.75V31.04H68.87V29.4C68.87 27.0533 69.6433 25.2133 71.19 23.88C72.7633 22.5467 74.7633 21.88 77.19 21.88C77.9633 21.88 78.8033 22.04 79.71 22.36C80.6433 22.6533 81.35 23 81.83 23.4L80.03 27.76C79.2033 27.3333 78.3767 27.12 77.55 27.12C76.7767 27.12 76.1767 27.4 75.75 27.96C75.3233 28.4933 75.11 29.2267 75.11 30.16V31.04H79.63L80.79 35.92H75.11V59.2H68.87V35.92ZM84.6734 35.92H81.5534V31.04H84.6734V29.4C84.6734 27.0533 85.4468 25.2133 86.9934 23.88C88.5668 22.5467 90.5668 21.88 92.9934 21.88C93.7668 21.88 94.6068 22.04 95.5134 22.36C96.4468 22.6533 97.1534 23 97.6334 23.4L95.8334 27.76C95.0068 27.3333 94.1801 27.12 93.3534 27.12C92.5801 27.12 91.9801 27.4 91.5534 27.96C91.1268 28.4933 90.9134 29.2267 90.9134 30.16V31.04H95.4334L96.5934 35.92H90.9134V59.2H84.6734V35.92ZM105.637 21.76V50H99.3969V22.2L105.637 21.76ZM118.447 30C120.42 30 122.087 30.4533 123.447 31.36C124.807 32.2667 125.82 33.48 126.487 35C127.18 36.52 127.527 38.2267 127.527 40.12V42H115.087C115.674 44.2667 117.38 45.4 120.207 45.4C122.047 45.4 123.874 44.8933 125.687 43.88L127.447 48.24C126.54 48.9067 125.42 49.44 124.087 49.84C122.78 50.24 121.34 50.44 119.767 50.44C116.22 50.44 113.42 49.5467 111.367 47.76C109.34 45.9733 108.327 43.4933 108.327 40.32C108.327 38.24 108.754 36.4267 109.607 34.88C110.46 33.3067 111.647 32.1067 113.167 31.28C114.714 30.4267 116.474 30 118.447 30ZM118.287 35.16C117.407 35.16 116.66 35.4667 116.047 36.08C115.46 36.6667 115.114 37.4533 115.007 38.44H121.567C121.407 37.4533 121.047 36.6667 120.487 36.08C119.954 35.4667 119.22 35.16 118.287 35.16ZM145.371 41.32V50H139.131V22.8H149.171C151.224 22.8 153.077 23.1467 154.731 23.84C156.384 24.5067 157.691 25.5333 158.651 26.92C159.637 28.3067 160.131 30.0267 160.131 32.08C160.131 34.1067 159.611 35.8133 158.571 37.2C157.531 38.5867 156.144 39.6267 154.411 40.32C152.704 40.9867 150.837 41.32 148.811 41.32H145.371ZM153.611 32.24C153.611 30.8 153.197 29.7067 152.371 28.96C151.571 28.2133 150.437 27.84 148.971 27.84H145.371V36.32H149.051C150.384 36.32 151.464 35.96 152.291 35.24C153.144 34.4933 153.584 33.4933 153.611 32.24ZM169.526 35.36C168.753 35.36 167.873 35.48 166.886 35.72C165.899 35.96 165.033 36.2533 164.286 36.6L162.606 31.8C163.486 31.32 164.699 30.9067 166.246 30.56C167.793 30.1867 169.179 30 170.406 30C172.033 30 173.473 30.32 174.726 30.96C175.979 31.6 176.939 32.5067 177.606 33.68C178.299 34.8267 178.646 36.1467 178.646 37.64V50H175.166L173.686 47.96C172.246 49.6133 170.659 50.44 168.926 50.44C166.579 50.44 164.806 49.8667 163.606 48.72C162.406 47.5467 161.806 45.96 161.806 43.96C161.806 41.9867 162.473 40.5067 163.806 39.52C165.139 38.5333 166.966 38.04 169.286 38.04H172.326C172.273 37.1867 171.993 36.5333 171.486 36.08C171.006 35.6 170.353 35.36 169.526 35.36ZM169.326 41.8C168.659 41.8 168.113 42 167.686 42.4C167.286 42.8 167.086 43.3067 167.086 43.92C167.086 44.4 167.259 44.8133 167.606 45.16C167.953 45.5067 168.406 45.68 168.966 45.68C170.139 45.68 171.273 45.1733 172.366 44.16V41.8H169.326ZM194.68 35.6C193.747 35.6 192.667 35.8667 191.44 36.4C190.24 36.9067 189.16 37.5733 188.2 38.4V50H181.92V30.64H185.12L186.88 33.4C187.814 32.68 188.894 32.04 190.12 31.48C191.347 30.8933 192.454 30.6 193.44 30.6L194.68 35.6ZM203.795 31.04H208.115L209.235 35.92H203.795V42.4C203.795 43.3067 204.021 44.04 204.475 44.6C204.928 45.16 205.555 45.44 206.355 45.44C207.181 45.44 208.008 45.2267 208.835 44.8L210.635 49.16C210.181 49.5333 209.488 49.8667 208.555 50.16C207.621 50.4533 206.755 50.6 205.955 50.6C203.501 50.6 201.488 49.96 199.915 48.68C198.341 47.4 197.555 45.5867 197.555 43.24V35.92H194.755V31.04H197.555V26.12L203.795 25.16V31.04ZM231.433 30.6L223.833 49.92V59.2H218.113V50L210.993 31.6L216.913 29.88L221.073 41.96L225.073 30.6H231.433Z" fill="#FFC71E"/>
</svg>
