<svg width="5" height="18" viewBox="0 0 5 18" fill="none" xmlns="http://www.w3.org/2000/svg">
<g id="more-vertical 1" clip-path="url(#clip0_113_3938)">
<g id="Group">
<path id="Vector" d="M3.5 15.0801C3.5 14.5278 3.05228 14.0801 2.5 14.0801C1.94772 14.0801 1.5 14.5278 1.5 15.0801C1.5 15.6324 1.94772 16.0801 2.5 16.0801C3.05228 16.0801 3.5 15.6324 3.5 15.0801Z" stroke="white" stroke-width="2" stroke-linecap="round" stroke-linejoin="round"/>
<path id="Vector_2" d="M3.5 9.08008C3.5 8.52779 3.05228 8.08008 2.5 8.08008C1.94772 8.08008 1.5 8.52779 1.5 9.08008C1.5 9.63236 1.94772 10.0801 2.5 10.0801C3.05228 10.0801 3.5 9.63236 3.5 9.08008Z" stroke="white" stroke-width="2" stroke-linecap="round" stroke-linejoin="round"/>
<path id="Vector_3" d="M3.5 3.08008C3.5 2.52779 3.05228 2.08008 2.5 2.08008C1.94772 2.08008 1.5 2.52779 1.5 3.08008C1.5 3.63236 1.94772 4.08008 2.5 4.08008C3.05228 4.08008 3.5 3.63236 3.5 3.08008Z" stroke="white" stroke-width="2" stroke-linecap="round" stroke-linejoin="round"/>
</g>
</g>
<defs>
<clipPath id="clip0_113_3938">
<rect width="4" height="17" fill="white" transform="translate(0.5 0.435547)"/>
</clipPath>
</defs>
</svg>
