<svg width="23" height="22" viewBox="0 0 23 22" fill="none" xmlns="http://www.w3.org/2000/svg">
<g id="Group">
<path id="Vector" d="M9.5761 2.16311C9.636 1.50438 10.1883 1 10.8497 1H12.1503C12.8117 1 13.364 1.50438 13.4239 2.16311C13.4731 2.70392 13.8623 3.14543 14.3708 3.336C14.5015 3.38499 14.6307 3.43724 14.7582 3.49263C15.2613 3.71129 15.8531 3.66938 16.2745 3.31818C16.7953 2.8842 17.5611 2.91894 18.0404 3.39829L18.9584 4.31623C19.4154 4.77326 19.4485 5.50338 19.0347 5.99992C18.6901 6.41349 18.658 6.99745 18.8897 7.48341C18.99 7.69386 19.0816 7.90926 19.164 8.12916C19.3546 8.63767 19.7961 9.0269 20.3369 9.0761C20.9956 9.136 21.5 9.6883 21.5 10.3497V11.6503C21.5 12.3117 20.9956 12.864 20.3369 12.9239C19.7961 12.9731 19.3546 13.3623 19.164 13.8708C19.09 14.0682 19.0086 14.262 18.9202 14.4518C18.7053 14.913 18.7401 15.4637 19.0658 15.8546C19.462 16.33 19.4303 17.0291 18.9927 17.4667L17.9667 18.4927C17.5291 18.9303 16.83 18.962 16.3546 18.5658C15.9637 18.2401 15.413 18.2053 14.9518 18.4202C14.762 18.5086 14.5682 18.59 14.3708 18.664C13.8623 18.8546 13.4731 19.2961 13.4239 19.8369C13.364 20.4956 12.8117 21 12.1503 21H10.8497C10.1883 21 9.636 20.4956 9.5761 19.8369C9.5269 19.2961 9.13767 18.8546 8.62917 18.664C8.40927 18.5816 8.19387 18.49 7.98343 18.3897C7.49746 18.158 6.9135 18.1901 6.49992 18.5347C6.00338 18.9485 5.27325 18.9154 4.81622 18.4584L3.89829 17.5404C3.41893 17.0611 3.3842 16.2953 3.81818 15.7745C4.16939 15.3531 4.21129 14.7613 3.99263 14.2582C3.93724 14.1307 3.885 14.0016 3.836 13.8708C3.64544 13.3623 3.20392 12.9731 2.66311 12.9239C2.00438 12.864 1.5 12.3117 1.5 11.6503V10.3497C1.5 9.6883 2.00438 9.136 2.66311 9.0761C3.20393 9.0269 3.64544 8.63768 3.83601 8.12917C3.8936 7.9755 3.95568 7.82402 4.02209 7.67489C4.2571 7.14716 4.21804 6.52257 3.84821 6.07877C3.39722 5.53758 3.43332 4.74179 3.93145 4.24365L4.74364 3.43146C5.24178 2.93332 6.03757 2.89722 6.57876 3.34822C7.02256 3.71805 7.64715 3.7571 8.17488 3.52209C8.32401 3.45568 8.47549 3.3936 8.62916 3.33601C9.13767 3.14544 9.5269 2.70393 9.5761 2.16311Z" stroke="white" stroke-width="2" stroke-linecap="round" stroke-linejoin="round"/>
<path id="Vector_2" d="M14.5 11C14.5 12.6569 13.1569 14 11.5 14C9.8431 14 8.5 12.6569 8.5 11C8.5 9.3431 9.8431 8 11.5 8C13.1569 8 14.5 9.3431 14.5 11Z" stroke="white" stroke-width="2" stroke-linecap="round" stroke-linejoin="round"/>
</g>
</svg>
