<svg width="25" height="25" viewBox="0 0 25 25" fill="none" xmlns="http://www.w3.org/2000/svg">
<g clip-path="url(#clip0_122_16639)">
<path d="M19.2139 20.5H5.21387C4.94865 20.5 4.6943 20.6054 4.50676 20.7929C4.31922 20.9804 4.21387 21.2348 4.21387 21.5C4.21387 21.7652 4.31922 22.0196 4.50676 22.2071C4.6943 22.3946 4.94865 22.5 5.21387 22.5H19.2139C19.4791 22.5 19.7334 22.3946 19.921 22.2071C20.1085 22.0196 20.2139 21.7652 20.2139 21.5C20.2139 21.2348 20.1085 20.9804 19.921 20.7929C19.7334 20.6054 19.4791 20.5 19.2139 20.5Z" fill="#C1C1C1"/>
<path d="M5.21368 18.4999H5.30368L9.47368 18.1199C9.93047 18.0744 10.3577 17.8731 10.6837 17.5499L19.6837 8.54986C20.033 8.18083 20.2218 7.68837 20.2087 7.18039C20.1955 6.67242 19.9816 6.19037 19.6137 5.83986L16.8737 3.09986C16.5161 2.76395 16.0475 2.57122 15.557 2.55831C15.0665 2.5454 14.5885 2.71323 14.2137 3.02986L5.21368 12.0299C4.89044 12.3558 4.68918 12.7831 4.64368 13.2399L4.21368 17.4099C4.2002 17.5563 4.21921 17.704 4.26934 17.8422C4.31946 17.9805 4.39948 18.106 4.50368 18.2099C4.59712 18.3025 4.70793 18.3759 4.82977 18.4256C4.95161 18.4754 5.08207 18.5006 5.21368 18.4999ZM15.4837 4.49986L18.2137 7.22986L16.2137 9.17986L13.5337 6.49986L15.4837 4.49986ZM6.58368 13.4099L12.2137 7.81986L14.9137 10.5199L9.31368 16.1199L6.31368 16.3999L6.58368 13.4099Z" fill="#C1C1C1"/>
</g>
<defs>
<clipPath id="clip0_122_16639">
<rect width="24" height="24" fill="white" transform="translate(0.213867 0.5)"/>
</clipPath>
</defs>
</svg>
