<svg width="85" height="85" viewBox="0 0 85 85" fill="none" xmlns="http://www.w3.org/2000/svg">
<g clip-path="url(#clip0_230_5809)">
<mask id="mask0_230_5809" style="mask-type:luminance" maskUnits="userSpaceOnUse" x="0" y="0" width="85" height="85">
<path d="M85 0H0V85H85V0Z" fill="white"/>
</mask>
<g mask="url(#mask0_230_5809)">
<path d="M85 42.5C85 19.0279 65.9721 0 42.5 0C19.0279 0 0 19.0279 0 42.5C0 65.9721 19.0279 85 42.5 85C65.9721 85 85 65.9721 85 42.5Z" fill="#8B8B8B"/>
<path d="M42.5 0C19.04 0 0 19.04 0 42.5C0 65.96 19.04 85 42.5 85C65.96 85 85 65.96 85 42.5C85 19.04 65.96 0 42.5 0ZM42.5 17C50.7025 17 57.375 23.6725 57.375 31.875C57.375 40.0775 50.7025 46.75 42.5 46.75C34.2975 46.75 27.625 40.0775 27.625 31.875C27.625 23.6725 34.2975 17 42.5 17ZM42.5 76.5C33.8725 76.5 23.6725 73.015 16.405 64.26C23.5875 58.65 32.64 55.25 42.5 55.25C52.36 55.25 61.4125 58.65 68.595 64.26C61.3275 73.015 51.1275 76.5 42.5 76.5Z" fill="#555555"/>
</g>
</g>
<defs>
<clipPath id="clip0_230_5809">
<rect width="85" height="85" fill="white"/>
</clipPath>
</defs>
</svg>
