<svg width="59" height="59" viewBox="0 0 59 59" fill="none" xmlns="http://www.w3.org/2000/svg">
<rect width="58.9831" height="58.9831" rx="29.4915" fill="#C1C1C1"/>
<path d="M29.5 0C13.216 0 0 13.216 0 29.5C0 45.784 13.216 59 29.5 59C45.784 59 59 45.784 59 29.5C59 13.216 45.784 0 29.5 0ZM29.5 11.8C35.1935 11.8 39.825 16.4315 39.825 22.125C39.825 27.8185 35.1935 32.45 29.5 32.45C23.8065 32.45 19.175 27.8185 19.175 22.125C19.175 16.4315 23.8065 11.8 29.5 11.8ZM29.5 53.1C23.5115 53.1 16.4315 50.681 11.387 44.604C16.3725 40.71 22.656 38.35 29.5 38.35C36.344 38.35 42.6275 40.71 47.613 44.604C42.5685 50.681 35.4885 53.1 29.5 53.1Z" fill="#6F6F6F"/>
</svg>
