<svg width="38" height="38" viewBox="0 0 38 38" fill="none" xmlns="http://www.w3.org/2000/svg">
<rect x="9.15527e-05" width="38" height="38" rx="19" fill="#C1C1C1"/>
<path d="M19 0C8.512 0 0 8.512 0 19C0 29.488 8.512 38 19 38C29.488 38 38 29.488 38 19C38 8.512 29.488 0 19 0ZM19 7.6C22.667 7.6 25.65 10.583 25.65 14.25C25.65 17.917 22.667 20.9 19 20.9C15.333 20.9 12.35 17.917 12.35 14.25C12.35 10.583 15.333 7.6 19 7.6ZM19 34.2C15.143 34.2 10.583 32.642 7.334 28.728C10.545 26.22 14.592 24.7 19 24.7C23.408 24.7 27.455 26.22 30.666 28.728C27.417 32.642 22.857 34.2 19 34.2Z" fill="#6F6F6F"/>
</svg>
