<svg width="41" height="41" viewBox="0 0 41 41" fill="none" xmlns="http://www.w3.org/2000/svg">
<g id="Closed">
<path id="Vector" opacity="0.9" d="M20.2297 40.311C31.2754 40.311 40.2297 31.3567 40.2297 20.311C40.2297 9.26534 31.2754 0.311035 20.2297 0.311035C9.18404 0.311035 0.229736 9.26534 0.229736 20.311C0.229736 31.3567 9.18404 40.311 20.2297 40.311Z" fill="#6F6F6F"/>
<path id="Vector_2" fill-rule="evenodd" clip-rule="evenodd" d="M13.2946 12.5988L20.3196 19.6238L27.3456 12.5988C27.5196 12.4248 27.7886 12.4058 27.9836 12.5408L28.0536 12.5988L28.1226 12.6688C28.3176 12.8638 28.3176 13.1798 28.1226 13.3758L21.0956 20.4008L28.1226 27.4268C28.3176 27.6218 28.3176 27.9388 28.1226 28.1338L28.0526 28.2038C27.8576 28.3988 27.5406 28.3988 27.3456 28.2038L20.3196 21.1768L13.2946 28.2038C13.1206 28.3768 12.8516 28.3968 12.6566 28.2618L12.5866 28.2038L12.5166 28.1338C12.3226 27.9388 12.3226 27.6218 12.5166 27.4268L19.5426 20.4008L12.5176 13.3758C12.3226 13.1798 12.3226 12.8638 12.5176 12.6688L12.5876 12.5988C12.7826 12.4038 13.0986 12.4038 13.2946 12.5988Z" fill="white"/>
</g>
</svg>
