<svg width="128" height="128" viewBox="0 0 128 128" fill="none" xmlns="http://www.w3.org/2000/svg">
<rect width="128" height="128" rx="4" fill="url(#paint0_linear_1014_5220)"/>
<rect width="128" height="128" rx="4" fill="#FFC71E" fill-opacity="0.02"/>
<mask id="path-2-outside-1_1014_5220" maskUnits="userSpaceOnUse" x="25" y="37" width="78" height="55" fill="black">
<rect fill="white" x="25" y="37" width="78" height="55"/>
<path d="M72.588 91L64.076 58.548L56.096 91H42.264L26.76 39.928L40.364 38.56L49.408 74.432L57.16 39.32H70.916L79.732 74.432L87.484 39.32H101.24L86.42 91H72.588Z"/>
</mask>
<path d="M72.588 91L64.076 58.548L56.096 91H42.264L26.76 39.928L40.364 38.56L49.408 74.432L57.16 39.32H70.916L79.732 74.432L87.484 39.32H101.24L86.42 91H72.588Z" fill="#FFC71E"/>
<path d="M72.588 91L71.6207 91.2537C71.7361 91.6934 72.1334 92 72.588 92V91ZM64.076 58.548L65.0433 58.2943C64.9272 57.8518 64.5257 57.5445 64.0683 57.548C63.6109 57.5516 63.2142 57.865 63.1049 58.3092L64.076 58.548ZM56.096 91V92C56.5563 92 56.9572 91.6858 57.0671 91.2388L56.096 91ZM42.264 91L41.3071 91.2905C41.435 91.7119 41.8236 92 42.264 92V91ZM26.76 39.928L26.6599 38.933C26.3624 38.9629 26.0938 39.1245 25.9279 39.3734C25.762 39.6222 25.7162 39.9323 25.8031 40.2185L26.76 39.928ZM40.364 38.56L41.3337 38.3155C41.2124 37.8348 40.7573 37.5154 40.2639 37.565L40.364 38.56ZM49.408 74.432L48.4383 74.6765C48.5517 75.1261 48.9592 75.4388 49.4228 75.4319C49.8865 75.425 50.2845 75.1003 50.3845 74.6476L49.408 74.432ZM57.16 39.32V38.32C56.6908 38.32 56.2847 38.6462 56.1835 39.1044L57.16 39.32ZM70.916 39.32L71.8859 39.0765C71.7742 38.6318 71.3745 38.32 70.916 38.32V39.32ZM79.732 74.432L78.7621 74.6755C78.8751 75.1254 79.2826 75.4386 79.7464 75.4319C80.2101 75.4252 80.6085 75.1005 80.7085 74.6476L79.732 74.432ZM87.484 39.32V38.32C87.0148 38.32 86.6087 38.6462 86.5075 39.1044L87.484 39.32ZM101.24 39.32L102.201 39.5957C102.288 39.2939 102.228 38.9689 102.039 38.7182C101.85 38.4674 101.554 38.32 101.24 38.32V39.32ZM86.42 91V92C86.8661 92 87.2583 91.7045 87.3813 91.2757L86.42 91ZM73.5553 90.7463L65.0433 58.2943L63.1087 58.8017L71.6207 91.2537L73.5553 90.7463ZM63.1049 58.3092L55.1249 90.7612L57.0671 91.2388L65.0471 58.7868L63.1049 58.3092ZM56.096 90H42.264V92H56.096V90ZM43.2209 90.7095L27.7169 39.6375L25.8031 40.2185L41.3071 91.2905L43.2209 90.7095ZM26.8601 40.923L40.4641 39.555L40.2639 37.565L26.6599 38.933L26.8601 40.923ZM39.3943 38.8045L48.4383 74.6765L50.3777 74.1875L41.3337 38.3155L39.3943 38.8045ZM50.3845 74.6476L58.1365 39.5356L56.1835 39.1044L48.4315 74.2164L50.3845 74.6476ZM57.16 40.32H70.916V38.32H57.16V40.32ZM69.9461 39.5635L78.7621 74.6755L80.7019 74.1885L71.8859 39.0765L69.9461 39.5635ZM80.7085 74.6476L88.4605 39.5356L86.5075 39.1044L78.7555 74.2164L80.7085 74.6476ZM87.484 40.32H101.24V38.32H87.484V40.32ZM100.279 39.0443L85.4587 90.7243L87.3813 91.2757L102.201 39.5957L100.279 39.0443ZM86.42 90H72.588V92H86.42V90Z" fill="#FFC71E" mask="url(#path-2-outside-1_1014_5220)"/>
<defs>
<linearGradient id="paint0_linear_1014_5220" x1="64" y1="128" x2="64" y2="0" gradientUnits="userSpaceOnUse">
<stop stop-color="#111111"/>
<stop offset="1" stop-color="#333333"/>
</linearGradient>
</defs>
</svg>
