<svg width="176" height="197" viewBox="0 0 176 197" fill="none" xmlns="http://www.w3.org/2000/svg">
<path fill-rule="evenodd" clip-rule="evenodd" d="M11 36.53L147.714 2.00043L150.897 14.6037L14.1832 49.1333L11 36.53ZM70.887 58.254L156.143 36.7211L159.326 49.3244L123.971 58.254H157.599V71.2531H72.5032L62.798 73.7043L59.6148 61.101L68.5382 58.8473V58.254H70.887Z" fill="#3D3D3D"/>
<mask id="path-2-outside-1_718_30836" maskUnits="userSpaceOnUse" x="-0.818975" y="0.937134" width="177" height="196" fill="black">
<rect fill="white" x="-0.818975" y="0.937134" width="177" height="196"/>
<path fill-rule="evenodd" clip-rule="evenodd" d="M132.094 19.6244C132.07 19.3195 136.577 17.9081 142.11 16.4883C151.547 14.0661 152.807 13.731 152.979 14.028C153.012 14.0836 153.006 14.1612 153.008 14.2515C153.015 14.4787 154.235 19.3719 155.721 25.1253C157.207 30.8786 158.313 35.7619 158.18 35.9769C158.047 36.1925 156.591 36.67 154.945 37.0388L152.227 37.647C152.053 37.6858 151.872 37.6389 151.739 37.5211L145.489 31.9763C141.936 28.8232 137.477 24.8788 135.582 23.211C133.687 21.5431 132.118 19.9293 132.094 19.6244ZM86.8509 30.9652C86.8509 30.7154 91.7496 29.2609 97.7374 27.7331C103.725 26.2059 108.907 24.9973 109.252 25.0481C109.894 25.1429 129.44 42.3417 129.73 43.0679C129.818 43.2879 124.684 44.7671 118.323 46.3545L107.04 49.1704C106.863 49.2148 106.675 49.1682 106.538 49.0459L96.8036 40.3304C91.3295 35.4295 86.8509 31.2149 86.8509 30.9652ZM46.1991 40.9529C48.7 40.3095 53.4751 39.0535 56.8099 38.1625C60.1448 37.2715 63.2453 36.525 63.7001 36.5029C64.4238 36.4682 84.1478 53.5689 84.5094 54.5442C84.5855 54.7504 79.8726 56.1382 74.0364 57.6279C72.373 58.0526 70.7633 58.4636 69.3003 58.8372C65.6296 59.7744 62.8828 60.4757 62.5321 60.5655C61.9687 60.7094 57.9537 57.4967 51.6456 51.8553C46.149 46.9389 41.6516 42.7382 41.6516 42.5204C41.6516 42.302 43.6983 41.5969 46.1991 40.9529ZM14.2697 49.1619C14.9295 48.9111 15.9652 48.5808 16.5715 48.4281C17.1779 48.2748 18.0587 48.121 18.5289 48.0857C19.5966 48.0058 39.5956 65.7466 39.0317 66.2731C38.8052 66.4843 34.8993 67.6124 30.3518 68.7801L26.0509 69.8843C25.427 70.0445 25.5349 70.9612 26.1789 70.9721L31.0408 71.0544C35.9675 71.1377 39.998 71.3483 39.998 71.5225C39.998 71.9184 26.3936 92.0455 25.2134 93.3952C24.5509 94.1533 23.6948 94.3474 21.5622 94.2222L19.2847 94.0892C18.9975 94.0725 18.7712 93.8381 18.7644 93.5505L18.4787 81.3785L18.1826 68.7635C18.1816 68.7196 18.1753 68.676 18.1639 68.6335L15.6256 59.1574L13.1999 50.0996C13.1266 49.8257 13.2724 49.5408 13.5375 49.4401L14.2697 49.1619ZM48.0821 93.9217C47.9448 93.6946 51.1997 88.4837 55.3145 82.3434L62.6325 71.4235C62.7351 71.2704 62.9072 71.1785 63.0915 71.1785H74.5479C81.9137 71.1785 86.2997 71.3814 86.2997 71.7227C86.2997 72.0221 82.9351 77.2323 78.8225 83.3011L71.5092 94.0926C71.4064 94.2444 71.235 94.3352 71.0517 94.3352H59.8383C53.5093 94.3352 48.2193 94.1489 48.0821 93.9217ZM94.8611 93.8126C94.6836 93.5253 97.9099 88.315 102.031 82.2342L109.358 71.4211C109.461 71.2694 109.633 71.1785 109.816 71.1785H121.337C127.836 71.1785 133.153 71.3241 133.153 71.5016C133.153 72.0243 118.691 93.4696 118.038 93.9135C117.145 94.521 95.2404 94.4257 94.8611 93.8126ZM141.413 93.6582C141.409 93.2723 144.695 88.0614 148.717 82.0782L155.864 71.4429C155.967 71.2907 156.138 71.1991 156.321 71.1986L159.484 71.189L162.379 71.1802C162.688 71.1793 162.937 71.4314 162.933 71.7401L162.791 82.619L162.649 93.5218C162.646 93.8211 162.404 94.0629 162.105 94.0672L152.032 94.2095C143.739 94.3264 141.419 94.2057 141.413 93.6582ZM18.6336 142.027C18.5553 119.284 18.6099 100.366 18.7543 99.9866C18.9627 99.4402 33.9154 99.2974 90.9679 99.2974H162.365C162.671 99.2974 162.918 99.5448 162.918 99.85L162.918 141.478L162.918 183.104C162.918 183.41 162.67 183.657 162.364 183.657L90.8472 183.519L19.326 183.38C19.022 183.379 18.7755 183.133 18.7745 182.829C18.7734 182.525 18.6336 142.027 18.6336 142.027ZM98.4421 172.864C98.7381 174.156 99.8881 175.073 101.214 175.073H112.58C113.844 175.073 114.956 174.238 115.31 173.024L132.64 113.536C133.093 111.981 132.157 110.362 130.584 109.978L119.641 107.308C118.034 106.916 116.434 107.972 116.161 109.602L110.803 141.711C110.287 144.802 105.883 144.908 105.219 141.845L98.3748 110.276C98.0912 108.968 96.9339 108.034 95.5955 108.034H88.095H80.6399C79.281 108.034 78.112 108.996 77.8496 110.329L71.6707 141.728C71.0651 144.805 66.6549 144.78 66.0841 141.696L60.1322 109.54C59.8349 107.934 58.2491 106.908 56.6623 107.295L45.4418 110.03C43.8632 110.415 42.9274 112.042 43.3883 113.6L60.9727 173.036C61.3301 174.244 62.4398 175.073 63.6996 175.073H75.7539C77.0973 175.073 78.2575 174.133 78.536 172.818L85.4215 140.317C86.053 137.337 90.2952 137.302 90.9756 140.272L98.4421 172.864Z"/>
</mask>
<path fill-rule="evenodd" clip-rule="evenodd" d="M132.094 19.6244C132.07 19.3195 136.577 17.9081 142.11 16.4883C151.547 14.0661 152.807 13.731 152.979 14.028C153.012 14.0836 153.006 14.1612 153.008 14.2515C153.015 14.4787 154.235 19.3719 155.721 25.1253C157.207 30.8786 158.313 35.7619 158.18 35.9769C158.047 36.1925 156.591 36.67 154.945 37.0388L152.227 37.647C152.053 37.6858 151.872 37.6389 151.739 37.5211L145.489 31.9763C141.936 28.8232 137.477 24.8788 135.582 23.211C133.687 21.5431 132.118 19.9293 132.094 19.6244ZM86.8509 30.9652C86.8509 30.7154 91.7496 29.2609 97.7374 27.7331C103.725 26.2059 108.907 24.9973 109.252 25.0481C109.894 25.1429 129.44 42.3417 129.73 43.0679C129.818 43.2879 124.684 44.7671 118.323 46.3545L107.04 49.1704C106.863 49.2148 106.675 49.1682 106.538 49.0459L96.8036 40.3304C91.3295 35.4295 86.8509 31.2149 86.8509 30.9652ZM46.1991 40.9529C48.7 40.3095 53.4751 39.0535 56.8099 38.1625C60.1448 37.2715 63.2453 36.525 63.7001 36.5029C64.4238 36.4682 84.1478 53.5689 84.5094 54.5442C84.5855 54.7504 79.8726 56.1382 74.0364 57.6279C72.373 58.0526 70.7633 58.4636 69.3003 58.8372C65.6296 59.7744 62.8828 60.4757 62.5321 60.5655C61.9687 60.7094 57.9537 57.4967 51.6456 51.8553C46.149 46.9389 41.6516 42.7382 41.6516 42.5204C41.6516 42.302 43.6983 41.5969 46.1991 40.9529ZM14.2697 49.1619C14.9295 48.9111 15.9652 48.5808 16.5715 48.4281C17.1779 48.2748 18.0587 48.121 18.5289 48.0857C19.5966 48.0058 39.5956 65.7466 39.0317 66.2731C38.8052 66.4843 34.8993 67.6124 30.3518 68.7801L26.0509 69.8843C25.427 70.0445 25.5349 70.9612 26.1789 70.9721L31.0408 71.0544C35.9675 71.1377 39.998 71.3483 39.998 71.5225C39.998 71.9184 26.3936 92.0455 25.2134 93.3952C24.5509 94.1533 23.6948 94.3474 21.5622 94.2222L19.2847 94.0892C18.9975 94.0725 18.7712 93.8381 18.7644 93.5505L18.4787 81.3785L18.1826 68.7635C18.1816 68.7196 18.1753 68.676 18.1639 68.6335L15.6256 59.1574L13.1999 50.0996C13.1266 49.8257 13.2724 49.5408 13.5375 49.4401L14.2697 49.1619ZM48.0821 93.9217C47.9448 93.6946 51.1997 88.4837 55.3145 82.3434L62.6325 71.4235C62.7351 71.2704 62.9072 71.1785 63.0915 71.1785H74.5479C81.9137 71.1785 86.2997 71.3814 86.2997 71.7227C86.2997 72.0221 82.9351 77.2323 78.8225 83.3011L71.5092 94.0926C71.4064 94.2444 71.235 94.3352 71.0517 94.3352H59.8383C53.5093 94.3352 48.2193 94.1489 48.0821 93.9217ZM94.8611 93.8126C94.6836 93.5253 97.9099 88.315 102.031 82.2342L109.358 71.4211C109.461 71.2694 109.633 71.1785 109.816 71.1785H121.337C127.836 71.1785 133.153 71.3241 133.153 71.5016C133.153 72.0243 118.691 93.4696 118.038 93.9135C117.145 94.521 95.2404 94.4257 94.8611 93.8126ZM141.413 93.6582C141.409 93.2723 144.695 88.0614 148.717 82.0782L155.864 71.4429C155.967 71.2907 156.138 71.1991 156.321 71.1986L159.484 71.189L162.379 71.1802C162.688 71.1793 162.937 71.4314 162.933 71.7401L162.791 82.619L162.649 93.5218C162.646 93.8211 162.404 94.0629 162.105 94.0672L152.032 94.2095C143.739 94.3264 141.419 94.2057 141.413 93.6582ZM18.6336 142.027C18.5553 119.284 18.6099 100.366 18.7543 99.9866C18.9627 99.4402 33.9154 99.2974 90.9679 99.2974H162.365C162.671 99.2974 162.918 99.5448 162.918 99.85L162.918 141.478L162.918 183.104C162.918 183.41 162.67 183.657 162.364 183.657L90.8472 183.519L19.326 183.38C19.022 183.379 18.7755 183.133 18.7745 182.829C18.7734 182.525 18.6336 142.027 18.6336 142.027ZM98.4421 172.864C98.7381 174.156 99.8881 175.073 101.214 175.073H112.58C113.844 175.073 114.956 174.238 115.31 173.024L132.64 113.536C133.093 111.981 132.157 110.362 130.584 109.978L119.641 107.308C118.034 106.916 116.434 107.972 116.161 109.602L110.803 141.711C110.287 144.802 105.883 144.908 105.219 141.845L98.3748 110.276C98.0912 108.968 96.9339 108.034 95.5955 108.034H88.095H80.6399C79.281 108.034 78.112 108.996 77.8496 110.329L71.6707 141.728C71.0651 144.805 66.6549 144.78 66.0841 141.696L60.1322 109.54C59.8349 107.934 58.2491 106.908 56.6623 107.295L45.4418 110.03C43.8632 110.415 42.9274 112.042 43.3883 113.6L60.9727 173.036C61.3301 174.244 62.4398 175.073 63.6996 175.073H75.7539C77.0973 175.073 78.2575 174.133 78.536 172.818L85.4215 140.317C86.053 137.337 90.2952 137.302 90.9756 140.272L98.4421 172.864Z" fill="#FFC71E"/>
<path fill-rule="evenodd" clip-rule="evenodd" d="M132.094 19.6244C132.07 19.3195 136.577 17.9081 142.11 16.4883C151.547 14.0661 152.807 13.731 152.979 14.028C153.012 14.0836 153.006 14.1612 153.008 14.2515C153.015 14.4787 154.235 19.3719 155.721 25.1253C157.207 30.8786 158.313 35.7619 158.18 35.9769C158.047 36.1925 156.591 36.67 154.945 37.0388L152.227 37.647C152.053 37.6858 151.872 37.6389 151.739 37.5211L145.489 31.9763C141.936 28.8232 137.477 24.8788 135.582 23.211C133.687 21.5431 132.118 19.9293 132.094 19.6244ZM86.8509 30.9652C86.8509 30.7154 91.7496 29.2609 97.7374 27.7331C103.725 26.2059 108.907 24.9973 109.252 25.0481C109.894 25.1429 129.44 42.3417 129.73 43.0679C129.818 43.2879 124.684 44.7671 118.323 46.3545L107.04 49.1704C106.863 49.2148 106.675 49.1682 106.538 49.0459L96.8036 40.3304C91.3295 35.4295 86.8509 31.2149 86.8509 30.9652ZM46.1991 40.9529C48.7 40.3095 53.4751 39.0535 56.8099 38.1625C60.1448 37.2715 63.2453 36.525 63.7001 36.5029C64.4238 36.4682 84.1478 53.5689 84.5094 54.5442C84.5855 54.7504 79.8726 56.1382 74.0364 57.6279C72.373 58.0526 70.7633 58.4636 69.3003 58.8372C65.6296 59.7744 62.8828 60.4757 62.5321 60.5655C61.9687 60.7094 57.9537 57.4967 51.6456 51.8553C46.149 46.9389 41.6516 42.7382 41.6516 42.5204C41.6516 42.302 43.6983 41.5969 46.1991 40.9529ZM14.2697 49.1619C14.9295 48.9111 15.9652 48.5808 16.5715 48.4281C17.1779 48.2748 18.0587 48.121 18.5289 48.0857C19.5966 48.0058 39.5956 65.7466 39.0317 66.2731C38.8052 66.4843 34.8993 67.6124 30.3518 68.7801L26.0509 69.8843C25.427 70.0445 25.5349 70.9612 26.1789 70.9721L31.0408 71.0544C35.9675 71.1377 39.998 71.3483 39.998 71.5225C39.998 71.9184 26.3936 92.0455 25.2134 93.3952C24.5509 94.1533 23.6948 94.3474 21.5622 94.2222L19.2847 94.0892C18.9975 94.0725 18.7712 93.8381 18.7644 93.5505L18.4787 81.3785L18.1826 68.7635C18.1816 68.7196 18.1753 68.676 18.1639 68.6335L15.6256 59.1574L13.1999 50.0996C13.1266 49.8257 13.2724 49.5408 13.5375 49.4401L14.2697 49.1619ZM48.0821 93.9217C47.9448 93.6946 51.1997 88.4837 55.3145 82.3434L62.6325 71.4235C62.7351 71.2704 62.9072 71.1785 63.0915 71.1785H74.5479C81.9137 71.1785 86.2997 71.3814 86.2997 71.7227C86.2997 72.0221 82.9351 77.2323 78.8225 83.3011L71.5092 94.0926C71.4064 94.2444 71.235 94.3352 71.0517 94.3352H59.8383C53.5093 94.3352 48.2193 94.1489 48.0821 93.9217ZM94.8611 93.8126C94.6836 93.5253 97.9099 88.315 102.031 82.2342L109.358 71.4211C109.461 71.2694 109.633 71.1785 109.816 71.1785H121.337C127.836 71.1785 133.153 71.3241 133.153 71.5016C133.153 72.0243 118.691 93.4696 118.038 93.9135C117.145 94.521 95.2404 94.4257 94.8611 93.8126ZM141.413 93.6582C141.409 93.2723 144.695 88.0614 148.717 82.0782L155.864 71.4429C155.967 71.2907 156.138 71.1991 156.321 71.1986L159.484 71.189L162.379 71.1802C162.688 71.1793 162.937 71.4314 162.933 71.7401L162.791 82.619L162.649 93.5218C162.646 93.8211 162.404 94.0629 162.105 94.0672L152.032 94.2095C143.739 94.3264 141.419 94.2057 141.413 93.6582ZM18.6336 142.027C18.5553 119.284 18.6099 100.366 18.7543 99.9866C18.9627 99.4402 33.9154 99.2974 90.9679 99.2974H162.365C162.671 99.2974 162.918 99.5448 162.918 99.85L162.918 141.478L162.918 183.104C162.918 183.41 162.67 183.657 162.364 183.657L90.8472 183.519L19.326 183.38C19.022 183.379 18.7755 183.133 18.7745 182.829C18.7734 182.525 18.6336 142.027 18.6336 142.027ZM98.4421 172.864C98.7381 174.156 99.8881 175.073 101.214 175.073H112.58C113.844 175.073 114.956 174.238 115.31 173.024L132.64 113.536C133.093 111.981 132.157 110.362 130.584 109.978L119.641 107.308C118.034 106.916 116.434 107.972 116.161 109.602L110.803 141.711C110.287 144.802 105.883 144.908 105.219 141.845L98.3748 110.276C98.0912 108.968 96.9339 108.034 95.5955 108.034H88.095H80.6399C79.281 108.034 78.112 108.996 77.8496 110.329L71.6707 141.728C71.0651 144.805 66.6549 144.78 66.0841 141.696L60.1322 109.54C59.8349 107.934 58.2491 106.908 56.6623 107.295L45.4418 110.03C43.8632 110.415 42.9274 112.042 43.3883 113.6L60.9727 173.036C61.3301 174.244 62.4398 175.073 63.6996 175.073H75.7539C77.0973 175.073 78.2575 174.133 78.536 172.818L85.4215 140.317C86.053 137.337 90.2952 137.302 90.9756 140.272L98.4421 172.864Z" stroke="#3D3D3D" stroke-width="25.9981" mask="url(#path-2-outside-1_718_30836)"/>
</svg>
