<svg width="24" height="24" viewBox="0 0 24 24" fill="none" xmlns="http://www.w3.org/2000/svg">
<rect width="24" height="24" fill="#333333"/>
<g id="&#237;&#149;&#180;&#236;&#149;&#188; &#237;&#149;&#160;&#236;&#157;&#188;">
<path d="M-1594 -2218C-1594 -2219.1 -1593.1 -2220 -1592 -2220H2091C2092.1 -2220 2093 -2219.1 2093 -2218V966C2093 967.105 2092.1 968 2091 968H-1592C-1593.1 968 -1594 967.105 -1594 966V-2218Z" fill="#404040"/>
<path d="M-1592 -2219H2091V-2221H-1592V-2219ZM2092 -2218V966H2094V-2218H2092ZM2091 967H-1592V969H2091V967ZM-1593 966V-2218H-1595V966H-1593ZM-1592 967C-1592.55 967 -1593 966.552 -1593 966H-1595C-1595 967.657 -1593.66 969 -1592 969V967ZM2092 966C2092 966.552 2091.55 967 2091 967V969C2092.66 969 2094 967.657 2094 966H2092ZM2091 -2219C2091.55 -2219 2092 -2218.55 2092 -2218H2094C2094 -2219.66 2092.66 -2221 2091 -2221V-2219ZM-1592 -2221C-1593.66 -2221 -1595 -2219.66 -1595 -2218H-1593C-1593 -2218.55 -1592.55 -2219 -1592 -2219V-2221Z" fill="white" fill-opacity="0.1"/>
<g id="&#234;&#184;&#128; &#236;&#131;&#129;&#236;&#132;&#184;_&#235;&#140;&#147;&#234;&#184;&#128;X" clip-path="url(#clip0_63_1926)">
<rect width="360" height="800" transform="translate(-20 -731)" fill="#242424"/>
<g id="Comment Text Field">
<g id="Frame 1000003991">
<mask id="path-3-outside-1_63_1926" maskUnits="userSpaceOnUse" x="-20" y="-17" width="360" height="56" fill="black">
<rect fill="white" x="-20" y="-17" width="360" height="56"/>
<path d="M-20 -15H340V39H-20V-15Z"/>
</mask>
<path d="M-20 -15H340V39H-20V-15Z" fill="#242424"/>
<path d="M-20 -13H340V-17H-20V-13Z" fill="#333333" mask="url(#path-3-outside-1_63_1926)"/>
<g id="Frame 1000003995">
<g id="icon / feathericons / unlock">
<path id="Vector" d="M19 11H5C3.89543 11 3 11.8954 3 13V20C3 21.1046 3.89543 22 5 22H19C20.1046 22 21 21.1046 21 20V13C21 11.8954 20.1046 11 19 11Z" stroke="#6F6F6F" stroke-width="2" stroke-linecap="round" stroke-linejoin="round"/>
<path id="Vector_2" d="M7 10.9999V6.99991C6.99876 5.75996 7.45828 4.56378 8.28938 3.64358C9.12047 2.72338 10.2638 2.14481 11.4975 2.0202C12.7312 1.89558 13.9671 2.23381 14.9655 2.96922C15.9638 3.70463 16.6533 4.78476 16.9 5.99991" stroke="#6F6F6F" stroke-width="2" stroke-linecap="round" stroke-linejoin="round"/>
</g>
</g>
</g>
</g>
</g>
</g>
<defs>
<clipPath id="clip0_63_1926">
<rect width="360" height="800" fill="white" transform="translate(-20 -731)"/>
</clipPath>
</defs>
</svg>
