<svg width="230" height="130" viewBox="0 0 230 130" fill="none" xmlns="http://www.w3.org/2000/svg">
<path fill-rule="evenodd" clip-rule="evenodd" d="M7.54502 66.0425L51.8206 41.9647L54.0403 46.0464L9.76469 70.1242L7.54502 66.0425ZM30.2085 68.254L57.8177 53.2397L60.0374 57.3213L48.5888 63.5473L60.2311 60.5659L61.3836 65.0669L31.9207 72.6116L28.7763 74.3217L26.5566 70.24L29.4465 68.6684L29.3938 68.4627L30.2085 68.254Z" fill="#3D3D3D"/>
<mask id="path-2-outside-1_718_30815" maskUnits="userSpaceOnUse" x="0.21293" y="38.5463" width="79.6126" height="84.6573" fill="black">
<rect fill="white" x="0.21293" y="38.5463" width="79.6126" height="84.6573"/>
<path fill-rule="evenodd" clip-rule="evenodd" d="M47.9748 49.4519C47.9394 49.3485 49.3749 48.4601 51.1648 47.4779C54.2175 45.8025 54.6241 45.5748 54.7102 45.6623C54.7263 45.6787 54.7312 45.7061 54.7401 45.7371C54.7625 45.8152 55.619 47.4012 56.6434 49.2616C57.6681 51.122 58.4842 52.7147 58.4572 52.8009C58.4302 52.8874 57.9684 53.1818 57.4311 53.4555L56.5438 53.9071C56.4872 53.9359 56.4203 53.9358 56.3638 53.9067L53.7082 52.541C52.1982 51.7643 50.3048 50.7939 49.5008 50.3844C48.6967 49.9749 48.0101 49.5554 47.9748 49.4519ZM33.315 57.3902C33.2929 57.3037 34.8601 56.3657 36.7979 55.3058C38.7357 54.2461 40.4226 53.3682 40.5468 53.3551C40.7776 53.331 49.0701 57.5531 49.2349 57.7788C49.2849 57.8472 47.6386 58.8145 45.5767 59.9282L41.9199 61.9036C41.8622 61.9347 41.7929 61.9353 41.7348 61.905L37.5915 59.7504C35.2616 58.5388 33.3372 57.4766 33.315 57.3902ZM20.1249 64.4529C20.9338 64.0083 22.4758 63.15 23.5515 62.5459C24.6272 61.9417 25.6345 61.4083 25.79 61.3603C26.0376 61.2841 34.3833 65.4564 34.5949 65.762C34.6396 65.8267 33.1308 66.7251 31.2421 67.7584C30.7038 68.0529 30.1829 68.3379 29.7094 68.597C28.5215 69.247 27.6327 69.7333 27.5192 69.7956C27.3369 69.8953 25.6618 69.1389 22.9774 67.7449C20.6383 66.53 18.7086 65.4742 18.6893 65.3988C18.67 65.3232 19.3161 64.8976 20.1249 64.4529ZM9.79719 70.1263C10.0034 69.9809 10.3327 69.7748 10.5291 69.6681C10.7255 69.5613 11.0168 69.4299 11.1765 69.376C11.5391 69.2537 20.0368 73.6232 19.8882 73.8555C19.8285 73.9487 18.5761 74.6856 17.1051 75.4932L15.7138 76.2568C15.512 76.3676 15.6307 76.6755 15.8546 76.6221L17.5453 76.2196C19.2586 75.8115 20.6728 75.5271 20.6883 75.5874C20.7234 75.7245 17.7974 83.8998 17.5085 84.4717C17.3463 84.793 17.0671 84.9361 16.3176 85.0818L15.5172 85.2377C15.4163 85.2574 15.3171 85.1963 15.2893 85.0973L14.1111 80.9081L12.8901 76.5664C12.8858 76.5513 12.8798 76.5367 12.8721 76.5231L11.153 73.467L9.50995 70.5458C9.46026 70.4575 9.48549 70.3459 9.56835 70.2875L9.79719 70.1263ZM25.4734 82.6264C25.4058 82.5599 26.0707 80.467 26.951 77.9761L28.5167 73.5462C28.5386 73.4841 28.5901 73.437 28.6539 73.4207L32.6207 72.4049C35.1711 71.7518 36.7077 71.4332 36.738 71.5513C36.7645 71.655 36.0615 73.7574 35.1756 76.2233L33.6002 80.6083C33.5781 80.67 33.5268 80.7167 33.4634 80.7329L29.5807 81.7272C27.3893 82.2883 25.5411 82.6929 25.4734 82.6264ZM41.661 78.4408C41.5741 78.3571 42.2292 76.267 43.1169 73.7961L44.6953 69.4024C44.7175 69.3407 44.7687 69.2941 44.8322 69.2778L48.8216 68.2562C51.0716 67.68 52.9255 67.259 52.9412 67.3205C52.9876 67.5015 49.8815 76.2092 49.6951 76.4207C49.4398 76.7103 41.8467 78.6195 41.661 78.4408ZM57.766 74.2598C57.7302 74.1265 58.4061 72.0309 59.268 69.6026L60.7999 65.2864C60.8219 65.2246 60.873 65.1777 60.9365 65.1613L62.0307 64.8775L63.0324 64.6178C63.1392 64.5901 63.248 64.6553 63.2739 64.7625L64.1893 68.5419L65.1069 72.3296C65.1321 72.4336 65.0699 72.5387 64.9667 72.5667L61.4915 73.5092C58.6306 74.2849 57.8166 74.4488 57.766 74.2598ZM19.5422 101.894C17.4986 94.026 15.8401 87.4709 15.8564 87.3267C15.8801 87.1191 21.0449 85.7438 40.7993 80.6852L65.5207 74.3546C65.6264 74.3275 65.734 74.3913 65.7611 74.4969L69.4521 88.9106L73.1429 103.324C73.17 103.43 73.1061 103.537 73.0002 103.564L48.2251 109.857L23.4486 116.151C23.3432 116.178 23.2361 116.114 23.2087 116.009C23.1814 115.904 19.5422 101.894 19.5422 101.894ZM49.9101 105.495C50.1272 105.916 50.6067 106.131 51.0658 106.014L55.0011 105.006C55.4389 104.894 55.7501 104.506 55.7649 104.055L56.4908 81.9203C56.5097 81.3417 56.0422 80.8641 55.4633 80.8706L51.4375 80.9165C50.8465 80.9232 50.3859 81.4307 50.4363 82.0195L51.4278 93.6121C51.5233 94.7281 50.0076 95.1554 49.5062 94.1538L44.3373 83.8296C44.1232 83.4019 43.6397 83.1813 43.1763 83.3L40.5792 83.965L37.9979 84.626C37.5274 84.7465 37.2078 85.1831 37.2352 85.668L37.8798 97.0876C37.9429 98.2068 36.4137 98.5892 35.9426 97.572L31.0306 86.9658C30.7853 86.436 30.1452 86.2213 29.6301 86.496L25.9875 88.438C25.475 88.7112 25.2953 89.3575 25.593 89.8561L36.9516 108.877C37.1824 109.263 37.6402 109.452 38.0764 109.34L42.2502 108.271C42.7154 108.152 43.0337 107.724 43.0136 107.244L42.5159 95.3801C42.4703 94.292 43.9361 93.9038 44.435 94.8718L49.9101 105.495Z"/>
</mask>
<path fill-rule="evenodd" clip-rule="evenodd" d="M47.9748 49.4519C47.9394 49.3485 49.3749 48.4601 51.1648 47.4779C54.2175 45.8025 54.6241 45.5748 54.7102 45.6623C54.7263 45.6787 54.7312 45.7061 54.7401 45.7371C54.7625 45.8152 55.619 47.4012 56.6434 49.2616C57.6681 51.122 58.4842 52.7147 58.4572 52.8009C58.4302 52.8874 57.9684 53.1818 57.4311 53.4555L56.5438 53.9071C56.4872 53.9359 56.4203 53.9358 56.3638 53.9067L53.7082 52.541C52.1982 51.7643 50.3048 50.7939 49.5008 50.3844C48.6967 49.9749 48.0101 49.5554 47.9748 49.4519ZM33.315 57.3902C33.2929 57.3037 34.8601 56.3657 36.7979 55.3058C38.7357 54.2461 40.4226 53.3682 40.5468 53.3551C40.7776 53.331 49.0701 57.5531 49.2349 57.7788C49.2849 57.8472 47.6386 58.8145 45.5767 59.9282L41.9199 61.9036C41.8622 61.9347 41.7929 61.9353 41.7348 61.905L37.5915 59.7504C35.2616 58.5388 33.3372 57.4766 33.315 57.3902ZM20.1249 64.4529C20.9338 64.0083 22.4758 63.15 23.5515 62.5459C24.6272 61.9417 25.6345 61.4083 25.79 61.3603C26.0376 61.2841 34.3833 65.4564 34.5949 65.762C34.6396 65.8267 33.1308 66.7251 31.2421 67.7584C30.7038 68.0529 30.1829 68.3379 29.7094 68.597C28.5215 69.247 27.6327 69.7333 27.5192 69.7956C27.3369 69.8953 25.6618 69.1389 22.9774 67.7449C20.6383 66.53 18.7086 65.4742 18.6893 65.3988C18.67 65.3232 19.3161 64.8976 20.1249 64.4529ZM9.79719 70.1263C10.0034 69.9809 10.3327 69.7748 10.5291 69.6681C10.7255 69.5613 11.0168 69.4299 11.1765 69.376C11.5391 69.2537 20.0368 73.6232 19.8882 73.8555C19.8285 73.9487 18.5761 74.6856 17.1051 75.4932L15.7138 76.2568C15.512 76.3676 15.6307 76.6755 15.8546 76.6221L17.5453 76.2196C19.2586 75.8115 20.6728 75.5271 20.6883 75.5874C20.7234 75.7245 17.7974 83.8998 17.5085 84.4717C17.3463 84.793 17.0671 84.9361 16.3176 85.0818L15.5172 85.2377C15.4163 85.2574 15.3171 85.1963 15.2893 85.0973L14.1111 80.9081L12.8901 76.5664C12.8858 76.5513 12.8798 76.5367 12.8721 76.5231L11.153 73.467L9.50995 70.5458C9.46026 70.4575 9.48549 70.3459 9.56835 70.2875L9.79719 70.1263ZM25.4734 82.6264C25.4058 82.5599 26.0707 80.467 26.951 77.9761L28.5167 73.5462C28.5386 73.4841 28.5901 73.437 28.6539 73.4207L32.6207 72.4049C35.1711 71.7518 36.7077 71.4332 36.738 71.5513C36.7645 71.655 36.0615 73.7574 35.1756 76.2233L33.6002 80.6083C33.5781 80.67 33.5268 80.7167 33.4634 80.7329L29.5807 81.7272C27.3893 82.2883 25.5411 82.6929 25.4734 82.6264ZM41.661 78.4408C41.5741 78.3571 42.2292 76.267 43.1169 73.7961L44.6953 69.4024C44.7175 69.3407 44.7687 69.2941 44.8322 69.2778L48.8216 68.2562C51.0716 67.68 52.9255 67.259 52.9412 67.3205C52.9876 67.5015 49.8815 76.2092 49.6951 76.4207C49.4398 76.7103 41.8467 78.6195 41.661 78.4408ZM57.766 74.2598C57.7302 74.1265 58.4061 72.0309 59.268 69.6026L60.7999 65.2864C60.8219 65.2246 60.873 65.1777 60.9365 65.1613L62.0307 64.8775L63.0324 64.6178C63.1392 64.5901 63.248 64.6553 63.2739 64.7625L64.1893 68.5419L65.1069 72.3296C65.1321 72.4336 65.0699 72.5387 64.9667 72.5667L61.4915 73.5092C58.6306 74.2849 57.8166 74.4488 57.766 74.2598ZM19.5422 101.894C17.4986 94.026 15.8401 87.4709 15.8564 87.3267C15.8801 87.1191 21.0449 85.7438 40.7993 80.6852L65.5207 74.3546C65.6264 74.3275 65.734 74.3913 65.7611 74.4969L69.4521 88.9106L73.1429 103.324C73.17 103.43 73.1061 103.537 73.0002 103.564L48.2251 109.857L23.4486 116.151C23.3432 116.178 23.2361 116.114 23.2087 116.009C23.1814 115.904 19.5422 101.894 19.5422 101.894ZM49.9101 105.495C50.1272 105.916 50.6067 106.131 51.0658 106.014L55.0011 105.006C55.4389 104.894 55.7501 104.506 55.7649 104.055L56.4908 81.9203C56.5097 81.3417 56.0422 80.8641 55.4633 80.8706L51.4375 80.9165C50.8465 80.9232 50.3859 81.4307 50.4363 82.0195L51.4278 93.6121C51.5233 94.7281 50.0076 95.1554 49.5062 94.1538L44.3373 83.8296C44.1232 83.4019 43.6397 83.1813 43.1763 83.3L40.5792 83.965L37.9979 84.626C37.5274 84.7465 37.2078 85.1831 37.2352 85.668L37.8798 97.0876C37.9429 98.2068 36.4137 98.5892 35.9426 97.572L31.0306 86.9658C30.7853 86.436 30.1452 86.2213 29.6301 86.496L25.9875 88.438C25.475 88.7112 25.2953 89.3575 25.593 89.8561L36.9516 108.877C37.1824 109.263 37.6402 109.452 38.0764 109.34L42.2502 108.271C42.7154 108.152 43.0337 107.724 43.0136 107.244L42.5159 95.3801C42.4703 94.292 43.9361 93.9038 44.435 94.8718L49.9101 105.495Z" fill="#FFC71E"/>
<path fill-rule="evenodd" clip-rule="evenodd" d="M47.9748 49.4519C47.9394 49.3485 49.3749 48.4601 51.1648 47.4779C54.2175 45.8025 54.6241 45.5748 54.7102 45.6623C54.7263 45.6787 54.7312 45.7061 54.7401 45.7371C54.7625 45.8152 55.619 47.4012 56.6434 49.2616C57.6681 51.122 58.4842 52.7147 58.4572 52.8009C58.4302 52.8874 57.9684 53.1818 57.4311 53.4555L56.5438 53.9071C56.4872 53.9359 56.4203 53.9358 56.3638 53.9067L53.7082 52.541C52.1982 51.7643 50.3048 50.7939 49.5008 50.3844C48.6967 49.9749 48.0101 49.5554 47.9748 49.4519ZM33.315 57.3902C33.2929 57.3037 34.8601 56.3657 36.7979 55.3058C38.7357 54.2461 40.4226 53.3682 40.5468 53.3551C40.7776 53.331 49.0701 57.5531 49.2349 57.7788C49.2849 57.8472 47.6386 58.8145 45.5767 59.9282L41.9199 61.9036C41.8622 61.9347 41.7929 61.9353 41.7348 61.905L37.5915 59.7504C35.2616 58.5388 33.3372 57.4766 33.315 57.3902ZM20.1249 64.4529C20.9338 64.0083 22.4758 63.15 23.5515 62.5459C24.6272 61.9417 25.6345 61.4083 25.79 61.3603C26.0376 61.2841 34.3833 65.4564 34.5949 65.762C34.6396 65.8267 33.1308 66.7251 31.2421 67.7584C30.7038 68.0529 30.1829 68.3379 29.7094 68.597C28.5215 69.247 27.6327 69.7333 27.5192 69.7956C27.3369 69.8953 25.6618 69.1389 22.9774 67.7449C20.6383 66.53 18.7086 65.4742 18.6893 65.3988C18.67 65.3232 19.3161 64.8976 20.1249 64.4529ZM9.79719 70.1263C10.0034 69.9809 10.3327 69.7748 10.5291 69.6681C10.7255 69.5613 11.0168 69.4299 11.1765 69.376C11.5391 69.2537 20.0368 73.6232 19.8882 73.8555C19.8285 73.9487 18.5761 74.6856 17.1051 75.4932L15.7138 76.2568C15.512 76.3676 15.6307 76.6755 15.8546 76.6221L17.5453 76.2196C19.2586 75.8115 20.6728 75.5271 20.6883 75.5874C20.7234 75.7245 17.7974 83.8998 17.5085 84.4717C17.3463 84.793 17.0671 84.9361 16.3176 85.0818L15.5172 85.2377C15.4163 85.2574 15.3171 85.1963 15.2893 85.0973L14.1111 80.9081L12.8901 76.5664C12.8858 76.5513 12.8798 76.5367 12.8721 76.5231L11.153 73.467L9.50995 70.5458C9.46026 70.4575 9.48549 70.3459 9.56835 70.2875L9.79719 70.1263ZM25.4734 82.6264C25.4058 82.5599 26.0707 80.467 26.951 77.9761L28.5167 73.5462C28.5386 73.4841 28.5901 73.437 28.6539 73.4207L32.6207 72.4049C35.1711 71.7518 36.7077 71.4332 36.738 71.5513C36.7645 71.655 36.0615 73.7574 35.1756 76.2233L33.6002 80.6083C33.5781 80.67 33.5268 80.7167 33.4634 80.7329L29.5807 81.7272C27.3893 82.2883 25.5411 82.6929 25.4734 82.6264ZM41.661 78.4408C41.5741 78.3571 42.2292 76.267 43.1169 73.7961L44.6953 69.4024C44.7175 69.3407 44.7687 69.2941 44.8322 69.2778L48.8216 68.2562C51.0716 67.68 52.9255 67.259 52.9412 67.3205C52.9876 67.5015 49.8815 76.2092 49.6951 76.4207C49.4398 76.7103 41.8467 78.6195 41.661 78.4408ZM57.766 74.2598C57.7302 74.1265 58.4061 72.0309 59.268 69.6026L60.7999 65.2864C60.8219 65.2246 60.873 65.1777 60.9365 65.1613L62.0307 64.8775L63.0324 64.6178C63.1392 64.5901 63.248 64.6553 63.2739 64.7625L64.1893 68.5419L65.1069 72.3296C65.1321 72.4336 65.0699 72.5387 64.9667 72.5667L61.4915 73.5092C58.6306 74.2849 57.8166 74.4488 57.766 74.2598ZM19.5422 101.894C17.4986 94.026 15.8401 87.4709 15.8564 87.3267C15.8801 87.1191 21.0449 85.7438 40.7993 80.6852L65.5207 74.3546C65.6264 74.3275 65.734 74.3913 65.7611 74.4969L69.4521 88.9106L73.1429 103.324C73.17 103.43 73.1061 103.537 73.0002 103.564L48.2251 109.857L23.4486 116.151C23.3432 116.178 23.2361 116.114 23.2087 116.009C23.1814 115.904 19.5422 101.894 19.5422 101.894ZM49.9101 105.495C50.1272 105.916 50.6067 106.131 51.0658 106.014L55.0011 105.006C55.4389 104.894 55.7501 104.506 55.7649 104.055L56.4908 81.9203C56.5097 81.3417 56.0422 80.8641 55.4633 80.8706L51.4375 80.9165C50.8465 80.9232 50.3859 81.4307 50.4363 82.0195L51.4278 93.6121C51.5233 94.7281 50.0076 95.1554 49.5062 94.1538L44.3373 83.8296C44.1232 83.4019 43.6397 83.1813 43.1763 83.3L40.5792 83.965L37.9979 84.626C37.5274 84.7465 37.2078 85.1831 37.2352 85.668L37.8798 97.0876C37.9429 98.2068 36.4137 98.5892 35.9426 97.572L31.0306 86.9658C30.7853 86.436 30.1452 86.2213 29.6301 86.496L25.9875 88.438C25.475 88.7112 25.2953 89.3575 25.593 89.8561L36.9516 108.877C37.1824 109.263 37.6402 109.452 38.0764 109.34L42.2502 108.271C42.7154 108.152 43.0337 107.724 43.0136 107.244L42.5159 95.3801C42.4703 94.292 43.9361 93.9038 44.435 94.8718L49.9101 105.495Z" stroke="#3D3D3D" stroke-width="9.29232" mask="url(#path-2-outside-1_718_30815)"/>
<circle cx="130.504" cy="100.289" r="4.26794" fill="#3D3D3D"/>
<mask id="path-4-outside-2_718_30815" maskUnits="userSpaceOnUse" x="162.481" y="68.7668" width="61" height="58" fill="black">
<rect fill="white" x="162.481" y="68.7668" width="61" height="58"/>
<path d="M181.508 82.6778C180.687 82.6778 180.022 82.0123 180.022 81.1915V76.2535C180.022 75.3425 179.21 74.6459 178.31 74.7844L172.626 75.6588C171.901 75.7704 171.366 76.3943 171.366 77.1278V81.1915C171.366 82.0123 170.7 82.6778 169.879 82.6778H168.968C168.147 82.6778 167.481 83.3432 167.481 84.164V87.9611C167.481 88.7819 168.147 89.4473 168.968 89.4473H169.879C170.7 89.4473 171.366 90.1128 171.366 90.9337V99.6017C171.366 102.857 172.457 105.372 174.639 107.148C176.822 108.924 179.615 109.812 183.018 109.812C184.128 109.812 185.33 109.608 186.625 109.201C187.399 108.958 188.054 108.695 188.59 108.412C189.168 108.107 189.34 107.402 189.091 106.798L187.631 103.261C187.299 102.457 186.351 102.127 185.515 102.37C184.868 102.559 184.22 102.653 183.573 102.653C182.463 102.653 181.594 102.265 180.965 101.488C180.336 100.711 180.022 99.694 180.022 98.4364V90.9337C180.022 90.1128 180.687 89.4473 181.508 89.4473H185.702C186.657 89.4473 187.364 88.5595 187.151 87.6285L186.279 83.8316C186.124 83.1564 185.523 82.6778 184.831 82.6778H181.508Z"/>
<path d="M217.452 84.0978C217.835 83.1227 217.116 82.0674 216.068 82.0674H210.48C209.849 82.0674 209.288 82.4653 209.078 83.06L205.296 93.8003C204.828 95.1287 202.947 95.1222 202.489 93.7906L198.569 82.4069C198.311 81.6574 197.51 81.2424 196.749 81.4635L191.452 83.0024C190.615 83.2455 190.166 84.1533 190.48 84.9661L199.672 108.72C199.739 108.891 199.773 109.073 199.773 109.257V120.255C199.773 121.076 200.438 121.741 201.259 121.741H206.221C207.041 121.741 207.708 121.076 207.708 120.255V109.15C207.708 108.964 207.742 108.779 207.81 108.606L217.452 84.0978Z"/>
</mask>
<path d="M181.508 82.6778C180.687 82.6778 180.022 82.0123 180.022 81.1915V76.2535C180.022 75.3425 179.21 74.6459 178.31 74.7844L172.626 75.6588C171.901 75.7704 171.366 76.3943 171.366 77.1278V81.1915C171.366 82.0123 170.7 82.6778 169.879 82.6778H168.968C168.147 82.6778 167.481 83.3432 167.481 84.164V87.9611C167.481 88.7819 168.147 89.4473 168.968 89.4473H169.879C170.7 89.4473 171.366 90.1128 171.366 90.9337V99.6017C171.366 102.857 172.457 105.372 174.639 107.148C176.822 108.924 179.615 109.812 183.018 109.812C184.128 109.812 185.33 109.608 186.625 109.201C187.399 108.958 188.054 108.695 188.59 108.412C189.168 108.107 189.34 107.402 189.091 106.798L187.631 103.261C187.299 102.457 186.351 102.127 185.515 102.37C184.868 102.559 184.22 102.653 183.573 102.653C182.463 102.653 181.594 102.265 180.965 101.488C180.336 100.711 180.022 99.694 180.022 98.4364V90.9337C180.022 90.1128 180.687 89.4473 181.508 89.4473H185.702C186.657 89.4473 187.364 88.5595 187.151 87.6285L186.279 83.8316C186.124 83.1564 185.523 82.6778 184.831 82.6778H181.508Z" fill="#FFC71E"/>
<path d="M217.452 84.0978C217.835 83.1227 217.116 82.0674 216.068 82.0674H210.48C209.849 82.0674 209.288 82.4653 209.078 83.06L205.296 93.8003C204.828 95.1287 202.947 95.1222 202.489 93.7906L198.569 82.4069C198.311 81.6574 197.51 81.2424 196.749 81.4635L191.452 83.0024C190.615 83.2455 190.166 84.1533 190.48 84.9661L199.672 108.72C199.739 108.891 199.773 109.073 199.773 109.257V120.255C199.773 121.076 200.438 121.741 201.259 121.741H206.221C207.041 121.741 207.708 121.076 207.708 120.255V109.15C207.708 108.964 207.742 108.779 207.81 108.606L217.452 84.0978Z" fill="#FFC71E"/>
<path d="M181.508 82.6778C180.687 82.6778 180.022 82.0123 180.022 81.1915V76.2535C180.022 75.3425 179.21 74.6459 178.31 74.7844L172.626 75.6588C171.901 75.7704 171.366 76.3943 171.366 77.1278V81.1915C171.366 82.0123 170.7 82.6778 169.879 82.6778H168.968C168.147 82.6778 167.481 83.3432 167.481 84.164V87.9611C167.481 88.7819 168.147 89.4473 168.968 89.4473H169.879C170.7 89.4473 171.366 90.1128 171.366 90.9337V99.6017C171.366 102.857 172.457 105.372 174.639 107.148C176.822 108.924 179.615 109.812 183.018 109.812C184.128 109.812 185.33 109.608 186.625 109.201C187.399 108.958 188.054 108.695 188.59 108.412C189.168 108.107 189.34 107.402 189.091 106.798L187.631 103.261C187.299 102.457 186.351 102.127 185.515 102.37C184.868 102.559 184.22 102.653 183.573 102.653C182.463 102.653 181.594 102.265 180.965 101.488C180.336 100.711 180.022 99.694 180.022 98.4364V90.9337C180.022 90.1128 180.687 89.4473 181.508 89.4473H185.702C186.657 89.4473 187.364 88.5595 187.151 87.6285L186.279 83.8316C186.124 83.1564 185.523 82.6778 184.831 82.6778H181.508Z" stroke="#3D3D3D" stroke-width="10" mask="url(#path-4-outside-2_718_30815)"/>
<path d="M217.452 84.0978C217.835 83.1227 217.116 82.0674 216.068 82.0674H210.48C209.849 82.0674 209.288 82.4653 209.078 83.06L205.296 93.8003C204.828 95.1287 202.947 95.1222 202.489 93.7906L198.569 82.4069C198.311 81.6574 197.51 81.2424 196.749 81.4635L191.452 83.0024C190.615 83.2455 190.166 84.1533 190.48 84.9661L199.672 108.72C199.739 108.891 199.773 109.073 199.773 109.257V120.255C199.773 121.076 200.438 121.741 201.259 121.741H206.221C207.041 121.741 207.708 121.076 207.708 120.255V109.15C207.708 108.964 207.742 108.779 207.81 108.606L217.452 84.0978Z" stroke="#3D3D3D" stroke-width="10" mask="url(#path-4-outside-2_718_30815)"/>
<mask id="path-5-outside-3_718_30815" maskUnits="userSpaceOnUse" x="82.8315" y="66.2585" width="87" height="49" fill="black">
<rect fill="white" x="82.8315" y="66.2585" width="87" height="49"/>
<path d="M97.9738 96.9495C97.153 96.9495 96.4875 97.615 96.4875 98.4359V107.504C96.4875 108.325 95.8221 108.99 95.0012 108.99H89.3178C88.497 108.99 87.8315 108.325 87.8315 107.504V72.7448C87.8315 71.924 88.497 71.2585 89.3178 71.2585H101.759C104.607 71.2585 107.178 71.7393 109.472 72.7012C111.765 73.6259 113.578 75.0504 114.91 76.9739C116.279 78.8972 116.963 81.2833 116.963 84.1318C116.963 86.9431 116.242 89.3108 114.799 91.2343C113.356 93.1578 111.432 94.6004 109.028 95.5623C106.66 96.487 104.071 96.9495 101.259 96.9495H97.9738ZM107.918 84.3538C107.918 82.3561 107.345 80.8393 106.198 79.8038C105.088 78.7681 103.516 78.2501 101.481 78.2501H97.9738C97.153 78.2501 96.4875 78.9155 96.4875 79.7364V88.5272C96.4875 89.3481 97.153 90.0136 97.9738 90.0136H101.592C103.442 90.0136 104.94 89.5142 106.087 88.5154C107.271 87.4797 107.881 86.0925 107.918 84.3538ZM129.885 88.6818C128.812 88.6818 127.591 88.8483 126.223 89.1812C125.478 89.3624 124.783 89.5655 124.136 89.7905C123.307 90.0792 122.365 89.6835 122.074 88.8545L120.703 84.9347C120.462 84.2477 120.753 83.482 121.426 83.2032C122.49 82.7621 123.793 82.3688 125.335 82.0233C127.48 81.5053 129.404 81.2464 131.106 81.2464C133.362 81.2464 135.36 81.6903 137.098 82.5781C138.837 83.4659 140.169 84.7235 141.094 86.3513C142.056 87.9418 142.536 89.773 142.536 91.8447V107.504C142.536 108.325 141.871 108.99 141.05 108.99H138.467C137.991 108.99 137.543 108.762 137.264 108.377L136.753 107.673C136.192 106.899 135.061 106.858 134.338 107.482C132.701 108.895 130.94 109.601 129.053 109.601C125.797 109.601 123.337 108.805 121.673 107.215C120.008 105.587 119.176 103.386 119.176 100.612C119.176 97.8742 120.1 95.8211 121.95 94.4526C123.8 93.084 126.334 92.3995 129.552 92.3995H132.187C133.044 92.3995 133.765 91.6513 133.434 90.8605C133.239 90.3949 132.963 90.0017 132.604 89.6806C131.938 89.0148 131.032 88.6818 129.885 88.6818ZM129.607 97.6154C128.683 97.6154 127.924 97.8929 127.333 98.4478C126.778 99.0026 126.5 99.7053 126.5 100.556C126.5 101.222 126.741 101.796 127.222 102.276C127.702 102.757 128.331 102.998 129.108 102.998C130.562 102.998 131.971 102.437 133.336 101.316C133.656 101.054 133.825 100.654 133.825 100.24V99.1017C133.825 98.2809 133.159 97.6154 132.338 97.6154H129.607ZM164.211 87.1707C164.443 88.1081 163.728 89.0287 162.786 89.2419C161.976 89.4252 161.105 89.7194 160.174 90.1246C158.724 90.7362 157.401 91.5166 156.205 92.4649C155.865 92.7335 155.679 93.1477 155.679 93.5805V107.504C155.679 108.325 155.014 108.99 154.193 108.99H148.454C147.633 108.99 146.967 108.325 146.967 107.504V83.6205C146.967 82.7997 147.633 82.1343 148.454 82.1343H150.591C151.099 82.1343 151.572 82.3933 151.845 82.8214L152.974 84.5924C153.444 85.3286 154.442 85.5001 155.174 85.0245C156.138 84.3989 157.194 83.8239 158.342 83.2995C159.58 82.7079 160.729 82.3313 161.79 82.1697C162.465 82.0669 163.063 82.5442 163.228 83.2072L164.211 87.1707Z"/>
</mask>
<path d="M97.9738 96.9495C97.153 96.9495 96.4875 97.615 96.4875 98.4359V107.504C96.4875 108.325 95.8221 108.99 95.0012 108.99H89.3178C88.497 108.99 87.8315 108.325 87.8315 107.504V72.7448C87.8315 71.924 88.497 71.2585 89.3178 71.2585H101.759C104.607 71.2585 107.178 71.7393 109.472 72.7012C111.765 73.6259 113.578 75.0504 114.91 76.9739C116.279 78.8972 116.963 81.2833 116.963 84.1318C116.963 86.9431 116.242 89.3108 114.799 91.2343C113.356 93.1578 111.432 94.6004 109.028 95.5623C106.66 96.487 104.071 96.9495 101.259 96.9495H97.9738ZM107.918 84.3538C107.918 82.3561 107.345 80.8393 106.198 79.8038C105.088 78.7681 103.516 78.2501 101.481 78.2501H97.9738C97.153 78.2501 96.4875 78.9155 96.4875 79.7364V88.5272C96.4875 89.3481 97.153 90.0136 97.9738 90.0136H101.592C103.442 90.0136 104.94 89.5142 106.087 88.5154C107.271 87.4797 107.881 86.0925 107.918 84.3538ZM129.885 88.6818C128.812 88.6818 127.591 88.8483 126.223 89.1812C125.478 89.3624 124.783 89.5655 124.136 89.7905C123.307 90.0792 122.365 89.6835 122.074 88.8545L120.703 84.9347C120.462 84.2477 120.753 83.482 121.426 83.2032C122.49 82.7621 123.793 82.3688 125.335 82.0233C127.48 81.5053 129.404 81.2464 131.106 81.2464C133.362 81.2464 135.36 81.6903 137.098 82.5781C138.837 83.4659 140.169 84.7235 141.094 86.3513C142.056 87.9418 142.536 89.773 142.536 91.8447V107.504C142.536 108.325 141.871 108.99 141.05 108.99H138.467C137.991 108.99 137.543 108.762 137.264 108.377L136.753 107.673C136.192 106.899 135.061 106.858 134.338 107.482C132.701 108.895 130.94 109.601 129.053 109.601C125.797 109.601 123.337 108.805 121.673 107.215C120.008 105.587 119.176 103.386 119.176 100.612C119.176 97.8742 120.1 95.8211 121.95 94.4526C123.8 93.084 126.334 92.3995 129.552 92.3995H132.187C133.044 92.3995 133.765 91.6513 133.434 90.8605C133.239 90.3949 132.963 90.0017 132.604 89.6806C131.938 89.0148 131.032 88.6818 129.885 88.6818ZM129.607 97.6154C128.683 97.6154 127.924 97.8929 127.333 98.4478C126.778 99.0026 126.5 99.7053 126.5 100.556C126.5 101.222 126.741 101.796 127.222 102.276C127.702 102.757 128.331 102.998 129.108 102.998C130.562 102.998 131.971 102.437 133.336 101.316C133.656 101.054 133.825 100.654 133.825 100.24V99.1017C133.825 98.2809 133.159 97.6154 132.338 97.6154H129.607ZM164.211 87.1707C164.443 88.1081 163.728 89.0287 162.786 89.2419C161.976 89.4252 161.105 89.7194 160.174 90.1246C158.724 90.7362 157.401 91.5166 156.205 92.4649C155.865 92.7335 155.679 93.1477 155.679 93.5805V107.504C155.679 108.325 155.014 108.99 154.193 108.99H148.454C147.633 108.99 146.967 108.325 146.967 107.504V83.6205C146.967 82.7997 147.633 82.1343 148.454 82.1343H150.591C151.099 82.1343 151.572 82.3933 151.845 82.8214L152.974 84.5924C153.444 85.3286 154.442 85.5001 155.174 85.0245C156.138 84.3989 157.194 83.8239 158.342 83.2995C159.58 82.7079 160.729 82.3313 161.79 82.1697C162.465 82.0669 163.063 82.5442 163.228 83.2072L164.211 87.1707Z" fill="#FFC71E"/>
<path d="M97.9738 96.9495C97.153 96.9495 96.4875 97.615 96.4875 98.4359V107.504C96.4875 108.325 95.8221 108.99 95.0012 108.99H89.3178C88.497 108.99 87.8315 108.325 87.8315 107.504V72.7448C87.8315 71.924 88.497 71.2585 89.3178 71.2585H101.759C104.607 71.2585 107.178 71.7393 109.472 72.7012C111.765 73.6259 113.578 75.0504 114.91 76.9739C116.279 78.8972 116.963 81.2833 116.963 84.1318C116.963 86.9431 116.242 89.3108 114.799 91.2343C113.356 93.1578 111.432 94.6004 109.028 95.5623C106.66 96.487 104.071 96.9495 101.259 96.9495H97.9738ZM107.918 84.3538C107.918 82.3561 107.345 80.8393 106.198 79.8038C105.088 78.7681 103.516 78.2501 101.481 78.2501H97.9738C97.153 78.2501 96.4875 78.9155 96.4875 79.7364V88.5272C96.4875 89.3481 97.153 90.0136 97.9738 90.0136H101.592C103.442 90.0136 104.94 89.5142 106.087 88.5154C107.271 87.4797 107.881 86.0925 107.918 84.3538ZM129.885 88.6818C128.812 88.6818 127.591 88.8483 126.223 89.1812C125.478 89.3624 124.783 89.5655 124.136 89.7905C123.307 90.0792 122.365 89.6835 122.074 88.8545L120.703 84.9347C120.462 84.2477 120.753 83.482 121.426 83.2032C122.49 82.7621 123.793 82.3688 125.335 82.0233C127.48 81.5053 129.404 81.2464 131.106 81.2464C133.362 81.2464 135.36 81.6903 137.098 82.5781C138.837 83.4659 140.169 84.7235 141.094 86.3513C142.056 87.9418 142.536 89.773 142.536 91.8447V107.504C142.536 108.325 141.871 108.99 141.05 108.99H138.467C137.991 108.99 137.543 108.762 137.264 108.377L136.753 107.673C136.192 106.899 135.061 106.858 134.338 107.482C132.701 108.895 130.94 109.601 129.053 109.601C125.797 109.601 123.337 108.805 121.673 107.215C120.008 105.587 119.176 103.386 119.176 100.612C119.176 97.8742 120.1 95.8211 121.95 94.4526C123.8 93.084 126.334 92.3995 129.552 92.3995H132.187C133.044 92.3995 133.765 91.6513 133.434 90.8605C133.239 90.3949 132.963 90.0017 132.604 89.6806C131.938 89.0148 131.032 88.6818 129.885 88.6818ZM129.607 97.6154C128.683 97.6154 127.924 97.8929 127.333 98.4478C126.778 99.0026 126.5 99.7053 126.5 100.556C126.5 101.222 126.741 101.796 127.222 102.276C127.702 102.757 128.331 102.998 129.108 102.998C130.562 102.998 131.971 102.437 133.336 101.316C133.656 101.054 133.825 100.654 133.825 100.24V99.1017C133.825 98.2809 133.159 97.6154 132.338 97.6154H129.607ZM164.211 87.1707C164.443 88.1081 163.728 89.0287 162.786 89.2419C161.976 89.4252 161.105 89.7194 160.174 90.1246C158.724 90.7362 157.401 91.5166 156.205 92.4649C155.865 92.7335 155.679 93.1477 155.679 93.5805V107.504C155.679 108.325 155.014 108.99 154.193 108.99H148.454C147.633 108.99 146.967 108.325 146.967 107.504V83.6205C146.967 82.7997 147.633 82.1343 148.454 82.1343H150.591C151.099 82.1343 151.572 82.3933 151.845 82.8214L152.974 84.5924C153.444 85.3286 154.442 85.5001 155.174 85.0245C156.138 84.3989 157.194 83.8239 158.342 83.2995C159.58 82.7079 160.729 82.3313 161.79 82.1697C162.465 82.0669 163.063 82.5442 163.228 83.2072L164.211 87.1707Z" stroke="#3D3D3D" stroke-width="10" mask="url(#path-5-outside-3_718_30815)"/>
<circle cx="102.205" cy="83.9491" r="4.26794" fill="#3D3D3D"/>
<path d="M181.508 82.6778C180.687 82.6778 180.022 82.0123 180.022 81.1915V76.2535C180.022 75.3425 179.21 74.6459 178.31 74.7844L172.626 75.6588C171.901 75.7704 171.366 76.3943 171.366 77.1278V81.1915C171.366 82.0123 170.7 82.6778 169.879 82.6778H168.968C168.147 82.6778 167.481 83.3432 167.481 84.164V87.9611C167.481 88.7819 168.147 89.4473 168.968 89.4473H169.879C170.7 89.4473 171.366 90.1128 171.366 90.9337V99.6017C171.366 102.857 172.457 105.372 174.639 107.148C176.822 108.924 179.615 109.812 183.018 109.812C184.128 109.812 185.33 109.608 186.625 109.201C187.399 108.958 188.054 108.695 188.59 108.412C189.168 108.107 189.34 107.402 189.091 106.798L187.631 103.261C187.299 102.457 186.351 102.127 185.515 102.37C184.868 102.559 184.22 102.653 183.573 102.653C182.463 102.653 181.594 102.265 180.965 101.488C180.336 100.711 180.022 99.694 180.022 98.4364V90.9337C180.022 90.1128 180.687 89.4473 181.508 89.4473H185.702C186.657 89.4473 187.364 88.5595 187.151 87.6285L186.279 83.8316C186.124 83.1564 185.523 82.6778 184.831 82.6778H181.508Z" fill="#FFC71E"/>
<path d="M217.452 84.0978C217.835 83.1227 217.116 82.0674 216.068 82.0674H210.48C209.849 82.0674 209.288 82.4653 209.078 83.06L205.296 93.8003C204.828 95.1287 202.947 95.1222 202.489 93.7906L198.569 82.4069C198.311 81.6574 197.51 81.2424 196.749 81.4635L191.452 83.0024C190.615 83.2455 190.166 84.1533 190.48 84.9661L199.672 108.72C199.739 108.891 199.773 109.073 199.773 109.257V120.255C199.773 121.076 200.438 121.741 201.259 121.741H206.221C207.041 121.741 207.708 121.076 207.708 120.255V109.15C207.708 108.964 207.742 108.779 207.81 108.606L217.452 84.0978Z" fill="#FFC71E"/>
<mask id="path-8-outside-4_718_30815" maskUnits="userSpaceOnUse" x="123.038" y="2.25854" width="47" height="48" fill="black">
<rect fill="white" x="123.038" y="2.25854" width="47" height="48"/>
<path fill-rule="evenodd" clip-rule="evenodd" d="M134.485 8.2623C135.346 8.20167 136.077 8.88289 136.077 9.74491V43.0403C136.077 43.8612 135.411 44.5266 134.59 44.5266H129.524C128.704 44.5266 128.038 43.8612 128.038 43.0403V26.6218V10.1021C128.038 9.32179 128.642 8.67435 129.421 8.61947L134.485 8.2623ZM152.474 18.7642C155.016 18.7642 157.163 19.3481 158.914 20.5161C160.666 21.684 161.972 23.2468 162.83 25.2048C163.723 27.1627 164.171 29.3612 164.171 31.8V32.7354C164.171 33.5562 163.504 34.2216 162.684 34.2216H150.065C149.094 34.2216 148.369 35.162 148.885 35.9861C149.975 37.7296 151.927 38.6012 154.741 38.6012C156.602 38.6012 158.452 38.199 160.291 37.3947C161.111 37.0361 162.097 37.3771 162.431 38.207L163.636 41.1895C163.889 41.8191 163.689 42.549 163.103 42.8928C162.133 43.463 161.011 43.9389 159.739 44.3205C158.056 44.8357 156.201 45.0934 154.174 45.0934C149.606 45.0934 145.999 43.9428 143.355 41.6412C140.743 39.3396 139.438 36.1451 139.438 32.0576C139.438 29.3783 139.988 27.0427 141.087 25.0502C142.186 23.0237 143.715 21.478 145.673 20.413C147.665 19.314 149.932 18.7642 152.474 18.7642ZM152.268 25.4109C151.134 25.4109 150.173 25.806 149.382 26.596C148.977 27.0009 148.661 27.4798 148.434 28.0326C148.098 28.8503 148.814 29.6359 149.698 29.6359H154.746C155.662 29.6359 156.383 28.7985 156.009 27.9627C155.774 27.4393 155.471 26.9838 155.102 26.596C154.415 25.806 153.471 25.4109 152.268 25.4109Z"/>
</mask>
<path fill-rule="evenodd" clip-rule="evenodd" d="M134.485 8.2623C135.346 8.20167 136.077 8.88289 136.077 9.74491V43.0403C136.077 43.8612 135.411 44.5266 134.59 44.5266H129.524C128.704 44.5266 128.038 43.8612 128.038 43.0403V26.6218V10.1021C128.038 9.32179 128.642 8.67435 129.421 8.61947L134.485 8.2623ZM152.474 18.7642C155.016 18.7642 157.163 19.3481 158.914 20.5161C160.666 21.684 161.972 23.2468 162.83 25.2048C163.723 27.1627 164.171 29.3612 164.171 31.8V32.7354C164.171 33.5562 163.504 34.2216 162.684 34.2216H150.065C149.094 34.2216 148.369 35.162 148.885 35.9861C149.975 37.7296 151.927 38.6012 154.741 38.6012C156.602 38.6012 158.452 38.199 160.291 37.3947C161.111 37.0361 162.097 37.3771 162.431 38.207L163.636 41.1895C163.889 41.8191 163.689 42.549 163.103 42.8928C162.133 43.463 161.011 43.9389 159.739 44.3205C158.056 44.8357 156.201 45.0934 154.174 45.0934C149.606 45.0934 145.999 43.9428 143.355 41.6412C140.743 39.3396 139.438 36.1451 139.438 32.0576C139.438 29.3783 139.988 27.0427 141.087 25.0502C142.186 23.0237 143.715 21.478 145.673 20.413C147.665 19.314 149.932 18.7642 152.474 18.7642ZM152.268 25.4109C151.134 25.4109 150.173 25.806 149.382 26.596C148.977 27.0009 148.661 27.4798 148.434 28.0326C148.098 28.8503 148.814 29.6359 149.698 29.6359H154.746C155.662 29.6359 156.383 28.7985 156.009 27.9627C155.774 27.4393 155.471 26.9838 155.102 26.596C154.415 25.806 153.471 25.4109 152.268 25.4109Z" fill="#FFC71E"/>
<path fill-rule="evenodd" clip-rule="evenodd" d="M134.485 8.2623C135.346 8.20167 136.077 8.88289 136.077 9.74491V43.0403C136.077 43.8612 135.411 44.5266 134.59 44.5266H129.524C128.704 44.5266 128.038 43.8612 128.038 43.0403V26.6218V10.1021C128.038 9.32179 128.642 8.67435 129.421 8.61947L134.485 8.2623ZM152.474 18.7642C155.016 18.7642 157.163 19.3481 158.914 20.5161C160.666 21.684 161.972 23.2468 162.83 25.2048C163.723 27.1627 164.171 29.3612 164.171 31.8V32.7354C164.171 33.5562 163.504 34.2216 162.684 34.2216H150.065C149.094 34.2216 148.369 35.162 148.885 35.9861C149.975 37.7296 151.927 38.6012 154.741 38.6012C156.602 38.6012 158.452 38.199 160.291 37.3947C161.111 37.0361 162.097 37.3771 162.431 38.207L163.636 41.1895C163.889 41.8191 163.689 42.549 163.103 42.8928C162.133 43.463 161.011 43.9389 159.739 44.3205C158.056 44.8357 156.201 45.0934 154.174 45.0934C149.606 45.0934 145.999 43.9428 143.355 41.6412C140.743 39.3396 139.438 36.1451 139.438 32.0576C139.438 29.3783 139.988 27.0427 141.087 25.0502C142.186 23.0237 143.715 21.478 145.673 20.413C147.665 19.314 149.932 18.7642 152.474 18.7642ZM152.268 25.4109C151.134 25.4109 150.173 25.806 149.382 26.596C148.977 27.0009 148.661 27.4798 148.434 28.0326C148.098 28.8503 148.814 29.6359 149.698 29.6359H154.746C155.662 29.6359 156.383 28.7985 156.009 27.9627C155.774 27.4393 155.471 26.9838 155.102 26.596C154.415 25.806 153.471 25.4109 152.268 25.4109Z" stroke="#3D3D3D" stroke-width="10" mask="url(#path-8-outside-4_718_30815)"/>
<ellipse cx="153.531" cy="27.2013" rx="5.16687" ry="4.26794" fill="#3D3D3D"/>
<ellipse cx="69.3779" cy="36.3474" rx="5.76514" ry="4.26794" fill="#3D3D3D"/>
<mask id="path-11-outside-5_718_30815" maskUnits="userSpaceOnUse" x="54.2563" y="3.30469" width="75" height="59" fill="black">
<rect fill="white" x="54.2563" y="3.30469" width="75" height="59"/>
<path d="M69.2006 25.6686C68.2042 25.6686 67.0707 25.8231 65.8 26.1323C65.1509 26.2902 64.5421 26.4658 63.9737 26.6595C63.1422 26.9429 62.1993 26.5471 61.9091 25.718L60.7038 22.2742C60.4634 21.5871 60.7546 20.8215 61.4289 20.5472C62.4014 20.1515 63.5837 19.7976 64.9756 19.4855C66.9676 19.0048 68.7539 18.7642 70.3342 18.7642C72.4292 18.7642 74.2841 19.1764 75.8988 20.0008C77.5132 20.8252 78.7497 21.9933 79.6086 23.5045C80.5015 24.9816 80.9483 26.682 80.9483 28.6054V43.0403C80.9483 43.8612 80.2829 44.5266 79.462 44.5266H77.2236C76.7474 44.5266 76.3001 44.2984 76.0205 43.9131L75.6561 43.4108C75.095 42.6372 73.9648 42.5975 73.2334 43.2127C71.7427 44.4663 70.1408 45.0934 68.4278 45.0934C65.4049 45.0934 63.1207 44.3549 61.575 42.8778C60.0292 41.3665 59.2563 39.3226 59.2563 36.7464C59.2563 34.2046 60.1149 32.2981 61.8326 31.0271C63.5499 29.756 65.903 29.1206 68.8915 29.1206H71.2248C72.0823 29.1206 72.8084 28.3674 72.4509 27.588C72.2733 27.2006 72.0314 26.8699 71.7254 26.596C71.107 25.9777 70.2653 25.6686 69.2006 25.6686ZM68.943 33.964C68.0842 33.964 67.3798 34.2216 66.8305 34.7369C66.3153 35.2521 66.0576 35.9049 66.0576 36.6948C66.0576 37.3131 66.2808 37.8454 66.7274 38.2921C67.1738 38.7388 67.7579 38.9619 68.4793 38.9619C69.816 38.9619 71.1126 38.4512 72.369 37.4299C72.6901 37.1689 72.8589 36.7687 72.8589 36.3549V35.4503C72.8589 34.6294 72.1934 33.964 71.3726 33.964H68.943ZM86.9691 27.8761C86.9691 27.0554 86.3037 26.3899 85.4829 26.3899H84.4365C83.6156 26.3899 82.9502 25.7245 82.9502 24.9036V21.5901C82.9502 20.7693 83.6156 20.1039 84.4365 20.1039H85.4829C86.3037 20.1039 86.9691 19.4384 86.9691 18.6175V17.9914C86.9691 14.9685 87.9655 12.5983 89.9576 10.8809C91.9844 9.16356 94.5607 8.30469 97.6863 8.30469C98.6827 8.30469 99.7647 8.51079 100.932 8.92298C101.641 9.14547 102.248 9.39189 102.753 9.66215C103.326 9.96857 103.494 10.6716 103.246 11.2723L101.962 14.3828C101.63 15.1876 100.682 15.5151 99.8418 15.2856C99.2779 15.1315 98.714 15.0545 98.15 15.0545C97.1539 15.0545 96.3811 15.4151 95.8314 16.1365C95.282 16.8233 95.007 17.7681 95.007 18.9704C95.007 19.5964 95.5145 20.1039 96.1405 20.1039H99.6549C100.343 20.1039 100.942 20.5766 101.101 21.2464L101.889 24.5599C102.111 25.4937 101.402 26.3899 100.443 26.3899H96.4932C95.6724 26.3899 95.007 27.0554 95.007 27.8761V54.891C95.007 55.7118 94.3416 56.3772 93.5207 56.3772H88.4555C87.6346 56.3772 86.9691 55.7118 86.9691 54.891V27.8761ZM107.223 27.8761C107.223 27.0554 106.558 26.3899 105.737 26.3899H104.69C103.87 26.3899 103.204 25.7245 103.204 24.9036V21.5901C103.204 20.7693 103.87 20.1039 104.69 20.1039H105.737C106.558 20.1039 107.223 19.4384 107.223 18.6175V17.9914C107.223 14.9685 108.219 12.5983 110.212 10.8809C112.238 9.16356 114.814 8.30469 117.94 8.30469C118.936 8.30469 120.019 8.51079 121.187 8.92298C121.894 9.14549 122.501 9.39191 123.007 9.6622C123.58 9.96859 123.748 10.6716 123.5 11.2723L122.216 14.383C121.884 15.1877 120.936 15.5152 120.096 15.2857C119.532 15.1315 118.968 15.0545 118.404 15.0545C117.408 15.0545 116.635 15.4151 116.085 16.1365C115.536 16.8233 115.261 17.7681 115.261 18.9704C115.261 19.5964 115.769 20.1039 116.395 20.1039H119.909C120.597 20.1039 121.196 20.5766 121.355 21.2464L122.143 24.5599C122.364 25.4937 121.657 26.3899 120.696 26.3899H116.747C115.926 26.3899 115.261 27.0554 115.261 27.8761V54.891C115.261 55.7118 114.596 56.3772 113.775 56.3772H108.709C107.889 56.3772 107.223 55.7118 107.223 54.891V27.8761Z"/>
</mask>
<path d="M69.2006 25.6686C68.2042 25.6686 67.0707 25.8231 65.8 26.1323C65.1509 26.2902 64.5421 26.4658 63.9737 26.6595C63.1422 26.9429 62.1993 26.5471 61.9091 25.718L60.7038 22.2742C60.4634 21.5871 60.7546 20.8215 61.4289 20.5472C62.4014 20.1515 63.5837 19.7976 64.9756 19.4855C66.9676 19.0048 68.7539 18.7642 70.3342 18.7642C72.4292 18.7642 74.2841 19.1764 75.8988 20.0008C77.5132 20.8252 78.7497 21.9933 79.6086 23.5045C80.5015 24.9816 80.9483 26.682 80.9483 28.6054V43.0403C80.9483 43.8612 80.2829 44.5266 79.462 44.5266H77.2236C76.7474 44.5266 76.3001 44.2984 76.0205 43.9131L75.6561 43.4108C75.095 42.6372 73.9648 42.5975 73.2334 43.2127C71.7427 44.4663 70.1408 45.0934 68.4278 45.0934C65.4049 45.0934 63.1207 44.3549 61.575 42.8778C60.0292 41.3665 59.2563 39.3226 59.2563 36.7464C59.2563 34.2046 60.1149 32.2981 61.8326 31.0271C63.5499 29.756 65.903 29.1206 68.8915 29.1206H71.2248C72.0823 29.1206 72.8084 28.3674 72.4509 27.588C72.2733 27.2006 72.0314 26.8699 71.7254 26.596C71.107 25.9777 70.2653 25.6686 69.2006 25.6686ZM68.943 33.964C68.0842 33.964 67.3798 34.2216 66.8305 34.7369C66.3153 35.2521 66.0576 35.9049 66.0576 36.6948C66.0576 37.3131 66.2808 37.8454 66.7274 38.2921C67.1738 38.7388 67.7579 38.9619 68.4793 38.9619C69.816 38.9619 71.1126 38.4512 72.369 37.4299C72.6901 37.1689 72.8589 36.7687 72.8589 36.3549V35.4503C72.8589 34.6294 72.1934 33.964 71.3726 33.964H68.943ZM86.9691 27.8761C86.9691 27.0554 86.3037 26.3899 85.4829 26.3899H84.4365C83.6156 26.3899 82.9502 25.7245 82.9502 24.9036V21.5901C82.9502 20.7693 83.6156 20.1039 84.4365 20.1039H85.4829C86.3037 20.1039 86.9691 19.4384 86.9691 18.6175V17.9914C86.9691 14.9685 87.9655 12.5983 89.9576 10.8809C91.9844 9.16356 94.5607 8.30469 97.6863 8.30469C98.6827 8.30469 99.7647 8.51079 100.932 8.92298C101.641 9.14547 102.248 9.39189 102.753 9.66215C103.326 9.96857 103.494 10.6716 103.246 11.2723L101.962 14.3828C101.63 15.1876 100.682 15.5151 99.8418 15.2856C99.2779 15.1315 98.714 15.0545 98.15 15.0545C97.1539 15.0545 96.3811 15.4151 95.8314 16.1365C95.282 16.8233 95.007 17.7681 95.007 18.9704C95.007 19.5964 95.5145 20.1039 96.1405 20.1039H99.6549C100.343 20.1039 100.942 20.5766 101.101 21.2464L101.889 24.5599C102.111 25.4937 101.402 26.3899 100.443 26.3899H96.4932C95.6724 26.3899 95.007 27.0554 95.007 27.8761V54.891C95.007 55.7118 94.3416 56.3772 93.5207 56.3772H88.4555C87.6346 56.3772 86.9691 55.7118 86.9691 54.891V27.8761ZM107.223 27.8761C107.223 27.0554 106.558 26.3899 105.737 26.3899H104.69C103.87 26.3899 103.204 25.7245 103.204 24.9036V21.5901C103.204 20.7693 103.87 20.1039 104.69 20.1039H105.737C106.558 20.1039 107.223 19.4384 107.223 18.6175V17.9914C107.223 14.9685 108.219 12.5983 110.212 10.8809C112.238 9.16356 114.814 8.30469 117.94 8.30469C118.936 8.30469 120.019 8.51079 121.187 8.92298C121.894 9.14549 122.501 9.39191 123.007 9.6622C123.58 9.96859 123.748 10.6716 123.5 11.2723L122.216 14.383C121.884 15.1877 120.936 15.5152 120.096 15.2857C119.532 15.1315 118.968 15.0545 118.404 15.0545C117.408 15.0545 116.635 15.4151 116.085 16.1365C115.536 16.8233 115.261 17.7681 115.261 18.9704C115.261 19.5964 115.769 20.1039 116.395 20.1039H119.909C120.597 20.1039 121.196 20.5766 121.355 21.2464L122.143 24.5599C122.364 25.4937 121.657 26.3899 120.696 26.3899H116.747C115.926 26.3899 115.261 27.0554 115.261 27.8761V54.891C115.261 55.7118 114.596 56.3772 113.775 56.3772H108.709C107.889 56.3772 107.223 55.7118 107.223 54.891V27.8761Z" fill="#FFC71E"/>
<path d="M69.2006 25.6686C68.2042 25.6686 67.0707 25.8231 65.8 26.1323C65.1509 26.2902 64.5421 26.4658 63.9737 26.6595C63.1422 26.9429 62.1993 26.5471 61.9091 25.718L60.7038 22.2742C60.4634 21.5871 60.7546 20.8215 61.4289 20.5472C62.4014 20.1515 63.5837 19.7976 64.9756 19.4855C66.9676 19.0048 68.7539 18.7642 70.3342 18.7642C72.4292 18.7642 74.2841 19.1764 75.8988 20.0008C77.5132 20.8252 78.7497 21.9933 79.6086 23.5045C80.5015 24.9816 80.9483 26.682 80.9483 28.6054V43.0403C80.9483 43.8612 80.2829 44.5266 79.462 44.5266H77.2236C76.7474 44.5266 76.3001 44.2984 76.0205 43.9131L75.6561 43.4108C75.095 42.6372 73.9648 42.5975 73.2334 43.2127C71.7427 44.4663 70.1408 45.0934 68.4278 45.0934C65.4049 45.0934 63.1207 44.3549 61.575 42.8778C60.0292 41.3665 59.2563 39.3226 59.2563 36.7464C59.2563 34.2046 60.1149 32.2981 61.8326 31.0271C63.5499 29.756 65.903 29.1206 68.8915 29.1206H71.2248C72.0823 29.1206 72.8084 28.3674 72.4509 27.588C72.2733 27.2006 72.0314 26.8699 71.7254 26.596C71.107 25.9777 70.2653 25.6686 69.2006 25.6686ZM68.943 33.964C68.0842 33.964 67.3798 34.2216 66.8305 34.7369C66.3153 35.2521 66.0576 35.9049 66.0576 36.6948C66.0576 37.3131 66.2808 37.8454 66.7274 38.2921C67.1738 38.7388 67.7579 38.9619 68.4793 38.9619C69.816 38.9619 71.1126 38.4512 72.369 37.4299C72.6901 37.1689 72.8589 36.7687 72.8589 36.3549V35.4503C72.8589 34.6294 72.1934 33.964 71.3726 33.964H68.943ZM86.9691 27.8761C86.9691 27.0554 86.3037 26.3899 85.4829 26.3899H84.4365C83.6156 26.3899 82.9502 25.7245 82.9502 24.9036V21.5901C82.9502 20.7693 83.6156 20.1039 84.4365 20.1039H85.4829C86.3037 20.1039 86.9691 19.4384 86.9691 18.6175V17.9914C86.9691 14.9685 87.9655 12.5983 89.9576 10.8809C91.9844 9.16356 94.5607 8.30469 97.6863 8.30469C98.6827 8.30469 99.7647 8.51079 100.932 8.92298C101.641 9.14547 102.248 9.39189 102.753 9.66215C103.326 9.96857 103.494 10.6716 103.246 11.2723L101.962 14.3828C101.63 15.1876 100.682 15.5151 99.8418 15.2856C99.2779 15.1315 98.714 15.0545 98.15 15.0545C97.1539 15.0545 96.3811 15.4151 95.8314 16.1365C95.282 16.8233 95.007 17.7681 95.007 18.9704C95.007 19.5964 95.5145 20.1039 96.1405 20.1039H99.6549C100.343 20.1039 100.942 20.5766 101.101 21.2464L101.889 24.5599C102.111 25.4937 101.402 26.3899 100.443 26.3899H96.4932C95.6724 26.3899 95.007 27.0554 95.007 27.8761V54.891C95.007 55.7118 94.3416 56.3772 93.5207 56.3772H88.4555C87.6346 56.3772 86.9691 55.7118 86.9691 54.891V27.8761ZM107.223 27.8761C107.223 27.0554 106.558 26.3899 105.737 26.3899H104.69C103.87 26.3899 103.204 25.7245 103.204 24.9036V21.5901C103.204 20.7693 103.87 20.1039 104.69 20.1039H105.737C106.558 20.1039 107.223 19.4384 107.223 18.6175V17.9914C107.223 14.9685 108.219 12.5983 110.212 10.8809C112.238 9.16356 114.814 8.30469 117.94 8.30469C118.936 8.30469 120.019 8.51079 121.187 8.92298C121.894 9.14549 122.501 9.39191 123.007 9.6622C123.58 9.96859 123.748 10.6716 123.5 11.2723L122.216 14.383C121.884 15.1877 120.936 15.5152 120.096 15.2857C119.532 15.1315 118.968 15.0545 118.404 15.0545C117.408 15.0545 116.635 15.4151 116.085 16.1365C115.536 16.8233 115.261 17.7681 115.261 18.9704C115.261 19.5964 115.769 20.1039 116.395 20.1039H119.909C120.597 20.1039 121.196 20.5766 121.355 21.2464L122.143 24.5599C122.364 25.4937 121.657 26.3899 120.696 26.3899H116.747C115.926 26.3899 115.261 27.0554 115.261 27.8761V54.891C115.261 55.7118 114.596 56.3772 113.775 56.3772H108.709C107.889 56.3772 107.223 55.7118 107.223 54.891V27.8761Z" stroke="#3D3D3D" stroke-width="10" mask="url(#path-11-outside-5_718_30815)"/>
<path fill-rule="evenodd" clip-rule="evenodd" d="M134.485 8.2623C135.346 8.20167 136.077 8.88289 136.077 9.74491V43.0403C136.077 43.8612 135.411 44.5266 134.59 44.5266H129.524C128.704 44.5266 128.038 43.8612 128.038 43.0403V26.6218V10.1021C128.038 9.32179 128.642 8.67435 129.421 8.61947L134.485 8.2623ZM152.474 18.7642C155.016 18.7642 157.163 19.3481 158.914 20.5161C160.666 21.684 161.972 23.2468 162.83 25.2048C163.723 27.1627 164.171 29.3612 164.171 31.8V32.7354C164.171 33.5562 163.504 34.2216 162.684 34.2216H150.065C149.094 34.2216 148.369 35.162 148.885 35.9861C149.975 37.7296 151.927 38.6012 154.741 38.6012C156.602 38.6012 158.452 38.199 160.291 37.3947C161.111 37.0361 162.097 37.3771 162.431 38.207L163.636 41.1895C163.889 41.8191 163.689 42.549 163.103 42.8928C162.133 43.463 161.011 43.9389 159.739 44.3205C158.056 44.8357 156.201 45.0934 154.174 45.0934C149.606 45.0934 145.999 43.9428 143.355 41.6412C140.743 39.3396 139.438 36.1451 139.438 32.0576C139.438 29.3783 139.988 27.0427 141.087 25.0502C142.186 23.0237 143.715 21.478 145.673 20.413C147.665 19.314 149.932 18.7642 152.474 18.7642ZM152.268 25.4109C151.134 25.4109 150.173 25.806 149.382 26.596C148.977 27.0009 148.661 27.4798 148.434 28.0326C148.098 28.8503 148.814 29.6359 149.698 29.6359H154.746C155.662 29.6359 156.383 28.7985 156.009 27.9627C155.774 27.4393 155.471 26.9838 155.102 26.596C154.415 25.806 153.471 25.4109 152.268 25.4109Z" fill="#FFC71E"/>
<mask id="path-13-outside-6_718_30815" maskUnits="userSpaceOnUse" x="4.49219" y="4.80896" width="58" height="45" fill="black">
<rect fill="white" x="4.49219" y="4.80896" width="58" height="45"/>
<path d="M33.7915 22.2974L29.2865 43.5614C29.1415 44.2462 28.5371 44.736 27.8371 44.736H21.1061C20.4497 44.736 19.8716 44.3041 19.6854 43.6747L10.5536 12.809C10.3026 11.9606 10.8463 11.0828 11.7176 10.9294L16.6734 10.0574C17.4604 9.91891 18.2156 10.4295 18.3801 11.2116L22.2858 29.7744C22.6214 31.3693 24.9112 31.332 25.1946 29.727L28.4973 11.0328C28.6223 10.325 29.2375 9.80896 29.9564 9.80896L37.6267 9.80905C38.3455 9.80905 38.9607 10.325 39.0857 11.0329L42.3883 29.7271C42.6719 31.3321 44.9616 31.3694 45.2972 29.7744L49.2029 11.2116C49.3675 10.4296 50.1225 9.91899 50.9095 10.0575L55.8653 10.9295C56.7367 11.0829 57.2804 11.9607 57.0293 12.8091L47.8976 43.6748C47.7114 44.3041 47.1333 44.736 46.4769 44.736H39.7458C39.0459 44.736 38.4414 44.2462 38.2964 43.5615L33.7915 22.2974Z"/>
</mask>
<path d="M33.7915 22.2974L29.2865 43.5614C29.1415 44.2462 28.5371 44.736 27.8371 44.736H21.1061C20.4497 44.736 19.8716 44.3041 19.6854 43.6747L10.5536 12.809C10.3026 11.9606 10.8463 11.0828 11.7176 10.9294L16.6734 10.0574C17.4604 9.91891 18.2156 10.4295 18.3801 11.2116L22.2858 29.7744C22.6214 31.3693 24.9112 31.332 25.1946 29.727L28.4973 11.0328C28.6223 10.325 29.2375 9.80896 29.9564 9.80896L37.6267 9.80905C38.3455 9.80905 38.9607 10.325 39.0857 11.0329L42.3883 29.7271C42.6719 31.3321 44.9616 31.3694 45.2972 29.7744L49.2029 11.2116C49.3675 10.4296 50.1225 9.91899 50.9095 10.0575L55.8653 10.9295C56.7367 11.0829 57.2804 11.9607 57.0293 12.8091L47.8976 43.6748C47.7114 44.3041 47.1333 44.736 46.4769 44.736H39.7458C39.0459 44.736 38.4414 44.2462 38.2964 43.5615L33.7915 22.2974Z" fill="#FFC71E"/>
<path d="M33.7915 22.2974L29.2865 43.5614C29.1415 44.2462 28.5371 44.736 27.8371 44.736H21.1061C20.4497 44.736 19.8716 44.3041 19.6854 43.6747L10.5536 12.809C10.3026 11.9606 10.8463 11.0828 11.7176 10.9294L16.6734 10.0574C17.4604 9.91891 18.2156 10.4295 18.3801 11.2116L22.2858 29.7744C22.6214 31.3693 24.9112 31.332 25.1946 29.727L28.4973 11.0328C28.6223 10.325 29.2375 9.80896 29.9564 9.80896L37.6267 9.80905C38.3455 9.80905 38.9607 10.325 39.0857 11.0329L42.3883 29.7271C42.6719 31.3321 44.9616 31.3694 45.2972 29.7744L49.2029 11.2116C49.3675 10.4296 50.1225 9.91899 50.9095 10.0575L55.8653 10.9295C56.7367 11.0829 57.2804 11.9607 57.0293 12.8091L47.8976 43.6748C47.7114 44.3041 47.1333 44.736 46.4769 44.736H39.7458C39.0459 44.736 38.4414 44.2462 38.2964 43.5615L33.7915 22.2974Z" stroke="#3D3D3D" stroke-width="10" mask="url(#path-13-outside-6_718_30815)"/>
</svg>
